<svg width="40" height="41" viewBox="0 0 40 41" fill="none" xmlns="http://www.w3.org/2000/svg">
<path d="M20 1.93047C22.5147 1.92661 25.0043 2.42997 27.32 3.41047C31.8212 5.32499 35.4055 8.90924 37.32 13.4105C38.2969 15.7273 38.8002 18.2161 38.8002 20.7305C38.8002 23.2448 38.2969 25.7337 37.32 28.0505C35.4055 32.5517 31.8212 36.1359 27.32 38.0505C25.0032 39.0274 22.5143 39.5306 20 39.5306C17.4857 39.5306 14.9968 39.0274 12.68 38.0505C8.17878 36.1359 4.59453 32.5517 2.68001 28.0505C1.70311 25.7337 1.19982 23.2448 1.19982 20.7305C1.19982 18.2161 1.70311 15.7273 2.68001 13.4105C4.59453 8.90924 8.17878 5.32499 12.68 3.41047C14.9957 2.42997 17.4853 1.92661 20 1.93047ZM20 0.730471C16.0444 0.730471 12.1776 1.90345 8.8886 4.10108C5.59962 6.29871 3.03617 9.42228 1.52242 13.0768C0.00866565 16.7313 -0.387401 20.7527 0.384303 24.6323C1.15601 28.5119 3.06082 32.0756 5.85787 34.8726C8.65492 37.6697 12.2186 39.5745 16.0982 40.3462C19.9778 41.1179 23.9991 40.7218 27.6537 39.2081C31.3082 37.6943 34.4318 35.1309 36.6294 31.8419C38.827 28.5529 40 24.6861 40 20.7305C40.0013 18.1037 39.4849 15.5023 38.4803 13.0752C37.4756 10.6481 36.0025 8.44284 34.1451 6.5854C32.2876 4.72797 30.0823 3.25483 27.6552 2.2502C25.2281 1.24557 22.6268 0.729157 20 0.730471Z" fill="#0F0F0F"/>
<path d="M21.1787 21.7403H22.8487L23.5287 19.0503H21.1787V17.7103C21.1787 17.0203 21.1787 16.3603 22.5187 16.3603H23.5287V14.1103C22.891 14.0429 22.2501 14.0096 21.6087 14.0103C19.7788 14.0103 18.4887 15.1303 18.4887 17.1703V19.0503H16.4688V21.7403H18.4887V27.4503H21.1787V21.7403Z" fill="#0F0F0F"/>
</svg>
