<svg width="272" height="60" viewBox="0 0 272 60" fill="none" xmlns="http://www.w3.org/2000/svg">
<path d="M11.5417 9.84537H27.5491L33.9647 3.07275H4.65442L0 29.1599H8.14523L9.81201 19.5967H24.6558L30.694 13.2317H10.9756L11.5417 9.84537Z" fill="#2A317F"/>
<path d="M41.3863 22.45L44.8142 3.07275H36.7633L32.1089 29.1599H55.2237L61.7022 22.45H41.3863Z" fill="#2A317F"/>
<path d="M67.5518 31.8877H85.0374L47.1416 59.7307L63.8409 37.9392H52.5822L86.7356 0L89.9119 8.68525L67.5518 31.8877Z" fill="#F8AD39"/>
<path d="M103.938 29.1596H73.4644L79.5969 22.4497H88.5912C89.3157 22.4448 90.0399 22.4762 90.7612 22.5438C90.4781 22.0734 89.7863 20.7565 89.7863 20.7565L87.176 15.583L93.5287 8.99854L103.938 29.1596Z" fill="#2A317F"/>
<path d="M141.143 14.9877C139.664 13.9844 137.494 13.4827 134.664 13.4827H120.418C118.751 13.4827 117.902 12.981 117.902 11.9777C117.902 10.9743 118.153 10.6608 118.657 10.3472C119.16 10.0337 119.946 9.84555 121.047 9.84555H139.193L145.608 3.07293H122.871C120.888 3.02985 118.909 3.26201 116.99 3.76273C115.55 4.15066 114.203 4.82233 113.027 5.73808C112.038 6.51657 111.259 7.52985 110.763 8.68542C110.307 9.86617 110.073 11.1202 110.071 12.3853C110.041 13.256 110.213 14.1218 110.573 14.9156C110.933 15.7095 111.472 16.41 112.147 16.9631C113.531 18.0918 115.7 18.6562 118.688 18.6562H132.966C134.633 18.6562 135.45 19.1892 135.45 20.224C135.473 20.5462 135.416 20.869 135.284 21.1642C135.153 21.4594 134.951 21.7179 134.696 21.9171C134.192 22.262 133.406 22.4501 132.305 22.4501H112.461L106.077 29.16H130.481C132.777 29.16 134.758 28.9406 136.394 28.4389C137.855 28.0506 139.217 27.3558 140.388 26.4008C141.397 25.5893 142.177 24.5305 142.652 23.3281C143.126 22.0761 143.361 20.7468 143.344 19.4087C143.344 17.4647 142.621 15.9911 141.143 14.9877Z" fill="#2A317F"/>
<path d="M173.629 3.07275L171.993 12.291H156.395L158.062 3.07275H149.948L145.293 29.1599H153.439L155.2 19.095H170.83L169.037 29.1599H177.088L181.743 3.07275H173.629Z" fill="#2A317F"/>
<path d="M197.498 9.12421H213.82L220.362 2.19482H190.485L185.548 29.1599H193.85L195.737 19.0637H210.864L216.997 12.5732H196.901L197.498 9.12421Z" fill="#2A317F"/>
<path d="M232.092 2.19482L227.06 29.1599H218.978L222.563 9.97079L232.092 2.19482Z" fill="#2A317F"/>
<path d="M240.552 2.19482L233.853 9.21828H246.527L243.036 29.1599H251.401L254.955 9.21828H264.578L271.277 2.19482H240.552Z" fill="#2A317F"/>
<path d="M232.091 2.19482L222.562 9.97079L224.009 2.19482H232.091Z" fill="#F8AD39"/>
</svg>
