<svg width="40" height="41" viewBox="0 0 40 41" fill="none" xmlns="http://www.w3.org/2000/svg">
<path d="M23.5912 16.3403C23.4322 16.3416 23.2765 16.3866 23.1412 16.4703C23.0076 16.5621 22.9035 16.6906 22.8412 16.8403C22.7836 16.987 22.7701 17.1474 22.8023 17.3017C22.8345 17.456 22.911 17.5976 23.0225 17.709C23.1339 17.8205 23.2755 17.897 23.4298 17.9292C23.5841 17.9614 23.7445 17.9479 23.8912 17.8903C24.0409 17.8281 24.1694 17.7239 24.2612 17.5903C24.3449 17.455 24.3899 17.2993 24.3912 17.1403C24.3926 17.0348 24.3728 16.9302 24.3331 16.8325C24.2934 16.7349 24.2345 16.6461 24.1599 16.5716C24.0854 16.497 23.9966 16.4381 23.899 16.3984C23.8013 16.3587 23.6967 16.3389 23.5912 16.3403ZM26.6812 17.9603C26.6633 17.4041 26.5587 16.8542 26.3712 16.3303C26.1989 15.8826 25.933 15.4769 25.5912 15.1403C25.2567 14.7984 24.8502 14.5353 24.4012 14.3703C23.8792 14.1749 23.3285 14.0668 22.7712 14.0503C22.0512 14.0103 21.8312 14.0103 20.0012 14.0103C18.1712 14.0103 17.9412 14.0103 17.2312 14.0503C16.674 14.0668 16.1233 14.1749 15.6012 14.3703C15.1542 14.5391 14.7485 14.8016 14.4113 15.1403C14.0694 15.4748 13.8063 15.8813 13.6412 16.3303C13.4459 16.8523 13.3378 17.403 13.3212 17.9603C13.2812 18.6703 13.2812 18.9003 13.2812 20.7303C13.2812 22.5603 13.2812 22.7803 13.3212 23.5003C13.3378 24.0575 13.4459 24.6082 13.6412 25.1303C13.8063 25.5792 14.0694 25.9857 14.4113 26.3203C14.7485 26.6589 15.1542 26.9214 15.6012 27.0903C16.1233 27.2856 16.674 27.3937 17.2312 27.4102C17.9412 27.4502 18.1712 27.4503 20.0012 27.4503C21.8312 27.4503 22.0512 27.4502 22.7712 27.4102C23.3285 27.3937 23.8792 27.2856 24.4012 27.0903C24.8502 26.9252 25.2567 26.6621 25.5912 26.3203C25.933 25.9836 26.1989 25.5779 26.3712 25.1303C26.5587 24.6063 26.6633 24.0564 26.6812 23.5003C26.6812 22.7803 26.7212 22.5603 26.7212 20.7303C26.7212 18.9003 26.7212 18.6703 26.6812 17.9603ZM25.4712 23.4203C25.4587 23.8462 25.3812 24.2677 25.2412 24.6703C25.1265 24.9585 24.9536 25.2199 24.7334 25.4384C24.5132 25.6569 24.2503 25.8277 23.9612 25.9403C23.5605 26.0867 23.1379 26.1645 22.7112 26.1703C22.0412 26.2003 21.7912 26.2103 20.0312 26.2103C18.2712 26.2103 18.0112 26.2103 17.3412 26.1703C16.8996 26.1788 16.4599 26.1112 16.0412 25.9703C15.7625 25.8522 15.5107 25.6787 15.3012 25.4603C15.0796 25.2438 14.9088 24.9808 14.8012 24.6903C14.6418 24.2847 14.5506 23.8556 14.5312 23.4203C14.5312 22.7403 14.4912 22.5003 14.4912 20.7303C14.4912 18.9603 14.4912 18.7203 14.5312 18.0403C14.5413 17.6067 14.6224 17.1776 14.7712 16.7703C14.8877 16.4856 15.0692 16.2322 15.3012 16.0303C15.5047 15.7975 15.7575 15.613 16.0412 15.4903C16.4492 15.3447 16.8782 15.267 17.3112 15.2603C17.9912 15.2603 18.2312 15.2203 20.0012 15.2203C21.7712 15.2203 22.0112 15.2203 22.6912 15.2603C23.1172 15.2728 23.5387 15.3503 23.9412 15.4903C24.242 15.6083 24.5121 15.7929 24.7312 16.0303C24.9529 16.237 25.1269 16.4895 25.2412 16.7703C25.3868 17.1782 25.4645 17.6072 25.4712 18.0403C25.5012 18.7203 25.5112 18.9603 25.5112 20.7303C25.5112 22.5003 25.5012 22.7403 25.4712 23.4203ZM20.0012 17.2803C19.3208 17.2871 18.657 17.4921 18.0912 17.8703C17.5235 18.2494 17.0814 18.789 16.8212 19.4203C16.5593 20.0494 16.4931 20.7429 16.6312 21.4103C16.731 21.9097 16.9405 22.3808 17.2445 22.7895C17.5485 23.1982 17.9394 23.5342 18.3891 23.7734C18.8388 24.0126 19.336 24.149 19.8448 24.1726C20.3536 24.1963 20.8613 24.1067 21.3312 23.9103C21.9587 23.6481 22.4946 23.2064 22.8718 22.6406C23.249 22.0749 23.4506 21.4102 23.4512 20.7303C23.45 20.2777 23.3617 19.8295 23.1912 19.4103C23.0187 18.9905 22.7637 18.6096 22.4412 18.2903C22.1214 17.969 21.7412 17.7144 21.3223 17.541C20.9035 17.3677 20.4545 17.279 20.0012 17.2803ZM20.0012 22.9703C19.5592 22.9704 19.1273 22.8381 18.7612 22.5903C18.3942 22.3436 18.106 21.9964 17.9312 21.5903C17.7619 21.1787 17.72 20.7258 17.8112 20.2903C17.8975 19.8583 18.1098 19.4616 18.4212 19.1502C18.7326 18.8388 19.1293 18.6265 19.5612 18.5403C19.9968 18.4491 20.4497 18.4909 20.8612 18.6603C21.2674 18.835 21.6146 19.1232 21.8612 19.4903C22.1091 19.8563 22.2414 20.2882 22.2412 20.7303C22.2412 21.3243 22.0052 21.8941 21.5852 22.3142C21.1651 22.7343 20.5953 22.9703 20.0012 22.9703Z" fill="#0F0F0F"/>
<path d="M20 1.93047C22.5147 1.92661 25.0043 2.42997 27.32 3.41047C31.8212 5.32499 35.4055 8.90924 37.32 13.4105C38.2969 15.7273 38.8002 18.2161 38.8002 20.7305C38.8002 23.2448 38.2969 25.7337 37.32 28.0505C35.4055 32.5517 31.8212 36.1359 27.32 38.0505C25.0032 39.0274 22.5143 39.5306 20 39.5306C17.4857 39.5306 14.9968 39.0274 12.68 38.0505C8.17878 36.1359 4.59453 32.5517 2.68001 28.0505C1.70311 25.7337 1.19982 23.2448 1.19982 20.7305C1.19982 18.2161 1.70311 15.7273 2.68001 13.4105C4.59453 8.90924 8.17878 5.32499 12.68 3.41047C14.9957 2.42997 17.4853 1.92661 20 1.93047ZM20 0.730471C16.0444 0.730471 12.1776 1.90345 8.8886 4.10108C5.59962 6.29871 3.03617 9.42228 1.52242 13.0768C0.00866565 16.7313 -0.387401 20.7527 0.384303 24.6323C1.15601 28.5119 3.06082 32.0756 5.85787 34.8726C8.65492 37.6697 12.2186 39.5745 16.0982 40.3462C19.9778 41.1179 23.9991 40.7218 27.6537 39.2081C31.3082 37.6943 34.4318 35.1309 36.6294 31.8419C38.827 28.5529 40 24.6861 40 20.7305C40.0013 18.1037 39.4849 15.5023 38.4803 13.0752C37.4756 10.6481 36.0025 8.44284 34.1451 6.5854C32.2876 4.72797 30.0823 3.25483 27.6552 2.2502C25.2281 1.24557 22.6268 0.729157 20 0.730471Z" fill="#0F0F0F"/>
</svg>
