<svg width="40" height="41" viewBox="0 0 40 41" fill="none" xmlns="http://www.w3.org/2000/svg">
<path d="M23.3783 16.1906C22.8766 15.6176 22.5995 14.8822 22.5983 14.1206H20.3283V23.2306C20.3057 23.7215 20.0985 24.1858 19.7483 24.5306C19.5057 24.7643 19.2055 24.9297 18.8784 25.01C18.5512 25.0903 18.2086 25.0827 17.8853 24.9878C17.5621 24.8929 17.2696 24.7143 17.0377 24.4699C16.8058 24.2255 16.6427 23.9242 16.5648 23.5964C16.487 23.2687 16.4972 22.9261 16.5945 22.6036C16.6918 22.281 16.8726 21.99 17.1187 21.7599C17.3648 21.5298 17.6673 21.3689 17.9957 21.2935C18.324 21.2181 18.6665 21.2309 18.9883 21.3306V19.0106C18.3971 18.9309 17.7958 18.9783 17.2244 19.1497C16.6531 19.321 16.1249 19.6124 15.6753 20.0044C15.2256 20.3963 14.8648 20.8797 14.617 21.4223C14.3692 21.9649 14.24 22.5541 14.2383 23.1506C14.2383 25.6006 16.2683 27.3406 18.4183 27.3406C19.5278 27.338 20.591 26.8953 21.3746 26.1099C22.1582 25.3244 22.5983 24.2601 22.5983 23.1506V18.5406C23.5195 19.2005 24.6251 19.5538 25.7583 19.5506V17.2806C25.3068 17.2789 24.861 17.1807 24.4505 16.9927C24.0401 16.8048 23.6745 16.5313 23.3783 16.1906Z" fill="#0F0F0F"/>
<path d="M20 1.93047C22.5147 1.92661 25.0043 2.42997 27.32 3.41047C31.8212 5.32499 35.4055 8.90924 37.32 13.4105C38.2969 15.7273 38.8002 18.2161 38.8002 20.7305C38.8002 23.2448 38.2969 25.7337 37.32 28.0505C35.4055 32.5517 31.8212 36.1359 27.32 38.0505C25.0032 39.0274 22.5143 39.5306 20 39.5306C17.4857 39.5306 14.9968 39.0274 12.68 38.0505C8.17878 36.1359 4.59453 32.5517 2.68001 28.0505C1.70311 25.7337 1.19982 23.2448 1.19982 20.7305C1.19982 18.2161 1.70311 15.7273 2.68001 13.4105C4.59453 8.90924 8.17878 5.32499 12.68 3.41047C14.9957 2.42997 17.4853 1.92661 20 1.93047ZM20 0.730471C16.0444 0.730471 12.1776 1.90345 8.8886 4.10108C5.59962 6.29871 3.03617 9.42228 1.52242 13.0768C0.00866565 16.7313 -0.387401 20.7527 0.384303 24.6323C1.15601 28.5119 3.06082 32.0756 5.85787 34.8726C8.65492 37.6697 12.2186 39.5745 16.0982 40.3462C19.9778 41.1179 23.9991 40.7218 27.6537 39.2081C31.3082 37.6943 34.4318 35.1309 36.6294 31.8419C38.827 28.5529 40 24.6861 40 20.7305C40.0013 18.1037 39.4849 15.5023 38.4803 13.0752C37.4756 10.6481 36.0025 8.44284 34.1451 6.5854C32.2876 4.72797 30.0823 3.25483 27.6552 2.2502C25.2281 1.24557 22.6268 0.729157 20 0.730471Z" fill="#0F0F0F"/>
</svg>
