<svg width="40" height="41" viewBox="0 0 40 41" fill="none" xmlns="http://www.w3.org/2000/svg">
<path d="M24.6597 16.0502C24.0555 15.4369 23.3347 14.9506 22.5397 14.6202C21.2755 14.0943 19.8783 13.9777 18.5445 14.2869C17.2106 14.5961 16.0072 15.3155 15.1034 16.344C14.1995 17.3725 13.6408 18.6585 13.5056 20.021C13.3704 21.3835 13.6656 22.7542 14.3497 23.9402L13.4297 27.3402L16.8897 26.4302C17.8874 26.9697 19.008 27.2412 20.142 27.2184C21.276 27.1955 22.3847 26.879 23.3599 26.2997C24.3351 25.7204 25.1434 24.8982 25.706 23.9133C26.2686 22.9284 26.5661 21.8145 26.5697 20.6802C26.5728 19.8206 26.4056 18.9689 26.0778 18.1742C25.7499 17.3795 25.268 16.6576 24.6597 16.0502ZM20.0297 26.1102C19.0515 26.1119 18.091 25.8493 17.2497 25.3502L17.0497 25.2402L14.9897 25.7802L15.5397 23.7702L15.4097 23.5602C14.8934 22.7369 14.6071 21.7902 14.5806 20.8187C14.554 19.8473 14.7882 18.8864 15.2588 18.0361C15.7294 17.1858 16.4192 16.4771 17.2564 15.9836C18.0937 15.4902 19.0478 15.23 20.0197 15.2302C20.7342 15.2264 21.4423 15.3661 22.1019 15.6409C22.7615 15.9158 23.3592 16.3202 23.8597 16.8302C24.3686 17.3326 24.773 17.9308 25.0497 18.5902C25.3207 19.2537 25.46 19.9636 25.4597 20.6802C25.461 21.3937 25.3215 22.1004 25.049 22.7598C24.7766 23.4191 24.3767 24.0183 23.8722 24.5228C23.3677 25.0272 22.7686 25.4272 22.1092 25.6996C21.4498 25.972 20.7431 26.1115 20.0297 26.1102ZM23.0097 22.0402L21.8997 21.5102C21.7397 21.4602 21.6397 21.4302 21.5297 21.5902C21.4197 21.7502 21.0997 22.1202 21.0097 22.2302C20.9197 22.3402 20.8197 22.3602 20.6497 22.2702C20.1702 22.0765 19.7273 21.8026 19.3397 21.4602C18.9817 21.1273 18.6751 20.7431 18.4297 20.3202C18.3397 20.1602 18.4097 20.0702 18.4997 19.9802C18.5846 19.8912 18.6647 19.7977 18.7397 19.7002C18.8091 19.6189 18.8663 19.5279 18.9097 19.4302C18.931 19.3845 18.9412 19.3344 18.9394 19.284C18.9377 19.2336 18.9241 19.1844 18.8997 19.1402C18.8597 19.0702 18.5297 18.2602 18.3897 17.9302C18.2497 17.6002 18.1197 17.6502 18.0197 17.6402H17.7097C17.6256 17.6419 17.5429 17.6614 17.467 17.6977C17.3911 17.7339 17.3238 17.7859 17.2697 17.8502C17.0862 18.0276 16.941 18.2407 16.843 18.4763C16.745 18.7119 16.6962 18.9651 16.6997 19.2202C16.6997 20.0202 17.2897 20.8002 17.3697 20.9102C17.4497 21.0202 18.5297 22.6702 20.1697 23.3802C20.4713 23.5153 20.7821 23.6289 21.0997 23.7202C21.4326 23.8249 21.7857 23.8489 22.1297 23.7902C22.4397 23.7402 23.0997 23.3902 23.2297 23.0102C23.3597 22.6302 23.3697 22.3002 23.3197 22.2302C23.2697 22.1602 23.1797 22.1202 23.0097 22.0402Z" fill="#0F0F0F"/>
<path d="M20 1.93047C22.5147 1.92661 25.0043 2.42997 27.32 3.41047C31.8212 5.32499 35.4055 8.90924 37.32 13.4105C38.2969 15.7273 38.8002 18.2161 38.8002 20.7305C38.8002 23.2448 38.2969 25.7337 37.32 28.0505C35.4055 32.5517 31.8212 36.1359 27.32 38.0505C25.0032 39.0274 22.5143 39.5306 20 39.5306C17.4857 39.5306 14.9968 39.0274 12.68 38.0505C8.17878 36.1359 4.59453 32.5517 2.68001 28.0505C1.70311 25.7337 1.19982 23.2448 1.19982 20.7305C1.19982 18.2161 1.70311 15.7273 2.68001 13.4105C4.59453 8.90924 8.17878 5.32499 12.68 3.41047C14.9957 2.42997 17.4853 1.92661 20 1.93047ZM20 0.730471C16.0444 0.730471 12.1776 1.90345 8.8886 4.10108C5.59962 6.29871 3.03617 9.42228 1.52242 13.0768C0.00866565 16.7313 -0.387401 20.7527 0.384303 24.6323C1.15601 28.5119 3.06082 32.0756 5.85787 34.8726C8.65492 37.6697 12.2186 39.5745 16.0982 40.3462C19.9778 41.1179 23.9991 40.7218 27.6537 39.2081C31.3082 37.6943 34.4318 35.1309 36.6294 31.8419C38.827 28.5529 40 24.6861 40 20.7305C40.0013 18.1037 39.4849 15.5023 38.4803 13.0752C37.4756 10.6481 36.0025 8.44284 34.1451 6.5854C32.2876 4.72797 30.0823 3.25483 27.6552 2.2502C25.2281 1.24557 22.6268 0.729157 20 0.730471Z" fill="#0F0F0F"/>
</svg>
