<svg width="40" height="40" viewBox="0 0 40 40" fill="none" xmlns="http://www.w3.org/2000/svg">
<rect width="40" height="40" rx="20" fill="#2A317F"/>
<g clip-path="url(#clip0_1014_6351)">
<path d="M18.8522 32.0001H21.1163L21.6015 30.1241C21.6308 29.9946 21.6943 29.8753 21.7853 29.7786C21.8763 29.6819 21.9915 29.6113 22.119 29.5742C22.6819 29.4094 23.2245 29.1815 23.7363 28.895C23.8531 28.8376 23.9824 28.8105 24.1124 28.8161C24.2424 28.8218 24.3689 28.86 24.4802 28.9273L26.1298 29.93L27.7471 28.3128L26.7444 26.6632C26.6821 26.5491 26.6494 26.4212 26.6494 26.2912C26.6494 26.1612 26.6821 26.0333 26.7444 25.9192C27.0367 25.3989 27.2648 24.845 27.4236 24.2696C27.4599 24.1506 27.5268 24.0431 27.6176 23.958C27.7084 23.8728 27.82 23.813 27.9411 23.7845L29.8495 23.2993V21.8761H24.8037C24.0576 23.3615 23.6699 25.001 23.6716 26.6632C23.6716 27.1521 23.4773 27.6211 23.1316 27.9668C22.7858 28.3126 22.3169 28.5068 21.8279 28.5068H18.1406C17.6572 28.4983 17.1966 28.3004 16.8578 27.9555C16.519 27.6107 16.3292 27.1466 16.3293 26.6632C16.3472 24.9991 15.9586 23.3558 15.1972 21.8761H10.1514V23.2993L12.0274 23.7521C12.1542 23.7871 12.2706 23.8526 12.3664 23.9427C12.4622 24.0329 12.5346 24.1451 12.5772 24.2696C12.7421 24.8326 12.9699 25.3751 13.2565 25.8869C13.3139 26.0037 13.341 26.133 13.3353 26.263C13.3297 26.393 13.2915 26.5195 13.2241 26.6308L12.2214 28.2804L13.8387 29.8977L15.4883 28.895C15.6024 28.8327 15.7303 28.8 15.8603 28.8C15.9902 28.8 16.1181 28.8327 16.2322 28.895C16.7526 29.1873 17.3065 29.4154 17.8818 29.5742C18.0017 29.6188 18.1088 29.6923 18.1934 29.7882C18.2781 29.8842 18.3377 29.9995 18.367 30.1241L18.8522 32.0001Z" fill="#F8AD39"/>
<path d="M17.6885 25.0459C17.7701 25.5809 17.8026 26.1222 17.7855 26.6631C17.7855 26.7575 17.823 26.848 17.8897 26.9147C17.9564 26.9815 18.0469 27.0189 18.1413 27.0189H21.8286C21.9262 27.0193 22.0203 26.9829 22.0923 26.9169C22.1642 26.851 22.2086 26.7604 22.2168 26.6631C22.2159 26.1226 22.2483 25.5825 22.3138 25.0459H17.6885Z" fill="#F8AD39"/>
<path d="M20.0169 11.5256C17.0411 11.5256 14.6152 13.8545 14.6152 16.7332C14.6198 17.8172 14.9712 18.8713 15.6179 19.7413C16.4588 20.8987 17.0734 22.2046 17.4293 23.5903H22.5721C22.9726 22.1952 23.5951 20.8737 24.4158 19.6766C25.042 18.8226 25.3817 17.7922 25.3861 16.7332C25.3861 13.8545 22.9602 11.5256 20.0169 11.5256ZM19.8551 19.7413C19.7306 19.8802 19.5584 19.9674 19.3727 19.9853C19.187 20.0033 19.0013 19.9508 18.8524 19.8383L16.6853 18.0593L17.6233 16.9273L19.2406 18.2534L22.3133 14.9219L23.4131 15.8922L19.8551 19.7413Z" fill="#F8AD39"/>
<path d="M20.6955 8H19.3047V9.6496H20.6955V8Z" fill="#F8AD39"/>
<path d="M12.8067 10.2249L11.8232 11.2084L13.0011 12.3863L13.9846 11.4028L12.8067 10.2249Z" fill="#F8AD39"/>
<path d="M11.801 17.5094H10.1514V18.8905H11.801V17.5094Z" fill="#F8AD39"/>
<path d="M29.8498 17.4771H28.2002V18.8582H29.8498V17.4771Z" fill="#F8AD39"/>
<path d="M27.1346 10.2152L25.9453 11.4045L26.9242 12.3834L28.1135 11.1941L27.1346 10.2152Z" fill="#F8AD39"/>
</g>
<defs>
<clipPath id="clip0_1014_6351">
<rect width="19.6981" height="24" fill="white" transform="translate(10.1514 8)"/>
</clipPath>
</defs>
</svg>
