<svg width="40" height="40" viewBox="0 0 40 40" fill="none" xmlns="http://www.w3.org/2000/svg">
<rect width="40" height="40" rx="20" fill="#2A317F"/>
<g clip-path="url(#clip0_1014_6354)">
<path fill-rule="evenodd" clip-rule="evenodd" d="M15.8493 29.1898C15.8906 29.1101 15.9582 29.0473 16.0407 29.0119C16.1231 28.9766 16.2153 28.9709 16.3015 28.996C16.3421 29.0104 16.3794 29.0327 16.4113 29.0618C16.4431 29.0908 16.4688 29.1259 16.4869 29.1651C16.505 29.2042 16.515 29.2466 16.5164 29.2896C16.5179 29.3327 16.5107 29.3756 16.4953 29.4159V29.4805C16.4809 29.5211 16.4585 29.5584 16.4295 29.5903C16.4004 29.6221 16.3653 29.6478 16.3262 29.6659C16.287 29.684 16.2447 29.694 16.2016 29.6954C16.1585 29.6969 16.1156 29.6897 16.0754 29.6743C15.991 29.6385 15.9237 29.5714 15.8875 29.4872C15.8514 29.4029 15.8493 29.3079 15.8816 29.2221L15.8493 29.1898ZM18.0135 23.537C18.0279 23.4964 18.0502 23.4591 18.0793 23.4272C18.1083 23.3954 18.1434 23.3697 18.1826 23.3516C18.2217 23.3335 18.264 23.3235 18.3071 23.322C18.3502 23.3206 18.3931 23.3278 18.4334 23.3432C18.474 23.3576 18.5113 23.38 18.5432 23.409C18.575 23.4381 18.6007 23.4732 18.6188 23.5123C18.6369 23.5514 18.6469 23.5938 18.6483 23.6369C18.6498 23.6799 18.6426 23.7229 18.6272 23.7631L17.1413 27.7039C17.1113 27.7853 17.0502 27.8514 16.9715 27.8878C16.8927 27.9241 16.8028 27.9277 16.7214 27.8977C16.64 27.8677 16.5739 27.8066 16.5375 27.7279C16.5012 27.6491 16.4976 27.5592 16.5276 27.4778L18.0135 23.537ZM17.3997 29.7389L17.4643 29.642L20.0808 22.7295C20.0887 22.6667 20.1193 22.609 20.167 22.5673C20.2146 22.5256 20.2759 22.5029 20.3392 22.5034C20.8914 22.4189 21.4135 22.1967 21.8573 21.8573C22.2911 21.5057 22.6242 21.0456 22.8228 20.5237C23.0213 20.0018 23.0783 19.4366 22.9879 18.8856C22.9213 18.5308 22.7899 18.1914 22.6003 17.8843L21.9219 19.7577C21.8972 19.8115 21.8614 19.8594 21.8169 19.8984C21.7724 19.9374 21.7201 19.9665 21.6635 19.9838L19.79 20.2746C19.7328 20.294 19.6709 20.2951 19.613 20.2777C19.5552 20.2604 19.5041 20.2254 19.467 20.1777L18.2396 18.6918C18.2027 18.6473 18.1799 18.5927 18.1741 18.5352C18.1684 18.4777 18.1799 18.4197 18.2073 18.3688L18.9179 16.4953C18.5796 16.6154 18.2632 16.79 17.9812 17.0121C17.55 17.3587 17.2183 17.8132 17.0197 18.3295C16.8212 18.8458 16.7628 19.4054 16.8506 19.9515C16.9537 20.5004 17.1987 21.0127 17.5612 21.4374C17.6028 21.4855 17.6307 21.5438 17.642 21.6063C17.6534 21.6687 17.6478 21.7331 17.6258 21.7927L15.0094 28.7052C14.9478 28.8663 14.919 29.038 14.9248 29.2103C14.9306 29.3826 14.9708 29.552 15.043 29.7085C15.1152 29.865 15.2181 30.0055 15.3455 30.1217C15.4728 30.2378 15.6222 30.3274 15.7847 30.3849C16.086 30.4976 16.4185 30.4939 16.7172 30.3744C17.0159 30.2549 17.2593 30.0283 17.3997 29.7389ZM15.4939 25.5397C14.175 24.4791 13.2738 22.9861 12.9496 21.3249C12.6255 19.6637 12.8993 17.9415 13.7228 16.4628C14.5462 14.9841 15.8661 13.8443 17.449 13.2451C19.0319 12.6459 20.7757 12.6258 22.3719 13.1885C23.9681 13.7512 25.3139 14.8604 26.171 16.3198C27.0282 17.7791 27.3416 19.4947 27.0557 21.1629C26.7698 22.831 25.9031 24.3443 24.6088 25.435C23.3146 26.5257 21.6763 27.1234 19.9838 27.1225H19.144L18.175 29.6743H18.3365C18.4138 29.6884 18.4844 29.7277 18.537 29.7862C18.5896 29.8446 18.6213 29.9189 18.6272 29.9973V31.1925L19.4347 32H20.5653L21.3728 31.1925V29.9973C21.3787 29.9189 21.4104 29.8446 21.463 29.7862C21.5156 29.7277 21.5862 29.6884 21.6635 29.6743C23.0916 29.4194 24.4472 28.8573 25.6366 28.0269C25.7003 27.9744 25.7802 27.9457 25.8627 27.9457C25.9452 27.9457 26.0252 27.9744 26.0888 28.0269L26.9287 28.8668H28.0915L28.8991 28.0915V26.9287L28.0269 26.0888C27.9722 26.0343 27.9388 25.9619 27.9329 25.8849C27.927 25.8078 27.9489 25.7312 27.9946 25.6689C28.8408 24.4727 29.4142 23.1055 29.6743 21.6635C29.6823 21.5836 29.7199 21.5095 29.7796 21.4557C29.8393 21.402 29.917 21.3724 29.9973 21.3728H31.1925L32 20.5653V19.4347L31.1925 18.6272H30.0296C29.9872 18.6316 29.9442 18.6276 29.9033 18.6154C29.8624 18.6032 29.8244 18.583 29.7913 18.5559C29.7583 18.5289 29.7309 18.4956 29.7108 18.4579C29.6907 18.4203 29.6783 18.379 29.6743 18.3365C29.4194 16.9084 28.8573 15.5528 28.0269 14.3634C27.9744 14.2997 27.9457 14.2198 27.9457 14.1373C27.9457 14.0548 27.9744 13.9748 28.0269 13.9112L28.8991 13.0713V11.9085L28.0915 11.1332H26.9287L26.0888 11.9731C26.0343 12.0278 25.9619 12.0612 25.8849 12.0671C25.8078 12.073 25.7312 12.0511 25.6689 12.0054C24.4727 11.1592 23.1055 10.5858 21.6635 10.3257C21.5836 10.3177 21.5095 10.2801 21.4557 10.2204C21.402 10.1607 21.3724 10.083 21.3728 10.0027V8.80754L20.5653 8H19.4347L18.6272 8.80754V9.97039C18.6316 10.0128 18.6276 10.0558 18.6154 10.0967C18.6032 10.1376 18.583 10.1756 18.5559 10.2087C18.5289 10.2417 18.4956 10.2691 18.4579 10.2892C18.4203 10.3093 18.379 10.3217 18.3365 10.3257C16.9084 10.5806 15.5528 11.1427 14.3634 11.9731C14.2997 12.0256 14.2198 12.0543 14.1373 12.0543C14.0548 12.0543 13.9748 12.0256 13.9112 11.9731L13.0713 11.1009H11.9085L11.1332 11.9085V13.0713L11.9731 13.9112C12.0278 13.9657 12.0612 14.0381 12.0671 14.1151C12.073 14.1922 12.0511 14.2688 12.0054 14.3311C11.1516 15.523 10.5775 16.8921 10.3257 18.3365C10.3116 18.4138 10.2723 18.4844 10.2138 18.537C10.1554 18.5896 10.0811 18.6213 10.0027 18.6272H8.80754L8 19.4347V20.5653L8.80754 21.3728H10.0027C10.0811 21.3787 10.1554 21.4104 10.2138 21.463C10.2723 21.5156 10.3116 21.5862 10.3257 21.6635C10.5806 23.0916 11.1427 24.4472 11.9731 25.6366C12.0256 25.7003 12.0543 25.7802 12.0543 25.8627C12.0543 25.9452 12.0256 26.0252 11.9731 26.0888L11.1009 26.9287V28.0915L11.9085 28.8668H13.0713L13.9112 28.0269C13.9657 27.9722 14.0381 27.9388 14.1151 27.9329C14.1922 27.927 14.2688 27.9489 14.3311 27.9946L14.4926 28.1238L15.4939 25.5397Z" fill="#F8AD39"/>
</g>
<defs>
<clipPath id="clip0_1014_6354">
<rect width="24" height="24" fill="white" transform="translate(8 8)"/>
</clipPath>
</defs>
</svg>
