<svg width="40" height="40" viewBox="0 0 40 40" fill="none" xmlns="http://www.w3.org/2000/svg">
<rect width="40" height="40" rx="20" fill="#2A317F"/>
<g clip-path="url(#clip0_1014_6357)">
<path d="M30.578 20.4038C30.5136 20.1385 30.5136 19.8616 30.578 19.5963L31.4179 17.0768C31.4952 16.8189 31.4901 16.5433 31.4033 16.2885C31.3164 16.0337 31.1521 15.8124 30.9333 15.6555L28.8014 14.105C28.5795 13.9424 28.4109 13.7176 28.3169 13.459L27.5094 10.9395C27.4272 10.678 27.2639 10.4495 27.0433 10.2869C26.8226 10.1243 26.556 10.0361 26.2819 10.0351H23.6332C23.3679 10.0398 23.1079 9.96066 22.8903 9.80894L20.7584 8.25847C20.542 8.08819 20.2746 7.99561 19.9993 7.99561C19.7239 7.99561 19.4566 8.08819 19.2402 8.25847L17.1083 9.80894C16.8807 9.9652 16.609 10.0444 16.3331 10.0351H13.7167C13.4383 10.0343 13.1667 10.1212 12.9406 10.2836C12.7144 10.446 12.5452 10.6755 12.4569 10.9395L11.6494 13.459C11.5677 13.7153 11.41 13.9406 11.1971 14.105L9.06525 15.6555C8.83855 15.8054 8.66799 16.0262 8.5803 16.2834C8.49262 16.5406 8.49277 16.8197 8.58072 17.0768L9.38826 19.5963C9.48473 19.8568 9.48473 20.1433 9.38826 20.4038L8.58072 22.9233C8.49277 23.1805 8.49262 23.4595 8.5803 23.7167C8.66799 23.9739 8.83855 24.1948 9.06525 24.3446L11.1971 25.8951C11.401 26.0678 11.5568 26.2904 11.6494 26.5411L12.4569 29.0606C12.5452 29.3247 12.7144 29.5542 12.9406 29.7165C13.1667 29.8789 13.4383 29.9658 13.7167 29.9651H16.3331C16.609 29.9557 16.8807 30.0349 17.1083 30.1912L19.2402 31.7416C19.4566 31.9119 19.7239 32.0045 19.9993 32.0045C20.2746 32.0045 20.542 31.9119 20.7584 31.7416L22.8903 30.1912C23.1079 30.0394 23.3679 29.9603 23.6332 29.9651H26.2819C26.556 29.964 26.8226 29.8758 27.0433 29.7132C27.2639 29.5506 27.4272 29.3221 27.5094 29.0606L28.3169 26.5411C28.4109 26.2825 28.5795 26.0577 28.8014 25.8951L30.9333 24.3446C31.1521 24.1877 31.3164 23.9664 31.4033 23.7116C31.4901 23.4568 31.4952 23.1812 31.4179 22.9233L30.578 20.4038ZM28.8337 23.4725L27.0572 24.7645C26.8947 24.8886 26.7714 25.0568 26.7019 25.249L26.0235 27.3486C25.9615 27.5388 25.8402 27.704 25.6775 27.8203C25.5147 27.9365 25.3191 27.9976 25.1191 27.9947H22.9226C22.7121 27.9896 22.5065 28.0582 22.3412 28.1885L20.5646 29.4805C20.4018 29.6037 20.2034 29.6703 19.9993 29.6703C19.7952 29.6703 19.5967 29.6037 19.434 29.4805L17.6574 28.1885C17.4897 28.0627 17.2857 27.9947 17.076 27.9947H14.8795C14.6752 27.9995 14.4746 27.9397 14.3063 27.8236C14.1381 27.7076 14.0108 27.5414 13.9428 27.3486L13.2644 25.249C13.2208 25.053 13.1056 24.8802 12.9414 24.7645L11.1648 23.4725C10.9957 23.3517 10.8698 23.1798 10.8058 22.982C10.7418 22.7843 10.7431 22.5712 10.8095 22.3742L11.4879 20.3069C11.5521 20.1074 11.5521 19.8927 11.4879 19.6932L10.8095 17.6259C10.7431 17.4289 10.7418 17.2159 10.8058 17.0181C10.8698 16.8203 10.9957 16.6484 11.1648 16.5276L12.9414 15.2356C13.1056 15.1199 13.2208 14.9471 13.2644 14.7511L13.9428 12.6515C14.0108 12.4588 14.1381 12.2925 14.3063 12.1765C14.4746 12.0605 14.6752 12.0006 14.8795 12.0054H17.076C17.2857 12.0054 17.4897 11.9374 17.6574 11.8116L19.434 10.5196C19.5967 10.3964 19.7952 10.3298 19.9993 10.3298C20.2034 10.3298 20.4018 10.3964 20.5646 10.5196L22.3412 11.8116C22.5065 11.9419 22.7121 12.0105 22.9226 12.0054H25.1191C25.3191 12.0025 25.5147 12.0636 25.6775 12.1798C25.8402 12.2961 25.9615 12.4613 26.0235 12.6515L26.7019 14.7511C26.7714 14.9433 26.8947 15.1115 27.0572 15.2356L28.8337 16.5276C28.9991 16.6517 29.122 16.8238 29.1856 17.0204C29.2492 17.2171 29.2504 17.4285 29.1891 17.6259L28.5107 19.6932C28.4465 19.8927 28.4465 20.1074 28.5107 20.3069L29.1891 22.3742C29.2504 22.5716 29.2492 22.7831 29.1856 22.9797C29.122 23.1763 28.9991 23.3484 28.8337 23.4725Z" fill="#F8AD39"/>
<path d="M28.2845 17.3029L25.9911 15.6555L25.119 12.9422H22.2765L19.983 11.2948L17.6896 12.9422H14.8794L14.0073 15.6555L11.7139 17.3029L12.586 20.0162L11.7139 22.6972L14.0073 24.3446L14.8794 27.0579H17.6896L19.983 28.7053L22.2765 27.0579H25.119L25.9911 24.3446L28.2845 22.6972L27.4124 19.9839L28.2845 17.3029ZM24.9252 18.4011L19.9507 23.3756C19.7169 23.6023 19.4043 23.7296 19.0786 23.7309C18.9118 23.7345 18.746 23.7049 18.5907 23.6439C18.4355 23.5829 18.2939 23.4917 18.1742 23.3756L15.0409 20.2423C14.8062 20.0063 14.6744 19.6869 14.6744 19.354C14.6744 19.0211 14.8062 18.7018 15.0409 18.4657C15.2844 18.2456 15.601 18.1236 15.9292 18.1236C16.2575 18.1236 16.574 18.2456 16.8175 18.4657L19.0786 20.7268L23.1809 16.6245C23.4191 16.4066 23.7302 16.2858 24.053 16.2858C24.3759 16.2858 24.687 16.4066 24.9252 16.6245C25.1519 16.8584 25.2793 17.171 25.2805 17.4967C25.2809 17.8323 25.1539 18.1556 24.9252 18.4011Z" fill="#F8AD39"/>
</g>
<defs>
<clipPath id="clip0_1014_6357">
<rect width="22.9664" height="24" fill="white" transform="translate(8.5166 8)"/>
</clipPath>
</defs>
</svg>
