<svg width="40" height="40" viewBox="0 0 40 40" fill="none" xmlns="http://www.w3.org/2000/svg">
<rect width="40" height="40" rx="20" fill="#2A317F"/>
<g clip-path="url(#clip0_1014_6348)">
<path fill-rule="evenodd" clip-rule="evenodd" d="M21.6976 19.6119C20.5354 18.275 18.9678 17.3549 17.234 16.9919L16.8458 18.3827L17.7192 23.8491C17.7361 23.9016 17.7359 23.9582 17.7184 24.0105C17.701 24.0629 17.6672 24.1083 17.6221 24.1402L15.8431 25.8221C15.816 25.8505 15.7833 25.8731 15.7472 25.8885C15.7111 25.9039 15.6722 25.9119 15.6329 25.9119C15.5936 25.9119 15.5547 25.9039 15.5186 25.8885C15.4825 25.8731 15.4498 25.8505 15.4227 25.8221L13.6113 24.1402C13.5787 24.1057 13.5533 24.065 13.5367 24.0206C13.52 23.9761 13.5124 23.9288 13.5143 23.8814L14.3876 18.3827L13.9995 16.9919C12.2572 17.3502 10.6843 18.2798 9.53004 19.6332C8.37581 20.9867 7.70627 22.6866 7.62751 24.4636C7.61401 24.761 7.69002 25.0556 7.8457 25.3093C8.00139 25.563 8.22959 25.7641 8.50082 25.8868C10.5678 26.8506 12.8089 27.3848 15.0884 27.4571C17.3679 27.5294 19.6384 27.1382 21.7623 26.3073C21.6802 26.1363 21.6466 25.9461 21.6652 25.7574L21.7946 25.0458L21.1477 24.6577C20.9309 24.5234 20.7733 24.3114 20.7072 24.0651C20.6411 23.8187 20.6714 23.5564 20.7919 23.3315V23.2668L21.2124 22.6523L20.7919 22.0377C20.7187 21.9319 20.6673 21.8125 20.6407 21.6866C20.6141 21.5607 20.6128 21.4307 20.6369 21.3043C20.6609 21.1779 20.7099 21.0575 20.781 20.9502C20.852 20.8429 20.9437 20.7508 21.0507 20.6792H21.1154L21.7623 20.3235L21.6976 19.6119ZM26.517 23.6873C25.7332 22.627 24.7957 21.6894 23.7353 20.9057C23.7096 20.8677 23.6981 20.8219 23.703 20.7763C23.718 20.7562 23.7376 20.7399 23.76 20.7287C23.7825 20.7174 23.8073 20.7116 23.8324 20.7116C24.8128 20.8407 25.7402 21.2318 26.517 21.8437C26.5497 21.866 26.5872 21.8806 26.6264 21.8862C26.6657 21.8918 26.7057 21.8883 26.7434 21.876C26.7787 21.8689 26.8118 21.8534 26.8399 21.8309C26.8681 21.8084 26.8904 21.7795 26.9051 21.7466C27.9289 20.0877 29.5304 18.8664 31.4011 18.3181C31.4658 18.2857 31.4981 18.3181 31.5305 18.3504C31.5628 18.3827 31.5628 18.4474 31.4981 18.4798C29.3957 20.1617 28.5224 21.5526 27.3903 23.655C27.3168 23.7698 27.2034 23.8532 27.0719 23.889C26.9404 23.9249 26.8003 23.9106 26.6787 23.8491L26.517 23.6873ZM27.0022 17.186L27.6167 17.8652C27.6683 17.9124 27.7308 17.9459 27.7985 17.9629C27.8663 17.9798 27.9372 17.9796 28.0049 17.9623L28.8782 17.6388C28.9641 17.6065 29.0592 17.6086 29.1436 17.6448C29.228 17.681 29.2952 17.7484 29.331 17.8329L29.5574 18.5121C29.0166 18.8008 28.5163 19.1597 28.0696 19.5795C27.4538 19.3181 26.7742 19.2461 26.1174 19.3729C25.4605 19.4996 24.8564 19.8193 24.3822 20.2911L23.8971 20.2264C23.735 20.207 23.5717 20.2496 23.4397 20.3456C23.3078 20.4415 23.2169 20.5838 23.1855 20.7439C23.179 20.8468 23.1961 20.9497 23.2353 21.045C23.2745 21.1402 23.3349 21.2253 23.4119 21.2938L23.6059 21.4555C23.3783 22.2608 23.4589 23.1221 23.8322 23.8711C24.2054 24.6201 24.8444 25.2031 25.6245 25.5062C26.4045 25.8094 27.2695 25.8108 28.0506 25.5104C28.8317 25.2099 29.4727 24.6291 29.8485 23.8814C30.0267 23.4217 30.1017 22.9285 30.0682 22.4366C30.0347 21.9448 29.8934 21.4663 29.6545 21.035C30.1077 20.4682 30.6052 19.9382 31.1423 19.4501L31.013 20.3558C31.0102 20.4316 31.0266 20.5068 31.0605 20.5746C31.0944 20.6424 31.1448 20.7007 31.207 20.7439L31.9833 21.1968C32.029 21.2152 32.0685 21.2463 32.0972 21.2864C32.1258 21.3265 32.1424 21.374 32.145 21.4232C32.1629 21.4708 32.1693 21.522 32.1637 21.5726C32.1581 21.6232 32.1406 21.6717 32.1127 21.7143L31.5952 22.4582C31.5474 22.5116 31.521 22.5807 31.521 22.6523C31.521 22.7239 31.5474 22.793 31.5952 22.8464L32.1127 23.6226C32.1626 23.7003 32.1804 23.7943 32.1623 23.8849C32.1442 23.9754 32.0916 24.0553 32.0156 24.1078H31.9833L31.207 24.5606C31.1473 24.5988 31.0982 24.6514 31.0643 24.7136C31.0304 24.7758 31.0127 24.8456 31.013 24.9164L31.1747 25.8221C31.1766 25.8695 31.169 25.9168 31.1523 25.9613C31.1356 26.0057 31.1103 26.0464 31.0776 26.0809C31.0495 26.1231 31.0109 26.1573 30.9655 26.18C30.9201 26.2027 30.8696 26.2131 30.8189 26.2102L29.9132 26.3073C29.8376 26.3058 29.7637 26.3308 29.7046 26.3781C29.6455 26.4254 29.6049 26.4919 29.5898 26.566L29.331 27.4394C29.2962 27.536 29.2271 27.6165 29.1369 27.6658C29.0537 27.6982 28.9614 27.6982 28.8782 27.6658L28.0049 27.3423C27.9387 27.3126 27.8644 27.306 27.794 27.3236C27.7236 27.3412 27.6612 27.382 27.6167 27.4394L27.0022 28.0863C26.972 28.1264 26.933 28.159 26.8881 28.1815C26.8432 28.2039 26.7936 28.2156 26.7434 28.2156C26.6932 28.2156 26.6437 28.2039 26.5988 28.1815C26.5538 28.159 26.5148 28.1264 26.4847 28.0863L25.8378 27.4394C25.7933 27.382 25.7309 27.3412 25.6605 27.3236C25.5901 27.306 25.5158 27.3126 25.4496 27.3423L24.6086 27.6658C24.5143 27.6978 24.4119 27.6978 24.3175 27.6658C24.2707 27.6443 24.2291 27.613 24.1956 27.5739C24.1621 27.5348 24.1375 27.4889 24.1235 27.4394L23.8647 26.566C23.8315 26.503 23.7857 26.4474 23.73 26.4029C23.6743 26.3584 23.6101 26.3258 23.5413 26.3073L22.6356 26.2426C22.5888 26.2385 22.5433 26.2252 22.5016 26.2035C22.46 26.1818 22.4231 26.152 22.393 26.1159C22.3629 26.0798 22.3403 26.0381 22.3264 25.9933C22.3126 25.9484 22.3077 25.9012 22.3121 25.8544L22.4415 24.9488C22.4418 24.8779 22.4241 24.8082 22.3902 24.746C22.3563 24.6838 22.3072 24.6311 22.2475 24.593L21.4712 24.1402C21.3898 24.0928 21.3305 24.0152 21.3063 23.9243C21.282 23.8334 21.2948 23.7365 21.3418 23.655L21.8917 22.8787C21.9228 22.8188 21.9391 22.7522 21.9391 22.6846C21.9391 22.6171 21.9228 22.5505 21.8917 22.4906L21.3418 21.7466C21.29 21.664 21.2712 21.5648 21.2891 21.4689C21.3071 21.373 21.3606 21.2874 21.4388 21.2291H21.4712L22.2475 20.7763C22.3072 20.7381 22.3563 20.6855 22.3902 20.6233C22.4241 20.5611 22.4418 20.4913 22.4415 20.4205L22.3121 19.5472C22.2988 19.497 22.2977 19.4444 22.3089 19.3937C22.3202 19.3431 22.3435 19.2958 22.3768 19.2561C22.3997 19.2164 22.4328 19.1835 22.4726 19.1608C22.5123 19.138 22.5574 19.1263 22.6033 19.1267L23.5413 19.0296C23.6132 19.0301 23.6827 19.0039 23.7365 18.9561C23.7902 18.9083 23.8244 18.8424 23.8324 18.7709L24.1235 17.8976C24.1381 17.8528 24.1614 17.8114 24.1922 17.7757C24.2229 17.74 24.2605 17.7108 24.3026 17.6898C24.3447 17.6687 24.3906 17.6562 24.4376 17.653C24.4846 17.6498 24.5317 17.656 24.5763 17.6712C24.5763 17.7035 24.5763 17.7035 24.6086 17.7035L25.4496 18.027C25.5158 18.0567 25.5901 18.0632 25.6605 18.0456C25.7309 18.028 25.7933 17.9873 25.8378 17.9299L26.4847 17.283C26.5148 17.2428 26.5538 17.2102 26.5988 17.1878C26.6437 17.1653 26.6932 17.1536 26.7434 17.1536C26.7936 17.1536 26.8432 17.1653 26.8881 17.1878C26.933 17.2102 26.972 17.2428 27.0022 17.283V17.186ZM23.3472 27.0836L23.5413 27.6658C23.5742 27.7974 23.6384 27.919 23.7285 28.0204C23.8187 28.1218 23.932 28.1999 24.0588 28.248C24.1783 28.3085 24.3095 28.3427 24.4434 28.3483C24.5773 28.3539 24.7109 28.3307 24.8351 28.2803L25.5466 28.0216L26.0318 28.5391L26.0965 28.6038L24.8674 31.9353L24.7704 32L24.6733 31.9353L23.703 29.8005C23.6884 29.7632 23.6605 29.7326 23.6246 29.7146C23.5888 29.6967 23.5475 29.6927 23.5089 29.7035L21.2124 29.9299C21.1873 29.9299 21.1625 29.9241 21.1401 29.9128C21.1176 29.9016 21.0981 29.8853 21.083 29.8652V29.7682L23.3472 27.0836ZM27.3903 28.6038L28.6194 31.9353C28.6194 31.9438 28.6211 31.9522 28.6243 31.9601C28.6276 31.9679 28.6324 31.975 28.6384 31.9811C28.6444 31.9871 28.6515 31.9918 28.6594 31.9951C28.6672 31.9983 28.6756 32 28.6841 32C28.7488 32 28.7811 31.9677 28.7811 31.9353L29.7515 29.8329C29.7655 29.7932 29.7919 29.7591 29.8269 29.7358C29.8619 29.7125 29.9036 29.7011 29.9456 29.7035L32.2744 29.9299H32.3714C32.4038 29.8652 32.4038 29.8329 32.3714 29.8005L30.1073 27.1159L29.9456 27.6658C29.9087 27.7898 29.8474 27.9053 29.7653 28.0053C29.6832 28.1053 29.5818 28.1879 29.4673 28.2482C29.3528 28.3085 29.2274 28.3452 29.0984 28.3563C28.9694 28.3674 28.8396 28.3525 28.7165 28.3127H28.6518L27.9402 28.0539L27.455 28.5714C27.4227 28.6038 27.4227 28.6361 27.3903 28.6361V28.6038ZM15.6167 8C16.3844 8 17.1348 8.22764 17.7731 8.65413C18.4114 9.08063 18.9089 9.68682 19.2027 10.3961C19.4964 11.1053 19.5733 11.8857 19.4235 12.6386C19.2738 13.3915 18.9041 14.0831 18.3613 14.626C17.8185 15.1688 17.1269 15.5385 16.374 15.6882C15.621 15.838 14.8406 15.7611 14.1314 15.4673C13.4221 15.1736 12.816 14.6761 12.3895 14.0378C11.963 13.3995 11.7353 12.6491 11.7353 11.8814C11.7353 10.852 12.1443 9.86474 12.8722 9.13684C13.6001 8.40893 14.5873 8 15.6167 8ZM16.6194 16.8625L16.296 18.027H14.9375L14.614 16.8625C15.2809 16.7978 15.9525 16.7978 16.6194 16.8625ZM14.9698 18.6739H16.296L17.1046 23.8167L15.6167 25.1752L14.1612 23.8167L14.9698 18.6739Z" fill="#F8AD39"/>
</g>
<defs>
<clipPath id="clip0_1014_6348">
<rect width="24.7439" height="24" fill="white" transform="translate(7.62793 8)"/>
</clipPath>
</defs>
</svg>
