<svg width="40" height="40" viewBox="0 0 40 40" fill="none" xmlns="http://www.w3.org/2000/svg">
<rect width="40" height="40" rx="20" fill="#2A317F"/>
<path d="M12.9788 17.6851C10.9929 16.8907 10 16.4935 10 16C10 15.5065 10.9929 15.1093 12.9788 14.3149L15.7873 13.1915C17.7732 12.3972 18.7661 12 20 12C21.2339 12 22.2268 12.3972 24.2127 13.1915L27.0212 14.3149C29.0071 15.1093 30 15.5065 30 16C30 16.4935 29.0071 16.8907 27.0212 17.6851L24.2127 18.8085C22.2268 19.6028 21.2339 20 20 20C18.7661 20 17.7732 19.6028 15.7873 18.8085L12.9788 17.6851Z" fill="#1C274C"/>
<path fill-rule="evenodd" clip-rule="evenodd" d="M10 16C10 16.4935 10.9929 16.8907 12.9788 17.6851L15.7873 18.8085C17.7732 19.6028 18.7661 20 20 20C21.2339 20 22.2268 19.6028 24.2127 18.8085L27.0212 17.6851C29.0071 16.8907 30 16.4935 30 16C30 15.5065 29.0071 15.1093 27.0212 14.3149L24.2127 13.1915C22.2268 12.3972 21.2339 12 20 12C18.7661 12 17.7732 12.3972 15.7873 13.1915L12.9788 14.3149C10.9929 15.1093 10 15.5065 10 16Z" fill="#F8AD39"/>
<path d="M27.0212 21.6851L24.2127 22.8085C22.2268 23.6028 21.2339 24 20 24C18.7661 24 17.7732 23.6028 15.7873 22.8085L12.9788 21.6851C10.9929 20.8907 10 20.4935 10 20C10 19.5551 10.8068 19.1885 12.4204 18.5388L15.5614 19.7952C17.4101 20.535 18.572 21 20 21C21.428 21 22.5899 20.535 24.4386 19.7952L27.5796 18.5388C29.1932 19.1885 30 19.5551 30 20C30 20.4935 29.0071 20.8907 27.0212 21.6851Z" fill="#F8AD39"/>
<path d="M27.0212 25.6849L24.2127 26.8083C22.2268 27.6026 21.2339 27.9998 20 27.9998C18.7661 27.9998 17.7732 27.6026 15.7873 26.8083L12.9788 25.6849C10.9929 24.8905 10 24.4934 10 23.9998C10 23.5549 10.8068 23.1883 12.4204 22.5386L15.5614 23.795C17.4101 24.5348 18.572 24.9998 20 24.9998C21.428 24.9998 22.5899 24.5348 24.4386 23.795L27.5796 22.5386C29.1932 23.1883 30 23.5549 30 23.9998C30 24.4934 29.0071 24.8905 27.0212 25.6849Z" fill="#F8AD39"/>
</svg>
