<svg width="56" height="56" viewBox="0 0 56 56" fill="none" xmlns="http://www.w3.org/2000/svg">
<g filter="url(#filter0_b_149_2931)">
<rect width="56" height="56" rx="28" fill="#F8AD39"/>
<rect x="0.5" y="0.5" width="55" height="55" rx="27.5" stroke="#D7D7D7"/>
<path fill-rule="evenodd" clip-rule="evenodd" d="M29.4697 21.4697C29.7626 21.1768 30.2374 21.1768 30.5303 21.4697L36.5303 27.4697C36.8232 27.7626 36.8232 28.2374 36.5303 28.5303L30.5303 34.5303C30.2374 34.8232 29.7626 34.8232 29.4697 34.5303C29.1768 34.2374 29.1768 33.7626 29.4697 33.4697L34.1893 28.75H20C19.5858 28.75 19.25 28.4142 19.25 28C19.25 27.5858 19.5858 27.25 20 27.25H34.1893L29.4697 22.5303C29.1768 22.2374 29.1768 21.7626 29.4697 21.4697Z" fill="#0F0F0F"/>
</g>
<defs>
<filter id="filter0_b_149_2931" x="-8" y="-8" width="72" height="72" filterUnits="userSpaceOnUse" color-interpolation-filters="sRGB">
<feFlood flood-opacity="0" result="BackgroundImageFix"/>
<feGaussianBlur in="BackgroundImageFix" stdDeviation="4"/>
<feComposite in2="SourceAlpha" operator="in" result="effect1_backgroundBlur_149_2931"/>
<feBlend mode="normal" in="SourceGraphic" in2="effect1_backgroundBlur_149_2931" result="shape"/>
</filter>
</defs>
</svg>
