<svg width="40" height="40" viewBox="0 0 40 40" fill="none" xmlns="http://www.w3.org/2000/svg">
<rect width="40" height="40" rx="20" fill="#2A317F"/>
<g clip-path="url(#clip0_149_2813)">
<path d="M19.4857 17.3705C19.6507 16.8755 20.3497 16.8755 20.5147 17.3705L21.4822 20.276C21.6952 20.9147 22.054 21.495 22.5302 21.971C23.0064 22.4469 23.5869 22.8054 24.2257 23.018L27.1297 23.9855C27.6247 24.1505 27.6247 24.8495 27.1297 25.0145L24.2242 25.982C23.5855 26.195 23.0052 26.5538 22.5292 27.03C22.0533 27.5062 21.6948 28.0867 21.4822 28.7255L20.5147 31.6295C20.4791 31.7379 20.4102 31.8323 20.3178 31.8992C20.2255 31.9661 20.1143 32.0022 20.0002 32.0022C19.8861 32.0022 19.775 31.9661 19.6826 31.8992C19.5902 31.8323 19.5213 31.7379 19.4857 31.6295L18.5182 28.724C18.3054 28.0855 17.9468 27.5053 17.4709 27.0293C16.995 26.5534 16.4147 26.1948 15.7762 25.982L12.8707 25.0145C12.7623 24.9789 12.6679 24.91 12.601 24.8176C12.5341 24.7253 12.4981 24.6141 12.4981 24.5C12.4981 24.3859 12.5341 24.2748 12.601 24.1824C12.6679 24.09 12.7623 24.0211 12.8707 23.9855L15.7762 23.018C16.4147 22.8052 16.995 22.4466 17.4709 21.9707C17.9468 21.4948 18.3054 20.9146 18.5182 20.276L19.4857 17.3705ZM13.6912 9.72201C13.7127 9.65705 13.7541 9.60053 13.8096 9.56046C13.8651 9.5204 13.9318 9.49883 14.0002 9.49883C14.0686 9.49883 14.1353 9.5204 14.1908 9.56046C14.2463 9.60053 14.2877 9.65705 14.3092 9.72201L14.8897 11.465C15.1492 12.242 15.7582 12.851 16.5352 13.1105L18.2782 13.691C18.3432 13.7125 18.3997 13.754 18.4398 13.8094C18.4798 13.8649 18.5014 13.9316 18.5014 14C18.5014 14.0684 18.4798 14.1351 18.4398 14.1906C18.3997 14.2461 18.3432 14.2875 18.2782 14.309L16.5352 14.8895C16.152 15.0172 15.8038 15.2324 15.5182 15.518C15.2326 15.8036 15.0174 16.1518 14.8897 16.535L14.3092 18.278C14.2877 18.343 14.2463 18.3995 14.1908 18.4396C14.1353 18.4796 14.0686 18.5012 14.0002 18.5012C13.9318 18.5012 13.8651 18.4796 13.8096 18.4396C13.7541 18.3995 13.7127 18.343 13.6912 18.278L13.1107 16.535C12.983 16.1518 12.7679 15.8036 12.4822 15.518C12.1966 15.2324 11.8484 15.0172 11.4652 14.8895L9.7222 14.309C9.65725 14.2875 9.60072 14.2461 9.56065 14.1906C9.52059 14.1351 9.49902 14.0684 9.49902 14C9.49902 13.9316 9.52059 13.8649 9.56065 13.8094C9.60072 13.754 9.65725 13.7125 9.7222 13.691L11.4652 13.1105C11.8484 12.9828 12.1966 12.7677 12.4822 12.4821C12.7679 12.1964 12.983 11.8482 13.1107 11.465L13.6912 9.72201ZM24.2947 8.14851C24.3095 8.1058 24.3373 8.06877 24.3741 8.04255C24.4109 8.01634 24.455 8.00226 24.5002 8.00226C24.5454 8.00226 24.5895 8.01634 24.6263 8.04255C24.6631 8.06877 24.6909 8.1058 24.7057 8.14851L25.0927 9.30951C25.2652 9.82851 25.6717 10.235 26.1907 10.4075L27.3517 10.7945C27.3944 10.8093 27.4315 10.8371 27.4577 10.8739C27.4839 10.9107 27.498 10.9548 27.498 11C27.498 11.0452 27.4839 11.0893 27.4577 11.1261C27.4315 11.163 27.3944 11.1907 27.3517 11.2055L26.1907 11.5925C25.9349 11.6776 25.7025 11.8211 25.5119 12.0117C25.3213 12.2023 25.1778 12.4347 25.0927 12.6905L24.7057 13.8515C24.6909 13.8942 24.6631 13.9313 24.6263 13.9575C24.5895 13.9837 24.5454 13.9978 24.5002 13.9978C24.455 13.9978 24.4109 13.9837 24.3741 13.9575C24.3373 13.9313 24.3095 13.8942 24.2947 13.8515L23.9077 12.6905C23.8226 12.4347 23.6791 12.2023 23.4885 12.0117C23.2979 11.8211 23.0655 11.6776 22.8097 11.5925L21.6502 11.2055C21.6075 11.1907 21.5705 11.163 21.5442 11.1261C21.518 11.0893 21.504 11.0452 21.504 11C21.504 10.9548 21.518 10.9107 21.5442 10.8739C21.5705 10.8371 21.6075 10.8093 21.6502 10.7945L22.8112 10.4075C23.3302 10.235 23.7367 9.82851 23.9092 9.30951L24.2947 8.15001V8.14851Z" fill="#F8AD39"/>
</g>
<defs>
<clipPath id="clip0_149_2813">
<rect width="24" height="24" fill="white" transform="translate(8 8)"/>
</clipPath>
</defs>
</svg>
