<svg id="Layer_1" data-name="Layer 1" xmlns="http://www.w3.org/2000/svg" width="999" height="220.6" viewBox="0 0 999 220.6">
  <defs>
    <style>
      .cls-1 {
        fill: #fff;
      }
    </style>
  </defs>
  <g>
    <path class="cls-1" d="M42.5,36.4h59l23.6-25.1H17.2L0,107.7H30l6.2-35.3H90.8L113,48.9H40.4Z"/>
    <path class="cls-1" d="M152.4,82.9l12.7-71.6H135.4l-17.2,96.4h85.2l23.8-24.8Z"/>
    <polygon class="cls-1" points="248.7 117.8 313.2 117.8 173.7 220.6 235.1 140.1 193.6 140.1 319.4 0 331.1 32.1 248.7 117.8"/>
    <path class="cls-1" d="M382.7,107.7H270.6l22.5-24.8h33.1q4.7,0,8.1.3c-1.1-1.7-3.6-6.5-3.6-6.5l-9.6-19.1,23.4-24.3Z"/>
    <path class="cls-1" d="M519.8,55.3c-5.5-3.7-13.4-5.5-23.9-5.5H443.4c-6.1,0-9.2-1.8-9.2-5.5s.9-4.9,2.7-6.1,4.8-1.8,8.8-1.8h66.9l23.7-25.1H452.5c-8.4,0-15.7.8-21.6,2.6a39,39,0,0,0-14.7,7.3A26.9,26.9,0,0,0,408,32.1a34,34,0,0,0-2.6,13.6c0,7.1,2.5,12.7,7.6,16.9S426.1,69,437.1,69h52.6c6,0,9.1,1.9,9.1,5.7s-.9,4.9-2.8,6.2-4.7,2-8.8,2h-73l-23.5,24.8h89.8a80.9,80.9,0,0,0,21.8-2.6A40.7,40.7,0,0,0,517,97.6a28.3,28.3,0,0,0,8.3-11.5,39.6,39.6,0,0,0,2.6-14.4C527.9,64.5,525.2,59,519.8,55.3Z"/>
    <path class="cls-1" d="M639.5,11.3l-6.1,34.2H575.9l6.2-34.2H552.2l-17.1,96.4h30l6.5-37.2h57.5l-6.6,37.2h29.7l17.1-96.4Z"/>
    <path class="cls-1" d="M727.3,33.7h60.1L811.5,8.1h-110l-18.1,99.6h30.5l7-37.3h55.6l22.6-23.9h-74Z"/>
    <polygon class="cls-1" points="854.7 8.1 836.2 107.7 806.4 107.7 819.6 36.8 854.7 8.1"/>
    <path class="cls-1" d="M885.9,8.1,861.2,34h46.7L895,107.7h30.8L938.9,34h35.4L999,8.1Z"/>
    <polygon class="cls-1" points="854.7 8.1 819.6 36.8 825 8.1 854.7 8.1"/>
  </g>
</svg>
