<svg width="375" height="370" viewBox="0 0 375 370" fill="none" xmlns="http://www.w3.org/2000/svg">
<g clip-path="url(#clip0_1220_5883)">
<rect width="375" height="369.335" fill="#2A317F"/>
<g opacity="0.8" filter="url(#filter0_d_1220_5883)">
<path d="M389.607 140.218C317.706 140.218 259.419 73.4589 259.419 -8.8932C259.419 -91.2453 317.706 -158.005 389.607 -158.005C461.508 -158.005 519.796 -91.2453 519.796 -8.8932C519.796 73.4589 461.508 140.218 389.607 140.218Z" fill="url(#paint0_radial_1220_5883)" fill-opacity="0.04"/>
<path d="M384.012 158.352C312.208 158.352 254 91.6835 254 9.44325C254 -72.797 312.208 -139.466 384.012 -139.466C455.815 -139.466 514.023 -72.797 514.023 9.44325C514.023 91.6835 455.815 158.352 384.012 158.352Z" stroke="white" stroke-opacity="0.04" stroke-width="0.282302"/>
</g>
<g opacity="0.8" filter="url(#filter1_d_1220_5883)">
<path d="M453.548 -110.223C433.754 -120.285 412.079 -124.525 390.491 -122.557C368.904 -120.589 348.086 -112.477 329.931 -98.9557C311.776 -85.4347 296.857 -66.9335 286.529 -45.1324C276.202 -23.3313 270.792 1.07923 270.792 25.8828" stroke="white" stroke-opacity="0.1" stroke-width="0.282302"/>
</g>
<g opacity="0.8" filter="url(#filter2_d_1220_5883)">
<path d="M331.173 151.635C355.648 169.413 384.608 177.315 413.451 174.086C442.297 170.856 469.372 156.68 490.379 133.81C511.382 110.94 525.116 80.687 529.393 47.8558C533.67 15.0247 528.243 -18.502 513.983 -47.3984" stroke="white" stroke-opacity="0.1" stroke-width="0.282302"/>
</g>
<g opacity="0.8" filter="url(#filter3_d_1220_5883)">
<path d="M400.952 133.125C343.366 133.125 296.684 79.7321 296.684 13.869C296.684 -51.9941 343.366 -105.387 400.952 -105.387C458.537 -105.387 505.22 -51.9941 505.22 13.869C505.22 79.7321 458.537 133.125 400.952 133.125Z" fill="url(#paint1_radial_1220_5883)" fill-opacity="0.06"/>
<path d="M296.858 13.8685C296.858 79.6195 343.461 132.922 400.948 132.922C458.436 132.922 505.043 79.6195 505.043 13.8685C505.043 -51.8824 458.436 -105.185 400.948 -105.185C343.461 -105.185 296.858 -51.8824 296.858 13.8685Z" stroke="white" stroke-opacity="0.06" stroke-width="0.282302"/>
</g>
<g opacity="0.8" filter="url(#filter4_d_1220_5883)">
<path d="M400.949 115.282C357.76 115.282 322.748 75.2563 322.748 25.8822C322.748 -23.492 357.76 -63.5176 400.949 -63.5176C444.138 -63.5176 479.15 -23.492 479.15 25.8822C479.15 75.2563 444.138 115.282 400.949 115.282Z" fill="url(#paint2_radial_1220_5883)" fill-opacity="0.1"/>
<path d="M322.925 25.8827C322.925 75.1447 357.858 115.08 400.948 115.08C444.041 115.08 478.973 75.1447 478.973 25.8827C478.973 -23.3793 444.041 -63.3145 400.948 -63.3145C357.858 -63.3145 322.925 -23.3793 322.925 25.8827Z" stroke="white" stroke-opacity="0.1" stroke-width="0.282302"/>
</g>
<g opacity="0.72" filter="url(#filter5_d_1220_5883)">
<path d="M28.8631 531.808C-41.2899 531.808 -98.16 469.106 -98.16 391.759C-98.16 314.413 -41.2899 251.711 28.8631 251.711C99.016 251.711 155.886 314.413 155.886 391.759C155.886 469.106 99.016 531.808 28.8631 531.808Z" fill="url(#paint3_radial_1220_5883)" fill-opacity="0.04"/>
<path d="M28.8639 531.564C-41.1673 531.564 -97.9387 468.971 -97.9387 391.759C-97.9387 314.547 -41.1673 251.954 28.8639 251.954C98.895 251.954 155.667 314.547 155.667 391.759C155.667 468.971 98.895 531.564 28.8639 531.564Z" stroke="white" stroke-opacity="0.04" stroke-width="0.282302"/>
</g>
<g opacity="0.8" filter="url(#filter6_d_1220_5883)">
<path d="M80.3038 263.975C60.9986 254.528 39.8588 250.547 18.8042 252.395C-2.25045 254.242 -22.553 261.859 -40.2604 274.553C-57.9673 287.247 -72.5181 304.618 -82.5908 325.086C-92.6636 345.554 -97.9395 368.472 -97.9395 391.759" stroke="white" stroke-opacity="0.1" stroke-width="0.282302"/>
</g>
<g opacity="0.72" filter="url(#filter7_d_1220_5883)">
<path d="M-48.8633 502.219C-26.5297 521.323 0.952719 531.651 29.2192 531.564C57.4857 531.477 84.9153 520.979 107.152 501.738C129.387 482.497 145.155 455.616 151.949 425.364C158.744 395.113 156.175 363.226 144.652 334.768" stroke="white" stroke-opacity="0.1" stroke-width="0.282302"/>
</g>
<g opacity="0.8" filter="url(#filter8_d_1220_5883)">
<path d="M98.5801 274.98C94.869 272.287 91.0319 269.811 87.085 267.562" stroke="white" stroke-opacity="0.1" stroke-width="0.282302"/>
</g>
<g opacity="0.72" filter="url(#filter9_d_1220_5883)">
<path d="M29.006 503.766C-27.1794 503.766 -72.7267 453.619 -72.7267 391.759C-72.7267 329.899 -27.1794 279.752 29.006 279.752C85.1915 279.752 130.739 329.899 130.739 391.759C130.739 453.619 85.1915 503.766 29.006 503.766Z" fill="url(#paint4_radial_1220_5883)" fill-opacity="0.06"/>
<path d="M-72.5063 391.759C-72.5063 453.484 -27.0581 503.523 29.0057 503.523C85.0697 503.523 130.518 453.484 130.518 391.759C130.518 330.034 85.0697 279.995 29.0057 279.995C-27.0581 279.995 -72.5063 330.034 -72.5063 391.759Z" stroke="white" stroke-opacity="0.06" stroke-width="0.282302"/>
</g>
<g opacity="0.72" filter="url(#filter10_d_1220_5883)">
<path d="M29.0067 475.725C-13.1323 475.725 -47.2927 438.133 -47.2927 391.76C-47.2927 345.387 -13.1323 307.794 29.0067 307.794C71.1457 307.794 105.306 345.387 105.306 391.76C105.306 438.133 71.1457 475.725 29.0067 475.725Z" fill="url(#paint5_radial_1220_5883)" fill-opacity="0.1"/>
<path d="M-47.0718 391.76C-47.0718 437.998 -13.0106 475.482 29.0071 475.482C71.0248 475.482 105.086 437.998 105.086 391.76C105.086 345.521 71.0248 308.037 29.0071 308.037C-13.0106 308.037 -47.0718 345.521 -47.0718 391.76Z" stroke="white" stroke-opacity="0.1" stroke-width="0.282302"/>
</g>
</g>
<defs>
<filter id="filter0_d_1220_5883" x="219.983" y="-164.78" width="333.69" height="384.251" filterUnits="userSpaceOnUse" color-interpolation-filters="sRGB">
<feFlood flood-opacity="0" result="BackgroundImageFix"/>
<feColorMatrix in="SourceAlpha" type="matrix" values="0 0 0 0 0 0 0 0 0 0 0 0 0 0 0 0 0 0 127 0" result="hardAlpha"/>
<feOffset dy="27.101"/>
<feGaussianBlur stdDeviation="16.9381"/>
<feComposite in2="hardAlpha" operator="out"/>
<feColorMatrix type="matrix" values="0 0 0 0 0.0126754 0 0 0 0 0.00461806 0 0 0 0 0.0583333 0 0 0 0.2 0"/>
<feBlend mode="normal" in2="BackgroundImageFix" result="effect1_dropShadow_1220_5883"/>
<feBlend mode="normal" in="SourceGraphic" in2="effect1_dropShadow_1220_5883" result="shape"/>
</filter>
<filter id="filter1_d_1220_5883" x="236.775" y="-129.943" width="250.714" height="216.803" filterUnits="userSpaceOnUse" color-interpolation-filters="sRGB">
<feFlood flood-opacity="0" result="BackgroundImageFix"/>
<feColorMatrix in="SourceAlpha" type="matrix" values="0 0 0 0 0 0 0 0 0 0 0 0 0 0 0 0 0 0 127 0" result="hardAlpha"/>
<feOffset dy="27.101"/>
<feGaussianBlur stdDeviation="16.9381"/>
<feComposite in2="hardAlpha" operator="out"/>
<feColorMatrix type="matrix" values="0 0 0 0 0.0126754 0 0 0 0 0.00461806 0 0 0 0 0.0583333 0 0 0 0.2 0"/>
<feBlend mode="normal" in2="BackgroundImageFix" result="effect1_dropShadow_1220_5883"/>
<feBlend mode="normal" in="SourceGraphic" in2="effect1_dropShadow_1220_5883" result="shape"/>
</filter>
<filter id="filter2_d_1220_5883" x="297.214" y="-54.2362" width="267.62" height="290.147" filterUnits="userSpaceOnUse" color-interpolation-filters="sRGB">
<feFlood flood-opacity="0" result="BackgroundImageFix"/>
<feColorMatrix in="SourceAlpha" type="matrix" values="0 0 0 0 0 0 0 0 0 0 0 0 0 0 0 0 0 0 127 0" result="hardAlpha"/>
<feOffset dy="27.101"/>
<feGaussianBlur stdDeviation="16.9381"/>
<feComposite in2="hardAlpha" operator="out"/>
<feColorMatrix type="matrix" values="0 0 0 0 0.0126754 0 0 0 0 0.00461806 0 0 0 0 0.0583333 0 0 0 0.2 0"/>
<feBlend mode="normal" in2="BackgroundImageFix" result="effect1_dropShadow_1220_5883"/>
<feBlend mode="normal" in="SourceGraphic" in2="effect1_dropShadow_1220_5883" result="shape"/>
</filter>
<filter id="filter3_d_1220_5883" x="262.807" y="-112.162" width="276.289" height="306.264" filterUnits="userSpaceOnUse" color-interpolation-filters="sRGB">
<feFlood flood-opacity="0" result="BackgroundImageFix"/>
<feColorMatrix in="SourceAlpha" type="matrix" values="0 0 0 0 0 0 0 0 0 0 0 0 0 0 0 0 0 0 127 0" result="hardAlpha"/>
<feOffset dy="27.101"/>
<feGaussianBlur stdDeviation="16.9381"/>
<feComposite in2="hardAlpha" operator="out"/>
<feColorMatrix type="matrix" values="0 0 0 0 0.0126754 0 0 0 0 0.00461806 0 0 0 0 0.0583333 0 0 0 0.2 0"/>
<feBlend mode="normal" in2="BackgroundImageFix" result="effect1_dropShadow_1220_5883"/>
<feBlend mode="normal" in="SourceGraphic" in2="effect1_dropShadow_1220_5883" result="shape"/>
</filter>
<filter id="filter4_d_1220_5883" x="288.872" y="-70.2928" width="224.154" height="246.552" filterUnits="userSpaceOnUse" color-interpolation-filters="sRGB">
<feFlood flood-opacity="0" result="BackgroundImageFix"/>
<feColorMatrix in="SourceAlpha" type="matrix" values="0 0 0 0 0 0 0 0 0 0 0 0 0 0 0 0 0 0 127 0" result="hardAlpha"/>
<feOffset dy="27.101"/>
<feGaussianBlur stdDeviation="16.9381"/>
<feComposite in2="hardAlpha" operator="out"/>
<feColorMatrix type="matrix" values="0 0 0 0 0.0126754 0 0 0 0 0.00461806 0 0 0 0 0.0583333 0 0 0 0.2 0"/>
<feBlend mode="normal" in2="BackgroundImageFix" result="effect1_dropShadow_1220_5883"/>
<feBlend mode="normal" in="SourceGraphic" in2="effect1_dropShadow_1220_5883" result="shape"/>
</filter>
<filter id="filter5_d_1220_5883" x="-132.036" y="244.936" width="321.799" height="347.849" filterUnits="userSpaceOnUse" color-interpolation-filters="sRGB">
<feFlood flood-opacity="0" result="BackgroundImageFix"/>
<feColorMatrix in="SourceAlpha" type="matrix" values="0 0 0 0 0 0 0 0 0 0 0 0 0 0 0 0 0 0 127 0" result="hardAlpha"/>
<feOffset dy="27.101"/>
<feGaussianBlur stdDeviation="16.9381"/>
<feComposite in2="hardAlpha" operator="out"/>
<feColorMatrix type="matrix" values="0 0 0 0 0.0126754 0 0 0 0 0.00461806 0 0 0 0 0.0583333 0 0 0 0.2 0"/>
<feBlend mode="normal" in2="BackgroundImageFix" result="effect1_dropShadow_1220_5883"/>
<feBlend mode="normal" in="SourceGraphic" in2="effect1_dropShadow_1220_5883" result="shape"/>
</filter>
<filter id="filter6_d_1220_5883" x="-131.957" y="245.037" width="246.199" height="207.7" filterUnits="userSpaceOnUse" color-interpolation-filters="sRGB">
<feFlood flood-opacity="0" result="BackgroundImageFix"/>
<feColorMatrix in="SourceAlpha" type="matrix" values="0 0 0 0 0 0 0 0 0 0 0 0 0 0 0 0 0 0 127 0" result="hardAlpha"/>
<feOffset dy="27.101"/>
<feGaussianBlur stdDeviation="16.9381"/>
<feComposite in2="hardAlpha" operator="out"/>
<feColorMatrix type="matrix" values="0 0 0 0 0.0126754 0 0 0 0 0.00461806 0 0 0 0 0.0583333 0 0 0 0.2 0"/>
<feBlend mode="normal" in2="BackgroundImageFix" result="effect1_dropShadow_1220_5883"/>
<feBlend mode="normal" in="SourceGraphic" in2="effect1_dropShadow_1220_5883" result="shape"/>
</filter>
<filter id="filter7_d_1220_5883" x="-82.8314" y="327.94" width="272.516" height="264.744" filterUnits="userSpaceOnUse" color-interpolation-filters="sRGB">
<feFlood flood-opacity="0" result="BackgroundImageFix"/>
<feColorMatrix in="SourceAlpha" type="matrix" values="0 0 0 0 0 0 0 0 0 0 0 0 0 0 0 0 0 0 127 0" result="hardAlpha"/>
<feOffset dy="27.101"/>
<feGaussianBlur stdDeviation="16.9381"/>
<feComposite in2="hardAlpha" operator="out"/>
<feColorMatrix type="matrix" values="0 0 0 0 0.0126754 0 0 0 0 0.00461806 0 0 0 0 0.0583333 0 0 0 0.2 0"/>
<feBlend mode="normal" in2="BackgroundImageFix" result="effect1_dropShadow_1220_5883"/>
<feBlend mode="normal" in="SourceGraphic" in2="effect1_dropShadow_1220_5883" result="shape"/>
</filter>
<filter id="filter8_d_1220_5883" x="53.1389" y="260.663" width="79.4005" height="75.4088" filterUnits="userSpaceOnUse" color-interpolation-filters="sRGB">
<feFlood flood-opacity="0" result="BackgroundImageFix"/>
<feColorMatrix in="SourceAlpha" type="matrix" values="0 0 0 0 0 0 0 0 0 0 0 0 0 0 0 0 0 0 127 0" result="hardAlpha"/>
<feOffset dy="27.101"/>
<feGaussianBlur stdDeviation="16.9381"/>
<feComposite in2="hardAlpha" operator="out"/>
<feColorMatrix type="matrix" values="0 0 0 0 0.0126754 0 0 0 0 0.00461806 0 0 0 0 0.0583333 0 0 0 0.2 0"/>
<feBlend mode="normal" in2="BackgroundImageFix" result="effect1_dropShadow_1220_5883"/>
<feBlend mode="normal" in="SourceGraphic" in2="effect1_dropShadow_1220_5883" result="shape"/>
</filter>
<filter id="filter9_d_1220_5883" x="-106.603" y="272.977" width="271.218" height="291.766" filterUnits="userSpaceOnUse" color-interpolation-filters="sRGB">
<feFlood flood-opacity="0" result="BackgroundImageFix"/>
<feColorMatrix in="SourceAlpha" type="matrix" values="0 0 0 0 0 0 0 0 0 0 0 0 0 0 0 0 0 0 127 0" result="hardAlpha"/>
<feOffset dy="27.101"/>
<feGaussianBlur stdDeviation="16.9381"/>
<feComposite in2="hardAlpha" operator="out"/>
<feColorMatrix type="matrix" values="0 0 0 0 0.0126754 0 0 0 0 0.00461806 0 0 0 0 0.0583333 0 0 0 0.2 0"/>
<feBlend mode="normal" in2="BackgroundImageFix" result="effect1_dropShadow_1220_5883"/>
<feBlend mode="normal" in="SourceGraphic" in2="effect1_dropShadow_1220_5883" result="shape"/>
</filter>
<filter id="filter10_d_1220_5883" x="-81.1693" y="301.019" width="220.352" height="235.684" filterUnits="userSpaceOnUse" color-interpolation-filters="sRGB">
<feFlood flood-opacity="0" result="BackgroundImageFix"/>
<feColorMatrix in="SourceAlpha" type="matrix" values="0 0 0 0 0 0 0 0 0 0 0 0 0 0 0 0 0 0 127 0" result="hardAlpha"/>
<feOffset dy="27.101"/>
<feGaussianBlur stdDeviation="16.9381"/>
<feComposite in2="hardAlpha" operator="out"/>
<feColorMatrix type="matrix" values="0 0 0 0 0.0126754 0 0 0 0 0.00461806 0 0 0 0 0.0583333 0 0 0 0.2 0"/>
<feBlend mode="normal" in2="BackgroundImageFix" result="effect1_dropShadow_1220_5883"/>
<feBlend mode="normal" in="SourceGraphic" in2="effect1_dropShadow_1220_5883" result="shape"/>
</filter>
<radialGradient id="paint0_radial_1220_5883" cx="0" cy="0" r="1" gradientUnits="userSpaceOnUse" gradientTransform="translate(389.607 -8.8932) rotate(90) scale(149.112 130.189)">
<stop stop-color="white" stop-opacity="0"/>
<stop offset="1" stop-color="white"/>
</radialGradient>
<radialGradient id="paint1_radial_1220_5883" cx="0" cy="0" r="1" gradientUnits="userSpaceOnUse" gradientTransform="translate(400.952 13.869) rotate(90) scale(119.256 104.268)">
<stop stop-color="white" stop-opacity="0"/>
<stop offset="1" stop-color="white"/>
</radialGradient>
<radialGradient id="paint2_radial_1220_5883" cx="0" cy="0" r="1" gradientUnits="userSpaceOnUse" gradientTransform="translate(400.949 25.8822) rotate(90) scale(89.3997 78.2009)">
<stop stop-color="white" stop-opacity="0"/>
<stop offset="1" stop-color="white"/>
</radialGradient>
<radialGradient id="paint3_radial_1220_5883" cx="0" cy="0" r="1" gradientUnits="userSpaceOnUse" gradientTransform="translate(28.8631 391.759) rotate(90) scale(140.048 127.023)">
<stop stop-color="white" stop-opacity="0"/>
<stop offset="1" stop-color="white"/>
</radialGradient>
<radialGradient id="paint4_radial_1220_5883" cx="0" cy="0" r="1" gradientUnits="userSpaceOnUse" gradientTransform="translate(29.006 391.759) rotate(90) scale(112.007 101.733)">
<stop stop-color="white" stop-opacity="0"/>
<stop offset="1" stop-color="white"/>
</radialGradient>
<radialGradient id="paint5_radial_1220_5883" cx="0" cy="0" r="1" gradientUnits="userSpaceOnUse" gradientTransform="translate(29.0067 391.76) rotate(90) scale(83.9658 76.2994)">
<stop stop-color="white" stop-opacity="0"/>
<stop offset="1" stop-color="white"/>
</radialGradient>
<clipPath id="clip0_1220_5883">
<rect width="375" height="369.335" fill="white"/>
</clipPath>
</defs>
</svg>
