<svg width="1200" height="461" viewBox="0 0 1200 461" fill="none" xmlns="http://www.w3.org/2000/svg">
<g clip-path="url(#clip0_233_4403)">
<g opacity="0.8" filter="url(#filter0_d_233_4403)">
<path d="M1297.36 389.578C1067.27 389.578 880.755 122.134 880.755 -207.775C880.755 -537.683 1067.27 -805.127 1297.36 -805.127C1527.44 -805.127 1713.96 -537.683 1713.96 -207.775C1713.96 122.134 1527.44 389.578 1297.36 389.578Z" fill="url(#paint0_radial_233_4403)" fill-opacity="0.04"/>
<path d="M1297.36 388.766C1067.59 388.766 881.321 121.685 881.321 -207.775C881.321 -537.235 1067.59 -804.315 1297.36 -804.315C1527.13 -804.315 1713.4 -537.235 1713.4 -207.775C1713.4 121.685 1527.13 388.766 1297.36 388.766Z" stroke="white" stroke-opacity="0.04" stroke-width="1.01123"/>
</g>
<g opacity="0.8" filter="url(#filter1_d_233_4403)">
</g>
<g opacity="0.8" filter="url(#filter2_d_233_4403)">
<path d="M1074.54 295.998C1152.86 367.217 1245.53 398.874 1337.83 385.937C1430.14 372.999 1516.78 316.21 1584 224.591C1651.21 132.972 1695.16 11.7755 1708.85 -119.748C1722.53 -251.273 1705.17 -385.583 1659.53 -501.344" stroke="white" stroke-opacity="0.1" stroke-width="1.01123"/>
</g>
<g opacity="0.8" filter="url(#filter3_d_233_4403)">
<path d="M1297.83 269.972C1113.56 269.972 964.175 56.0778 964.175 -207.775C964.175 -471.627 1113.56 -685.521 1297.83 -685.521C1482.11 -685.521 1631.49 -471.627 1631.49 -207.775C1631.49 56.0778 1482.11 269.972 1297.83 269.972Z" fill="url(#paint1_radial_233_4403)" fill-opacity="0.06"/>
<path d="M964.735 -207.775C964.735 55.6282 1113.86 269.161 1297.82 269.161C1481.78 269.161 1630.92 55.6282 1630.92 -207.775C1630.92 -471.178 1481.78 -684.71 1297.82 -684.71C1113.86 -684.71 964.735 -471.178 964.735 -207.775Z" stroke="white" stroke-opacity="0.06" stroke-width="1.01123"/>
</g>
<g opacity="0.8" filter="url(#filter4_d_233_4403)">
<path d="M1297.82 150.367C1159.62 150.367 1047.58 -9.97852 1047.58 -207.775C1047.58 -405.571 1159.62 -565.917 1297.82 -565.917C1436.03 -565.917 1548.07 -405.571 1548.07 -207.775C1548.07 -9.97852 1436.03 150.367 1297.82 150.367Z" fill="url(#paint2_radial_233_4403)" fill-opacity="0.1"/>
<path d="M1048.15 -207.775C1048.15 -10.4277 1159.94 149.556 1297.82 149.556C1435.72 149.556 1547.5 -10.4277 1547.5 -207.775C1547.5 -405.122 1435.72 -565.105 1297.82 -565.105C1159.94 -565.105 1048.15 -405.122 1048.15 -207.775Z" stroke="white" stroke-opacity="0.1" stroke-width="1.01123"/>
</g>
<g opacity="0.72" filter="url(#filter5_d_233_4403)">
<path d="M-58.868 1012.9C-238.934 1012.9 -384.906 803.598 -384.906 545.408C-384.906 287.219 -238.934 77.9155 -58.868 77.9155C121.198 77.9155 267.17 287.219 267.17 545.408C267.17 803.598 121.198 1012.9 -58.868 1012.9Z" fill="url(#paint3_radial_233_4403)" fill-opacity="0.04"/>
<path d="M-58.8682 1012.09C-238.621 1012.09 -384.34 803.149 -384.34 545.408C-384.34 287.667 -238.621 78.7271 -58.8682 78.7271C120.885 78.7271 266.604 287.667 266.604 545.408C266.604 803.149 120.885 1012.09 -58.8682 1012.09Z" stroke="white" stroke-opacity="0.04" stroke-width="1.01123"/>
</g>
<g opacity="0.8" filter="url(#filter6_d_233_4403)">
<path d="M-167.188 940.819C-408.985 940.819 -605 737.108 -605 485.819C-605 234.529 -408.985 30.8186 -167.188 30.8186C74.6096 30.8186 270.625 234.529 270.625 485.819C270.625 737.108 74.6096 940.819 -167.188 940.819Z" fill="url(#paint4_radial_233_4403)" fill-opacity="0.04"/>
<path d="M76.2085 1424.08C-220.775 1424.08 -461.527 1078.87 -461.527 653.039C-461.527 227.206 -220.775 -118 76.2085 -118C373.192 -118 613.944 227.206 613.944 653.039C613.944 1078.87 373.192 1424.08 76.2085 1424.08Z" stroke="url(#paint5_linear_233_4403)" stroke-opacity="0.12" stroke-width="1.01123"/>
</g>
<g opacity="0.8" filter="url(#filter7_d_233_4403)">
<path d="M73.1677 118.854C23.6159 87.3188 -30.6447 74.0315 -84.6869 80.1978C-138.729 86.3644 -190.841 111.789 -236.291 154.164C-281.741 196.539 -319.089 254.522 -344.943 322.846C-370.798 391.172 -384.34 467.675 -384.34 545.409" stroke="white" stroke-opacity="0.1" stroke-width="1.01123"/>
</g>
<g opacity="0.72" filter="url(#filter8_d_233_4403)">
<path d="M-258.376 914.132C-201.051 977.901 -130.51 1012.38 -57.957 1012.09C14.5964 1011.8 85.0017 976.754 142.077 912.525C199.15 848.297 239.622 758.566 257.062 657.584C274.501 556.602 267.909 450.16 238.333 355.165" stroke="white" stroke-opacity="0.1" stroke-width="1.01123"/>
</g>
<g opacity="0.8" filter="url(#filter9_d_233_4403)">
<path d="M120.077 155.592C110.551 146.602 100.703 138.335 90.5718 130.827" stroke="white" stroke-opacity="0.1" stroke-width="1.01123"/>
</g>
<g opacity="0.72" filter="url(#filter10_d_233_4403)">
<path d="M-58.5011 919.297C-202.716 919.297 -319.624 751.902 -319.624 545.408C-319.624 338.915 -202.716 171.52 -58.5011 171.52C85.7134 171.52 202.622 338.915 202.622 545.408C202.622 751.902 85.7134 919.297 -58.5011 919.297Z" fill="url(#paint6_radial_233_4403)" fill-opacity="0.06"/>
<path d="M-319.058 545.408C-319.058 751.453 -202.404 918.486 -58.5014 918.486C85.4014 918.486 202.056 751.453 202.056 545.408C202.056 339.364 85.4014 172.331 -58.5014 172.331C-202.404 172.331 -319.058 339.364 -319.058 545.408Z" stroke="white" stroke-opacity="0.06" stroke-width="1.01123"/>
</g>
<g opacity="0.72" filter="url(#filter11_d_233_4403)">
<path d="M-58.5012 825.693C-166.662 825.693 -254.343 700.206 -254.343 545.409C-254.343 390.612 -166.662 265.124 -58.5012 265.124C49.6595 265.124 137.341 390.612 137.341 545.409C137.341 700.206 49.6595 825.693 -58.5012 825.693Z" fill="url(#paint7_radial_233_4403)" fill-opacity="0.1"/>
<path d="M-253.778 545.408C-253.778 699.756 -166.351 824.882 -58.5014 824.882C49.348 824.882 136.775 699.756 136.775 545.408C136.775 391.061 49.348 265.935 -58.5014 265.935C-166.351 265.935 -253.778 391.061 -253.778 545.408Z" stroke="white" stroke-opacity="0.1" stroke-width="1.01123"/>
</g>
</g>
<defs>
<filter id="filter0_d_233_4403" x="759.407" y="-829.396" width="1075.9" height="1437.4" filterUnits="userSpaceOnUse" color-interpolation-filters="sRGB">
<feFlood flood-opacity="0" result="BackgroundImageFix"/>
<feColorMatrix in="SourceAlpha" type="matrix" values="0 0 0 0 0 0 0 0 0 0 0 0 0 0 0 0 0 0 127 0" result="hardAlpha"/>
<feOffset dy="97.0783"/>
<feGaussianBlur stdDeviation="60.6739"/>
<feComposite in2="hardAlpha" operator="out"/>
<feColorMatrix type="matrix" values="0 0 0 0 0.0126754 0 0 0 0 0.00461806 0 0 0 0 0.0583333 0 0 0 0.2 0"/>
<feBlend mode="normal" in2="BackgroundImageFix" result="effect1_dropShadow_233_4403"/>
<feBlend mode="normal" in="SourceGraphic" in2="effect1_dropShadow_233_4403" result="shape"/>
</filter>
<filter id="filter1_d_233_4403" x="759.467" y="-829.091" width="828.292" height="839.742" filterUnits="userSpaceOnUse" color-interpolation-filters="sRGB">
<feFlood flood-opacity="0" result="BackgroundImageFix"/>
<feColorMatrix in="SourceAlpha" type="matrix" values="0 0 0 0 0 0 0 0 0 0 0 0 0 0 0 0 0 0 127 0" result="hardAlpha"/>
<feOffset dy="97.0783"/>
<feGaussianBlur stdDeviation="60.6739"/>
<feComposite in2="hardAlpha" operator="out"/>
<feColorMatrix type="matrix" values="0 0 0 0 0.0126754 0 0 0 0 0.00461806 0 0 0 0 0.0583333 0 0 0 0.2 0"/>
<feBlend mode="normal" in2="BackgroundImageFix" result="effect1_dropShadow_233_4403"/>
<feBlend mode="normal" in="SourceGraphic" in2="effect1_dropShadow_233_4403" result="shape"/>
</filter>
<filter id="filter2_d_233_4403" x="952.853" y="-525.799" width="882.4" height="1133.5" filterUnits="userSpaceOnUse" color-interpolation-filters="sRGB">
<feFlood flood-opacity="0" result="BackgroundImageFix"/>
<feColorMatrix in="SourceAlpha" type="matrix" values="0 0 0 0 0 0 0 0 0 0 0 0 0 0 0 0 0 0 127 0" result="hardAlpha"/>
<feOffset dy="97.0783"/>
<feGaussianBlur stdDeviation="60.6739"/>
<feComposite in2="hardAlpha" operator="out"/>
<feColorMatrix type="matrix" values="0 0 0 0 0.0126754 0 0 0 0 0.00461806 0 0 0 0 0.0583333 0 0 0 0.2 0"/>
<feBlend mode="normal" in2="BackgroundImageFix" result="effect1_dropShadow_233_4403"/>
<feBlend mode="normal" in="SourceGraphic" in2="effect1_dropShadow_233_4403" result="shape"/>
</filter>
<filter id="filter3_d_233_4403" x="842.827" y="-709.791" width="910.011" height="1198.19" filterUnits="userSpaceOnUse" color-interpolation-filters="sRGB">
<feFlood flood-opacity="0" result="BackgroundImageFix"/>
<feColorMatrix in="SourceAlpha" type="matrix" values="0 0 0 0 0 0 0 0 0 0 0 0 0 0 0 0 0 0 127 0" result="hardAlpha"/>
<feOffset dy="97.0783"/>
<feGaussianBlur stdDeviation="60.6739"/>
<feComposite in2="hardAlpha" operator="out"/>
<feColorMatrix type="matrix" values="0 0 0 0 0.0126754 0 0 0 0 0.00461806 0 0 0 0 0.0583333 0 0 0 0.2 0"/>
<feBlend mode="normal" in2="BackgroundImageFix" result="effect1_dropShadow_233_4403"/>
<feBlend mode="normal" in="SourceGraphic" in2="effect1_dropShadow_233_4403" result="shape"/>
</filter>
<filter id="filter4_d_233_4403" x="926.234" y="-590.186" width="743.182" height="958.979" filterUnits="userSpaceOnUse" color-interpolation-filters="sRGB">
<feFlood flood-opacity="0" result="BackgroundImageFix"/>
<feColorMatrix in="SourceAlpha" type="matrix" values="0 0 0 0 0 0 0 0 0 0 0 0 0 0 0 0 0 0 127 0" result="hardAlpha"/>
<feOffset dy="97.0783"/>
<feGaussianBlur stdDeviation="60.6739"/>
<feComposite in2="hardAlpha" operator="out"/>
<feColorMatrix type="matrix" values="0 0 0 0 0.0126754 0 0 0 0 0.00461806 0 0 0 0 0.0583333 0 0 0 0.2 0"/>
<feBlend mode="normal" in2="BackgroundImageFix" result="effect1_dropShadow_233_4403"/>
<feBlend mode="normal" in="SourceGraphic" in2="effect1_dropShadow_233_4403" result="shape"/>
</filter>
<filter id="filter5_d_233_4403" x="-506.254" y="53.646" width="894.771" height="1177.68" filterUnits="userSpaceOnUse" color-interpolation-filters="sRGB">
<feFlood flood-opacity="0" result="BackgroundImageFix"/>
<feColorMatrix in="SourceAlpha" type="matrix" values="0 0 0 0 0 0 0 0 0 0 0 0 0 0 0 0 0 0 127 0" result="hardAlpha"/>
<feOffset dy="97.0783"/>
<feGaussianBlur stdDeviation="60.6739"/>
<feComposite in2="hardAlpha" operator="out"/>
<feColorMatrix type="matrix" values="0 0 0 0 0.0126754 0 0 0 0 0.00461806 0 0 0 0 0.0583333 0 0 0 0.2 0"/>
<feBlend mode="normal" in2="BackgroundImageFix" result="effect1_dropShadow_233_4403"/>
<feBlend mode="normal" in="SourceGraphic" in2="effect1_dropShadow_233_4403" result="shape"/>
</filter>
<filter id="filter6_d_233_4403" x="-726.348" y="-142.775" width="1462.15" height="1785.78" filterUnits="userSpaceOnUse" color-interpolation-filters="sRGB">
<feFlood flood-opacity="0" result="BackgroundImageFix"/>
<feColorMatrix in="SourceAlpha" type="matrix" values="0 0 0 0 0 0 0 0 0 0 0 0 0 0 0 0 0 0 127 0" result="hardAlpha"/>
<feOffset dy="97.0783"/>
<feGaussianBlur stdDeviation="60.6739"/>
<feComposite in2="hardAlpha" operator="out"/>
<feColorMatrix type="matrix" values="0 0 0 0 0.0126754 0 0 0 0 0.00461806 0 0 0 0 0.0583333 0 0 0 0.2 0"/>
<feBlend mode="normal" in2="BackgroundImageFix" result="effect1_dropShadow_233_4403"/>
<feBlend mode="normal" in="SourceGraphic" in2="effect1_dropShadow_233_4403" result="shape"/>
</filter>
<filter id="filter7_d_233_4403" x="-506.193" y="53.9519" width="700.98" height="709.883" filterUnits="userSpaceOnUse" color-interpolation-filters="sRGB">
<feFlood flood-opacity="0" result="BackgroundImageFix"/>
<feColorMatrix in="SourceAlpha" type="matrix" values="0 0 0 0 0 0 0 0 0 0 0 0 0 0 0 0 0 0 127 0" result="hardAlpha"/>
<feOffset dy="97.0783"/>
<feGaussianBlur stdDeviation="60.6739"/>
<feComposite in2="hardAlpha" operator="out"/>
<feColorMatrix type="matrix" values="0 0 0 0 0.0126754 0 0 0 0 0.00461806 0 0 0 0 0.0583333 0 0 0 0.2 0"/>
<feBlend mode="normal" in2="BackgroundImageFix" result="effect1_dropShadow_233_4403"/>
<feBlend mode="normal" in="SourceGraphic" in2="effect1_dropShadow_233_4403" result="shape"/>
</filter>
<filter id="filter8_d_233_4403" x="-380.1" y="330.745" width="768.557" height="900.277" filterUnits="userSpaceOnUse" color-interpolation-filters="sRGB">
<feFlood flood-opacity="0" result="BackgroundImageFix"/>
<feColorMatrix in="SourceAlpha" type="matrix" values="0 0 0 0 0 0 0 0 0 0 0 0 0 0 0 0 0 0 127 0" result="hardAlpha"/>
<feOffset dy="97.0783"/>
<feGaussianBlur stdDeviation="60.6739"/>
<feComposite in2="hardAlpha" operator="out"/>
<feColorMatrix type="matrix" values="0 0 0 0 0.0126754 0 0 0 0 0.00461806 0 0 0 0 0.0583333 0 0 0 0.2 0"/>
<feBlend mode="normal" in2="BackgroundImageFix" result="effect1_dropShadow_233_4403"/>
<feBlend mode="normal" in="SourceGraphic" in2="effect1_dropShadow_233_4403" result="shape"/>
</filter>
<filter id="filter9_d_233_4403" x="-31.0771" y="106.152" width="272.849" height="268.234" filterUnits="userSpaceOnUse" color-interpolation-filters="sRGB">
<feFlood flood-opacity="0" result="BackgroundImageFix"/>
<feColorMatrix in="SourceAlpha" type="matrix" values="0 0 0 0 0 0 0 0 0 0 0 0 0 0 0 0 0 0 127 0" result="hardAlpha"/>
<feOffset dy="97.0783"/>
<feGaussianBlur stdDeviation="60.6739"/>
<feComposite in2="hardAlpha" operator="out"/>
<feColorMatrix type="matrix" values="0 0 0 0 0.0126754 0 0 0 0 0.00461806 0 0 0 0 0.0583333 0 0 0 0.2 0"/>
<feBlend mode="normal" in2="BackgroundImageFix" result="effect1_dropShadow_233_4403"/>
<feBlend mode="normal" in="SourceGraphic" in2="effect1_dropShadow_233_4403" result="shape"/>
</filter>
<filter id="filter10_d_233_4403" x="-440.972" y="147.25" width="764.943" height="990.474" filterUnits="userSpaceOnUse" color-interpolation-filters="sRGB">
<feFlood flood-opacity="0" result="BackgroundImageFix"/>
<feColorMatrix in="SourceAlpha" type="matrix" values="0 0 0 0 0 0 0 0 0 0 0 0 0 0 0 0 0 0 127 0" result="hardAlpha"/>
<feOffset dy="97.0783"/>
<feGaussianBlur stdDeviation="60.6739"/>
<feComposite in2="hardAlpha" operator="out"/>
<feColorMatrix type="matrix" values="0 0 0 0 0.0126754 0 0 0 0 0.00461806 0 0 0 0 0.0583333 0 0 0 0.2 0"/>
<feBlend mode="normal" in2="BackgroundImageFix" result="effect1_dropShadow_233_4403"/>
<feBlend mode="normal" in="SourceGraphic" in2="effect1_dropShadow_233_4403" result="shape"/>
</filter>
<filter id="filter11_d_233_4403" x="-375.691" y="240.854" width="634.38" height="803.265" filterUnits="userSpaceOnUse" color-interpolation-filters="sRGB">
<feFlood flood-opacity="0" result="BackgroundImageFix"/>
<feColorMatrix in="SourceAlpha" type="matrix" values="0 0 0 0 0 0 0 0 0 0 0 0 0 0 0 0 0 0 127 0" result="hardAlpha"/>
<feOffset dy="97.0783"/>
<feGaussianBlur stdDeviation="60.6739"/>
<feComposite in2="hardAlpha" operator="out"/>
<feColorMatrix type="matrix" values="0 0 0 0 0.0126754 0 0 0 0 0.00461806 0 0 0 0 0.0583333 0 0 0 0.2 0"/>
<feBlend mode="normal" in2="BackgroundImageFix" result="effect1_dropShadow_233_4403"/>
<feBlend mode="normal" in="SourceGraphic" in2="effect1_dropShadow_233_4403" result="shape"/>
</filter>
<radialGradient id="paint0_radial_233_4403" cx="0" cy="0" r="1" gradientUnits="userSpaceOnUse" gradientTransform="translate(1297.36 -207.775) rotate(90) scale(597.352 416.604)">
<stop stop-color="white" stop-opacity="0"/>
<stop offset="1" stop-color="white"/>
</radialGradient>
<radialGradient id="paint1_radial_233_4403" cx="0" cy="0" r="1" gradientUnits="userSpaceOnUse" gradientTransform="translate(1297.83 -207.775) rotate(90) scale(477.747 333.658)">
<stop stop-color="white" stop-opacity="0"/>
<stop offset="1" stop-color="white"/>
</radialGradient>
<radialGradient id="paint2_radial_233_4403" cx="0" cy="0" r="1" gradientUnits="userSpaceOnUse" gradientTransform="translate(1297.82 -207.775) rotate(90) scale(358.142 250.243)">
<stop stop-color="white" stop-opacity="0"/>
<stop offset="1" stop-color="white"/>
</radialGradient>
<radialGradient id="paint3_radial_233_4403" cx="0" cy="0" r="1" gradientUnits="userSpaceOnUse" gradientTransform="translate(-58.868 545.408) rotate(90) scale(467.493 326.038)">
<stop stop-color="white" stop-opacity="0"/>
<stop offset="1" stop-color="white"/>
</radialGradient>
<radialGradient id="paint4_radial_233_4403" cx="0" cy="0" r="1" gradientUnits="userSpaceOnUse" gradientTransform="translate(-167.188 485.819) rotate(90) scale(455 437.812)">
<stop stop-color="white" stop-opacity="0"/>
<stop offset="1" stop-color="white"/>
</radialGradient>
<linearGradient id="paint5_linear_233_4403" x1="412.435" y1="-131.798" x2="743.959" y2="525.48" gradientUnits="userSpaceOnUse">
<stop stop-color="white"/>
<stop offset="1" stop-color="white" stop-opacity="0"/>
</linearGradient>
<radialGradient id="paint6_radial_233_4403" cx="0" cy="0" r="1" gradientUnits="userSpaceOnUse" gradientTransform="translate(-58.5011 545.408) rotate(90) scale(373.889 261.123)">
<stop stop-color="white" stop-opacity="0"/>
<stop offset="1" stop-color="white"/>
</radialGradient>
<radialGradient id="paint7_radial_233_4403" cx="0" cy="0" r="1" gradientUnits="userSpaceOnUse" gradientTransform="translate(-58.5012 545.409) rotate(90) scale(280.285 195.842)">
<stop stop-color="white" stop-opacity="0"/>
<stop offset="1" stop-color="white"/>
</radialGradient>
<clipPath id="clip0_233_4403">
<rect width="1200" height="461" fill="white"/>
</clipPath>
</defs>
</svg>
