<svg width="220" height="220" viewBox="0 0 220 220" fill="none" xmlns="http://www.w3.org/2000/svg">
<rect width="220" height="220" rx="110" fill="#363C86"/>
<g clip-path="url(#clip0_1294_2865)">
<path d="M80.5928 127.106H74.1936C70.8324 127.041 69.0226 125.231 69.0226 121.935C68.9579 120.836 69.0226 119.672 69.0226 118.315H44.0723V101.509H69.0226C69.0226 100.087 68.9579 98.8589 69.0226 97.5662C69.0226 94.6574 70.8971 92.7829 73.8058 92.7183H80.5928V90.7792C80.5928 84.0568 80.4635 77.3344 80.6574 70.5474C80.6926 66.5196 82.1958 62.6428 84.8852 59.6441C87.5745 56.6453 91.2653 54.7305 95.2656 54.2586C99.0793 53.7415 103.022 54.1294 106.965 54.1294V165.824C100.825 165.565 94.49 166.923 88.8665 163.238C83.2429 159.554 80.7867 155.288 80.6574 149.212C80.5281 143.136 80.5928 135.832 80.5928 129.11V127.106ZM102.893 75.7185C102.44 74.6843 102.247 73.844 101.729 73.3269C99.2732 70.806 96.8169 68.2851 94.2314 65.8935C93.9705 65.5923 93.6479 65.3508 93.2854 65.1852C92.923 65.0197 92.5292 64.934 92.1307 64.934C91.7322 64.934 91.3384 65.0197 90.9759 65.1852C90.6135 65.3508 90.2909 65.5923 90.0299 65.8935C89.7288 66.1544 89.4872 66.477 89.3217 66.8395C89.1561 67.2019 89.0704 67.5958 89.0704 67.9942C89.0704 68.3927 89.1561 68.7865 89.3217 69.149C89.4872 69.5114 89.7288 69.8341 90.0299 70.095C92.4862 72.6805 95.0717 75.2014 97.5926 77.7223C98.5622 78.6918 99.8549 79.015 100.954 78.2394C102.053 77.4637 102.247 76.6234 102.893 75.7185ZM102.893 91.167C102.376 90.0681 102.247 89.1632 101.729 88.5815C99.2732 85.9959 96.6877 83.475 94.1668 81.0188C93.8965 80.7412 93.5725 80.5217 93.2144 80.3739C92.8563 80.226 92.4718 80.1529 92.0844 80.1589C91.6971 80.165 91.315 80.2501 90.9617 80.4091C90.6084 80.5681 90.2914 80.7975 90.0299 81.0834C89.7354 81.3395 89.4981 81.6548 89.3335 82.0087C89.1689 82.3626 89.0807 82.7472 89.0746 83.1374C89.0685 83.5277 89.1447 83.9149 89.2981 84.2737C89.4516 84.6326 89.6789 84.9551 89.9653 85.2203C92.4862 87.8704 95.0717 90.456 97.7219 93.0415C98.6268 93.8818 99.7903 94.2696 100.825 93.5586C101.859 92.8476 102.247 92.0073 102.893 91.167ZM92.6155 141.779C90.8056 141.779 89.836 142.49 89.3189 143.653C89.0827 144.224 89.0305 144.855 89.1695 145.458C89.3085 146.06 89.6319 146.604 90.0946 147.014L97.4633 154.383C97.8572 154.764 98.3172 155.071 98.8207 155.288C99.3803 155.51 99.9988 155.535 100.574 155.359C101.15 155.183 101.649 154.816 101.988 154.318C102.43 153.673 102.633 152.894 102.562 152.116C102.491 151.337 102.151 150.607 101.6 150.052C99.2301 147.553 96.7738 145.097 94.2314 142.684C93.7427 142.3 93.1976 141.995 92.6155 141.779ZM99.7903 140.227C100.695 139.581 101.665 139.128 102.182 138.353C102.507 137.767 102.621 137.087 102.503 136.428C102.385 135.768 102.044 135.17 101.536 134.733C99.0793 132.212 96.5584 129.691 94.0375 127.235C92.6801 125.878 90.9349 125.878 89.7068 127.106C88.4786 128.334 88.4786 130.144 89.9653 131.566C92.4216 134.022 94.8778 136.414 97.4633 138.805C98.199 139.342 98.9773 139.817 99.7903 140.227ZM102.764 122.064C102.376 121.159 102.311 120.383 101.859 119.931C99.1439 117.087 96.4291 114.307 93.585 111.593C93.033 111.12 92.3181 110.883 91.5932 110.931C90.8683 110.98 90.1912 111.31 89.7068 111.851C88.6079 112.95 88.3493 114.695 89.4482 115.729C92.2276 118.638 95.1364 121.418 98.1097 124.003C98.7561 124.585 100.243 124.52 101.083 124.197C101.923 123.874 102.247 122.775 102.764 122.064ZM102.828 106.486C102.44 105.452 102.376 104.547 101.859 104.03C99.2732 101.315 96.5584 98.6004 93.8436 96.0148C93.306 95.5661 92.6157 95.3424 91.9171 95.3906C91.2185 95.4388 90.5655 95.7551 90.0946 96.2734C88.9311 97.3722 88.6725 99.0528 89.7068 100.152C92.4216 102.996 95.201 105.775 98.0451 108.49C98.4171 108.899 98.93 109.153 99.4811 109.201C100.032 109.249 100.581 109.088 101.018 108.749C101.725 108.083 102.334 107.321 102.828 106.486Z" fill="#F8AD39"/>
<path d="M151.242 101.832H176.128V118.573H151.242V122.516C151.177 125.425 149.368 127.364 146.394 127.364H139.413C139.413 128.01 139.349 128.528 139.349 129.045C139.349 135.25 139.219 141.455 139.349 147.66C139.478 152.638 137.539 156.71 133.919 160.006C129.882 163.909 124.473 166.068 118.858 166.018H113.235V54.3231C116.402 54.3231 119.505 54.1938 122.607 54.3231C132.626 54.6463 139.607 61.8857 139.672 71.9046V92.9767H146.523C147.476 92.9463 148.414 93.2174 149.203 93.7513C149.992 94.2852 150.593 95.0547 150.919 95.95C151.089 96.5625 151.197 97.1904 151.242 97.8245V101.832ZM120.539 124.973L120.862 124.714L122.22 124.261L122.931 123.744L130.493 116.182C131.721 114.824 131.786 113.144 130.687 112.045C129.588 110.946 127.778 110.494 126.55 111.657C123.771 114.307 120.991 117.022 118.406 119.931C117.889 120.512 117.824 122.064 118.147 122.904C118.471 123.744 119.699 124.261 120.539 124.973ZM120.474 140.162C121.444 139.775 122.155 139.645 122.543 139.258C125.322 136.543 128.102 133.893 130.752 131.048C131.187 130.473 131.398 129.759 131.345 129.039C131.293 128.319 130.98 127.643 130.466 127.137C129.952 126.63 129.271 126.328 128.551 126.287C127.83 126.246 127.119 126.468 126.55 126.912C123.771 129.562 120.991 132.277 118.471 135.121C117.889 135.767 117.824 137.254 118.147 138.094C118.471 138.934 119.699 139.516 120.474 140.162ZM128.683 64.342C127.714 64.7944 127.003 64.9237 126.486 65.3762C123.771 68.0264 121.056 70.6765 118.471 73.456C117.982 73.9916 117.722 74.6969 117.746 75.4214C117.771 76.1459 118.077 76.8323 118.6 77.3342C118.837 77.626 119.13 77.8668 119.463 78.0419C119.795 78.217 120.16 78.3229 120.534 78.3531C120.909 78.3833 121.286 78.3372 121.642 78.2177C121.999 78.0981 122.327 77.9075 122.607 77.6574C125.387 75.0073 128.102 72.2278 130.752 69.4484C131.176 69.074 131.444 68.5545 131.504 67.9922C131.563 67.4299 131.411 66.8656 131.075 66.4104C130.386 65.6052 129.579 64.908 128.683 64.342ZM131.851 144.429C131.01 143.524 130.429 142.554 129.524 142.037C128.619 141.52 127.132 141.778 126.162 142.748L118.794 150.117C117.436 151.539 117.436 153.219 118.6 154.512C119.763 155.805 121.638 155.805 123.06 154.383C125.516 151.991 127.972 149.6 130.299 147.079C130.881 146.497 131.204 145.527 131.851 144.429ZM131.786 82.9578C131.075 82.1175 130.493 81.0832 129.588 80.5015C129.073 80.2016 128.469 80.0893 127.88 80.1836C127.291 80.2778 126.753 80.5728 126.356 81.0186C123.771 83.6041 121.185 86.125 118.664 88.7105C118.371 88.9828 118.136 89.3128 117.976 89.6799C117.816 90.0469 117.733 90.4431 117.733 90.8436C117.733 91.2441 117.816 91.6403 117.976 92.0073C118.136 92.3744 118.371 92.7044 118.664 92.9767C119.893 94.2048 121.573 94.2048 122.995 92.8474C125.516 90.3911 127.972 87.9349 130.429 85.414C130.952 84.6367 131.406 83.8148 131.786 82.9578ZM120.474 109.459C121.444 109.007 122.22 108.813 122.672 108.361C125.387 105.71 128.102 103.06 130.752 100.281C131.851 99.1173 131.657 97.4367 130.493 96.2732C129.33 95.1097 127.714 95.0451 126.55 96.1439C123.771 98.7941 120.991 101.509 118.471 104.353C117.889 104.935 117.824 106.486 118.147 107.326C118.471 108.167 119.699 108.748 120.474 109.459Z" fill="#F8AD39"/>
<path d="M52.4751 65.8287C52.4299 64.7726 52.4515 63.7148 52.5397 62.6614C52.6044 62.0797 52.8629 61.1101 53.2508 60.9809C53.9804 60.7544 54.7698 60.824 55.4485 61.1748C56.4383 61.8283 57.388 62.5406 58.2925 63.3078L65.7906 69.1899C67.6004 70.6766 67.6004 72.6803 65.7259 74.167C62.4294 76.7525 59.1328 79.3381 55.7716 81.859C55.228 82.2709 54.5772 82.5177 53.8971 82.57C53.696 82.5817 53.4947 82.5485 53.308 82.4727C53.1213 82.397 52.9538 82.2806 52.8176 82.1321C52.6815 81.9836 52.5801 81.8066 52.5209 81.614C52.4616 81.4214 52.446 81.218 52.4751 81.0187C52.5397 79.8552 52.4751 78.7563 52.4751 77.3989H42.133C40.8402 77.3343 40.0646 76.6233 40.0646 75.3305C40 72.8743 40 70.4827 40.0646 68.0264C40.0646 66.5397 40.8402 65.8933 42.4562 65.8933H52.4751V65.8287Z" fill="#F8AD39"/>
<path d="M167.725 142.684H175.094C180.2 142.684 180.2 142.684 180.2 147.661C180.2 148.889 180.265 150.182 180.2 151.41C180.136 152.638 179.489 153.866 177.679 153.931H167.725C167.77 155.116 167.748 156.303 167.66 157.486C167.596 158.068 167.337 158.908 166.885 159.037C166.575 159.152 166.242 159.188 165.915 159.143C165.588 159.098 165.277 158.973 165.01 158.779C161.455 156.193 157.835 153.543 154.345 150.828C152.6 149.471 152.664 147.402 154.41 146.045C157.835 143.265 161.326 140.551 164.816 137.9C165.11 137.711 165.439 137.584 165.784 137.528C166.129 137.473 166.482 137.489 166.82 137.577C167.325 138.048 167.627 138.697 167.66 139.387C167.782 140.482 167.803 141.585 167.725 142.684Z" fill="#F8AD39"/>
</g>
<defs>
<clipPath id="clip0_1294_2865">
<rect width="140.2" height="112.082" fill="white" transform="translate(40 54)"/>
</clipPath>
</defs>
</svg>
