<svg width="220" height="220" viewBox="0 0 220 220" fill="none" xmlns="http://www.w3.org/2000/svg">
<rect width="220" height="220" rx="110" fill="#363C86"/>
<g clip-path="url(#clip0_1294_2830)">
<path d="M132.472 84.033C126.428 79.3017 119.117 76.4682 111.463 75.8904C103.81 75.3127 96.1563 77.0167 89.4705 80.7871C82.7847 84.5575 77.3666 90.2251 73.9008 97.0738C70.435 103.922 69.0771 111.645 69.9986 119.265C70.9201 126.885 74.0797 134.061 79.0781 139.886C84.0765 145.711 90.6895 149.924 98.0813 151.992C105.473 154.06 113.312 153.89 120.608 151.505C127.903 149.119 134.328 144.625 139.07 138.589C142.223 134.575 144.554 129.979 145.929 125.064C147.304 120.148 147.697 115.01 147.084 109.943C146.471 104.876 144.865 99.9789 142.358 95.533C139.851 91.0871 136.491 87.1792 132.472 84.033ZM135.686 107.293C136.257 107.216 136.838 107.259 137.392 107.42C137.945 107.58 138.459 107.854 138.901 108.224C139.799 109.001 140.373 110.088 140.508 111.269C140.574 111.839 140.527 112.418 140.367 112.97C140.207 113.522 139.939 114.036 139.577 114.483C138.78 115.357 137.703 115.925 136.532 116.09C135.373 116.157 134.229 115.796 133.318 115.075C133.296 115.075 133.274 115.066 133.258 115.05C133.242 115.034 133.234 115.013 133.234 114.99C132.544 114.447 132.036 113.706 131.779 112.866C131.521 112.027 131.526 111.128 131.793 110.292C132.059 109.455 132.575 108.72 133.271 108.184C133.967 107.648 134.809 107.337 135.686 107.293ZM129.596 87.67C130.269 88.1614 130.835 88.7839 131.261 89.4999C131.687 90.216 131.964 91.0108 132.074 91.8365C132.185 92.6622 132.127 93.5017 131.905 94.3046C131.682 95.1074 131.3 95.857 130.78 96.5081C130.26 97.1592 129.614 97.6983 128.881 98.0931C128.147 98.488 127.341 98.7302 126.511 98.8054C125.682 98.8805 124.845 98.787 124.053 98.5305C123.26 98.2739 122.528 97.8596 121.899 97.3125C121.258 96.8093 120.722 96.184 120.323 95.4726C119.924 94.7613 119.671 93.978 119.576 93.168C119.482 92.358 119.549 91.5373 119.773 90.7533C119.998 89.9694 120.376 89.2377 120.884 88.6004C121.95 87.3725 123.441 86.5938 125.057 86.4211C126.674 86.2485 128.296 86.6947 129.596 87.67ZM105.406 82.4259C105.995 82.3797 106.587 82.4505 107.149 82.6341C107.71 82.8177 108.23 83.1105 108.678 83.4956C109.126 83.8808 109.494 84.3507 109.76 84.8784C110.025 85.4061 110.184 85.9812 110.227 86.5704C110.321 87.7467 109.947 88.9125 109.187 89.815C108.427 90.7176 107.342 91.2841 106.167 91.3917C105.59 91.4519 105.007 91.3928 104.454 91.2182C103.901 91.0436 103.39 90.7572 102.953 90.3767C102.449 90.0136 102.029 89.5461 101.723 89.006C101.416 88.4658 101.23 87.8659 101.177 87.2471C101.1 86.6697 101.151 86.0826 101.327 85.5271C101.502 84.9717 101.797 84.4616 102.192 84.033C103.067 83.1726 104.192 82.6102 105.406 82.4259ZM82.8221 102.049C82.1707 101.553 81.626 100.931 81.2207 100.219C80.8153 99.508 80.5575 98.7221 80.4627 97.9088C80.368 97.0956 80.4382 96.2715 80.6692 95.486C80.9002 94.7005 81.2872 93.9696 81.8071 93.3371C82.3164 92.7016 82.9464 92.1732 83.6607 91.7822C84.3751 91.3912 85.1598 91.1454 85.9695 91.0589C86.7793 90.9724 87.5982 91.047 88.379 91.2783C89.1598 91.5096 89.8872 91.8931 90.5192 92.4067C91.1519 92.9084 91.6785 93.5309 92.0685 94.238C92.4584 94.9452 92.7038 95.7228 92.7903 96.5256C92.8769 97.3285 92.803 98.1405 92.5728 98.9145C92.3426 99.6885 91.9608 100.409 91.4496 101.034C90.9613 101.683 90.3465 102.226 89.6424 102.63C88.9382 103.035 88.1594 103.292 87.353 103.387C86.5465 103.482 85.7292 103.412 84.9504 103.182C84.1717 102.952 83.4476 102.567 82.8221 102.049ZM81.4688 121.672C80.2816 121.753 79.1067 121.391 78.1701 120.657H78.0855C77.1868 119.88 76.6132 118.793 76.4784 117.612C76.413 117.035 76.4696 116.451 76.6444 115.897C76.8193 115.344 77.1085 114.833 77.4934 114.398C78.2596 113.53 79.3083 112.961 80.4538 112.791C81.0302 112.736 81.6119 112.797 82.1641 112.972C82.7163 113.146 83.2278 113.43 83.6679 113.806C84.5305 114.542 85.1007 115.562 85.275 116.682C85.3977 117.265 85.3932 117.867 85.262 118.448C85.1308 119.029 84.8759 119.575 84.5147 120.049C84.1535 120.522 83.6944 120.913 83.1688 121.193C82.6432 121.473 82.0633 121.636 81.4688 121.672ZM87.4742 141.296C86.8387 140.786 86.3103 140.156 85.9193 139.442C85.5283 138.728 85.2825 137.943 85.196 137.133C85.1095 136.323 85.1841 135.505 85.4154 134.724C85.6467 133.943 86.0302 133.216 86.5438 132.584C87.0352 131.911 87.6576 131.344 88.3737 130.919C89.0897 130.493 89.8845 130.216 90.7102 130.106C91.5359 129.995 92.3755 130.053 93.1783 130.275C93.9812 130.498 94.7307 130.88 95.3818 131.4C96.0329 131.92 96.5721 132.566 96.9669 133.299C97.3617 134.033 97.604 134.839 97.6791 135.669C97.7543 136.498 97.6608 137.335 97.4042 138.127C97.1476 138.92 96.7333 139.652 96.1862 140.281C95.1325 141.521 93.6472 142.316 92.0302 142.505C90.4132 142.693 88.785 142.261 87.4742 141.296ZM97.9625 128.101C95.2758 125.992 93.2753 123.134 92.2142 119.888C91.153 116.642 91.0791 113.154 92.0016 109.865C92.9242 106.577 94.8018 103.637 97.3966 101.416C99.9914 99.196 103.187 97.7955 106.578 97.3924C109.969 96.9892 113.404 97.6015 116.447 99.1516C119.49 100.702 122.005 103.12 123.673 106.1C125.34 109.081 126.086 112.489 125.816 115.893C125.545 119.298 124.271 122.545 122.153 125.225C119.322 128.807 115.186 131.122 110.652 131.661C106.118 132.2 101.555 130.92 97.9625 128.101ZM111.749 146.54C110.588 146.623 109.438 146.26 108.535 145.525C108.49 145.525 108.447 145.507 108.416 145.475C108.384 145.443 108.366 145.4 108.366 145.356C107.486 144.599 106.914 143.546 106.759 142.395C106.699 141.818 106.758 141.235 106.933 140.683C107.107 140.13 107.394 139.619 107.774 139.181C108.531 138.301 109.584 137.729 110.734 137.574C111.312 137.491 111.901 137.54 112.457 137.715C113.014 137.891 113.523 138.19 113.949 138.589C114.849 139.329 115.425 140.391 115.556 141.549C115.632 142.127 115.581 142.714 115.406 143.269C115.23 143.825 114.935 144.335 114.541 144.763C114.26 145.269 113.858 145.696 113.371 146.006C112.883 146.316 112.326 146.5 111.749 146.54ZM126.721 136.559C126.085 136.05 125.557 135.42 125.166 134.705C124.775 133.991 124.529 133.206 124.442 132.397C124.356 131.587 124.431 130.768 124.662 129.987C124.893 129.206 125.277 128.479 125.79 127.847C126.292 127.214 126.914 126.687 127.622 126.298C128.329 125.908 129.106 125.662 129.909 125.576C130.712 125.489 131.524 125.563 132.298 125.793C133.072 126.023 133.793 126.405 134.418 126.916C135.066 127.405 135.609 128.02 136.014 128.724C136.418 129.428 136.676 130.207 136.771 131.013C136.866 131.82 136.796 132.637 136.566 133.416C136.336 134.194 135.95 134.918 135.433 135.544C134.929 136.186 134.304 136.721 133.593 137.12C132.881 137.519 132.098 137.773 131.288 137.867C130.478 137.961 129.657 137.894 128.874 137.67C128.09 137.445 127.358 137.068 126.721 136.559Z" fill="#F8AD39"/>
<path d="M163.768 95.1131C163.23 94.7167 162.843 94.1504 162.668 93.506C159.225 84.0683 153.292 75.7383 145.498 69.3999C137.134 62.5392 126.976 58.2238 116.232 56.9662C115.639 56.909 115.068 56.7102 114.567 56.3863C114.067 56.0625 113.652 55.6232 113.356 55.1054C113.059 54.6652 112.907 54.1427 112.922 53.6116C112.937 53.0805 113.119 52.5675 113.441 52.145L124.86 37.5968C125.196 37.204 125.637 36.9156 126.132 36.7657C126.626 36.6158 127.153 36.6107 127.651 36.7509C138.945 39.2876 149.506 44.3803 158.524 51.6375C167.402 58.5828 174.577 67.4643 179.5 77.6045C179.755 78.0528 179.867 78.5682 179.822 79.082C179.777 79.5957 179.576 80.0835 179.246 80.4803L167.828 94.9439C167.512 95.3869 167.061 95.7165 166.543 95.884C166.026 96.0516 165.468 96.0482 164.952 95.8744C164.527 95.6708 164.129 95.4151 163.768 95.1131Z" fill="#F8AD39"/>
<path d="M174.341 90.715L169.858 96.4666C169.196 97.2437 168.332 97.8214 167.361 98.1351C166.39 98.4488 165.351 98.4861 164.36 98.2428C163.569 97.9664 162.827 97.5668 162.161 97.0587C161.251 96.3569 160.55 95.4214 160.131 94.352C156.816 85.354 151.15 77.4093 143.722 71.3455C135.766 64.7838 126.062 60.6964 115.809 59.5885C114.821 59.468 113.876 59.1136 113.052 58.5546C112.228 57.9956 111.55 57.2482 111.073 56.3743C110.551 55.486 110.312 54.46 110.388 53.4326C110.463 52.4052 110.85 51.4252 111.495 50.6227L115.978 44.9556C101.027 43.4424 85.9884 46.8261 73.1261 54.5977C60.2638 62.3692 50.2736 74.1081 44.659 88.0477C39.0443 101.987 38.109 117.373 41.9937 131.89C45.8785 146.407 54.3731 159.27 66.1993 168.542C78.0254 177.815 92.5433 182.995 107.568 183.304C122.593 183.613 137.311 179.034 149.509 170.256C161.706 161.478 170.722 148.975 175.201 134.63C179.679 120.285 179.377 104.874 174.341 90.715ZM80.7073 150.008C73.567 144.41 68.248 136.821 65.4236 128.199C62.5992 119.577 62.3966 110.311 64.8412 101.574C67.2859 92.8374 72.2679 85.0222 79.1567 79.1183C86.0454 73.2144 94.531 69.4872 103.539 68.4085C112.547 67.3299 121.673 68.9484 129.761 73.0591C137.849 77.1698 144.535 83.5878 148.973 91.5007C153.412 99.4135 155.402 108.465 154.693 117.51C153.984 126.555 150.607 135.186 144.99 142.311C137.476 151.841 126.49 158.003 114.44 159.446C102.39 160.889 90.2589 157.495 80.7073 150.008Z" fill="#F8AD39"/>
</g>
<defs>
<clipPath id="clip0_1294_2830">
<rect width="140.238" height="146.667" fill="white" transform="translate(39.6001 36.6665)"/>
</clipPath>
</defs>
</svg>
