<svg width="220" height="220" viewBox="0 0 220 220" fill="none" xmlns="http://www.w3.org/2000/svg">
<rect width="220" height="220" rx="110" fill="#363C86"/>
<g clip-path="url(#clip0_1294_2878)">
<path d="M90.5043 53.7372V47.111C90.5043 46.3029 89.8579 46.5454 89.373 46.5454H69.2521V40H143.756V46.5454H122.504V53.7372H135.837C136.22 53.7149 136.603 53.7838 136.954 53.9384C137.305 54.0929 137.615 54.3286 137.857 54.6261L148.12 66.9087C148.334 67.2368 148.639 67.4956 148.998 67.6534C149.356 67.8112 149.753 67.8613 150.14 67.7976H159.271V84.5246H164.362V73.2924C167.109 73.2924 169.776 73.1308 172.362 73.2924C173.146 73.4291 173.879 73.77 174.489 74.2807C175.099 74.7914 175.564 75.4539 175.836 76.2015C176.997 78.4889 177.892 80.9019 178.503 83.3933C180.862 95.1392 180.752 107.247 178.18 118.948C177.634 121.102 176.791 123.169 175.675 125.09C175.231 126.077 174.479 126.894 173.533 127.418C172.586 127.943 171.495 128.146 170.422 127.999C168.483 127.918 166.463 127.999 164.362 127.999V116.605H159.352V133.332H154.099C156.928 121.857 154.746 111.514 146.423 102.868C143.553 99.8176 140.063 97.4174 136.188 95.8284C132.314 94.2394 128.143 93.4986 123.958 93.6558C113.858 93.8174 105.615 98.1002 99.6355 106.262C93.6558 114.423 92.2821 123.554 94.8679 133.332H76.8479C76.5309 133.354 76.2138 133.291 75.9296 133.149C75.6453 133.006 75.4044 132.791 75.2318 132.524L64.6461 120.16C64.2482 119.728 63.6976 119.467 63.1108 119.433H53.7372V104.322H46.5454V119.352H40V67.9592H46.5454V82.8277H53.6564V67.7168C56.5654 67.7168 59.232 67.636 61.9795 67.7976C62.6575 67.8518 63.3377 67.7229 63.949 67.4244C64.5602 67.1259 65.08 66.6687 65.4542 66.1006C68.6056 62.2219 71.9187 58.424 75.151 54.5452C75.3683 54.2606 75.6501 54.0315 75.9732 53.877C76.2964 53.7225 76.6515 53.6469 77.0096 53.6564H90.5043V53.7372Z" fill="#F8AD39"/>
<path d="M145.776 141.574L150.705 146.584L152.322 144.322L179.796 171.796L171.715 179.796L144.483 152.483L146.584 150.867C144.726 149.089 143.19 147.473 141.494 145.776C134.544 151.109 126.706 152.968 118.059 150.948C111.512 149.478 105.782 145.542 102.06 139.958C98.2211 134.531 96.5002 127.887 97.2213 121.279C97.9424 114.671 101.056 108.554 105.974 104.083C110.893 99.6114 117.277 97.0934 123.924 97.0035C130.571 96.9136 137.021 99.258 142.059 103.595C147.478 108.211 150.894 114.75 151.587 121.834C152.281 128.918 150.197 135.995 145.776 141.574ZM124.282 145.938C129.982 146.002 135.475 143.799 139.552 139.814C143.628 135.828 145.954 130.386 146.019 124.686C146.083 118.985 143.88 113.492 139.894 109.416C135.909 105.339 130.467 103.013 124.766 102.948C112.888 102.868 103.029 112.322 102.949 123.958C102.884 126.808 103.387 129.642 104.429 132.295C105.47 134.949 107.028 137.369 109.014 139.414C110.999 141.46 113.371 143.09 115.992 144.21C118.614 145.33 121.431 145.917 124.282 145.938Z" fill="#F8AD39"/>
<path d="M108.12 124.363H105.534C104.646 115.959 112.807 105.05 124.362 105.454V108.12C120.058 108.207 115.951 109.943 112.888 112.969C109.889 116.01 108.181 120.092 108.12 124.363Z" fill="#F8AD39"/>
</g>
<defs>
<clipPath id="clip0_1294_2878">
<rect width="140.2" height="139.796" fill="white" transform="translate(40 40)"/>
</clipPath>
</defs>
</svg>
