<svg width="220" height="220" viewBox="0 0 220 220" fill="none" xmlns="http://www.w3.org/2000/svg">
<rect width="220" height="220" rx="110" fill="#363C86"/>
<g clip-path="url(#clip0_1294_2842)">
<path d="M48.3266 122.627L39.9971 130.957L49.8136 140.773L58.1431 132.444L48.3266 122.627Z" fill="#F8AD39"/>
<path d="M173.045 107.561C183.018 96.7205 182.44 79.3762 171.889 69.1864L156.424 54.5159C151.219 49.5824 144.29 46.8809 137.119 46.989C129.948 47.097 123.104 50.006 118.049 55.0941L113.424 60.0806L123.108 69.7645L127.733 64.778C130.219 62.2729 133.591 60.8461 137.12 60.8055C140.649 60.7649 144.052 62.1139 146.595 64.5612L162.205 79.2316C167.409 84.2181 167.842 92.8903 162.783 98.0936L140.236 122.592C127.517 137.046 128.095 159.016 141.97 172.313L151.654 162.34C147.568 158.378 145.179 152.984 144.99 147.296C144.801 141.607 146.828 136.067 150.642 131.843L173.045 107.561Z" fill="#F8AD39"/>
<path d="M94.1288 147.814L137.706 104.236L137.923 104.453C138.774 105.283 139.915 105.747 141.103 105.747C142.291 105.747 143.432 105.283 144.283 104.453C145.113 103.603 145.577 102.461 145.577 101.273C145.577 100.085 145.113 98.9438 144.283 98.0934L102.223 55.8889C101.379 55.0456 100.236 54.5718 99.043 54.5718C97.8504 54.5718 96.7066 55.0456 95.8632 55.8889C95.0199 56.7322 94.5461 57.876 94.5461 59.0687C94.5461 60.2613 95.0199 61.4051 95.8632 62.2485L96.6582 62.9712L53.0806 106.766L52.2856 105.971C51.4352 105.141 50.294 104.676 49.1058 104.676C47.9176 104.676 46.7764 105.141 45.926 105.971C45.0915 106.833 44.625 107.986 44.625 109.187C44.625 110.387 45.0915 111.54 45.926 112.402L88.2028 154.607C89.0532 155.437 90.1944 155.901 91.3826 155.901C92.5709 155.901 93.712 155.437 94.5624 154.607C95.2405 153.582 95.565 152.364 95.4868 151.138C95.4085 149.911 94.9316 148.744 94.1288 147.814ZM87.1911 138.419L80.2533 131.481L120.796 90.9389L127.733 97.8766L87.1911 138.419Z" fill="#F8AD39"/>
</g>
<defs>
<clipPath id="clip0_1294_2842">
<rect width="140.2" height="125.313" fill="white" transform="translate(40 47)"/>
</clipPath>
</defs>
</svg>
