<svg width="220" height="220" viewBox="0 0 220 220" fill="none" xmlns="http://www.w3.org/2000/svg">
<rect width="220" height="220" rx="110" fill="#363C86"/>
<g clip-path="url(#clip0_1294_2821)">
<path d="M81.1417 86.754C81.36 86.1197 81.7063 85.537 82.1592 85.042C82.612 84.547 83.1618 84.1503 83.7742 83.8766C84.3867 83.5977 85.0485 83.4433 85.7211 83.4223C86.3937 83.4013 87.0638 83.5141 87.6925 83.7541L95.0392 86.4479C96.9658 83.4689 99.2707 80.7525 101.896 78.3665L98.4065 70.6525C98.1053 70.059 97.9333 69.4084 97.9016 68.7436C97.8699 68.0788 97.9794 67.4149 98.2228 66.7954C98.4513 66.1571 98.8082 65.5725 99.2715 65.0776C99.7349 64.5827 100.295 64.188 100.917 63.918L110.529 59.5099C111.127 59.2229 111.776 59.0588 112.438 59.0273C113.101 58.9957 113.763 59.0974 114.386 59.3263C115.027 59.5481 115.615 59.9026 116.111 60.3667C116.607 60.8309 116.999 61.3942 117.263 62.0201L120.508 68.9995C123.994 68.3166 127.555 68.0902 131.099 68.326L134.099 60.3058C134.297 59.6777 134.63 59.1004 135.074 58.614C135.518 58.1276 136.063 57.7439 136.671 57.4896C137.279 57.1968 137.942 57.0347 138.617 57.0136C139.292 56.9925 139.963 57.1129 140.589 57.3671L150.446 60.9793C151.082 61.2109 151.665 61.569 152.16 62.032C152.654 62.4949 153.05 63.0532 153.323 63.6731C153.632 64.2767 153.802 64.941 153.824 65.6185C153.845 66.2959 153.716 66.9697 153.446 67.5913L150.752 74.8768C153.75 76.8268 156.486 79.1517 158.895 81.795L166.547 78.2441C167.16 77.9652 167.822 77.8108 168.494 77.7898C169.167 77.7688 169.837 77.8816 170.466 78.1216C171.092 78.3406 171.666 78.6878 172.151 79.1411C172.636 79.5944 173.021 80.1438 173.282 80.7542L177.751 90.4274C178.028 91.0295 178.182 91.681 178.203 92.3435C178.224 93.006 178.112 93.666 177.874 94.2844C177.646 94.9138 177.296 95.492 176.844 95.9858C176.393 96.4796 175.848 96.8793 175.241 97.1619L168.2 100.345C168.873 103.875 169.12 107.472 168.935 111.059L176.894 113.998C177.531 114.192 178.119 114.523 178.616 114.967C179.113 115.411 179.507 115.958 179.771 116.57C180.05 117.182 180.205 117.844 180.226 118.516C180.247 119.189 180.134 119.859 179.894 120.488L176.221 130.406C175.979 131.029 175.617 131.599 175.154 132.082C174.692 132.566 174.139 132.953 173.527 133.222C172.929 133.509 172.279 133.673 171.617 133.705C170.954 133.736 170.292 133.635 169.67 133.406L162.323 130.651C160.375 133.631 158.049 136.348 155.405 138.732L158.956 146.446C159.257 147.04 159.429 147.69 159.461 148.355C159.492 149.02 159.383 149.684 159.139 150.303C158.911 150.942 158.554 151.526 158.091 152.021C157.627 152.516 157.067 152.911 156.446 153.181L146.834 157.589C146.232 157.866 145.58 158.019 144.918 158.041C144.255 158.062 143.595 157.95 142.977 157.711C142.329 157.504 141.733 157.162 141.227 156.708C140.72 156.255 140.315 155.699 140.038 155.079L136.854 148.038C133.35 148.739 129.769 148.986 126.202 148.773L123.263 156.732C123.055 157.371 122.712 157.959 122.258 158.455C121.804 158.952 121.249 159.345 120.63 159.609C120.037 159.916 119.383 160.087 118.716 160.108C118.048 160.129 117.384 160.001 116.773 159.732L106.794 156.119C105.545 155.625 104.536 154.668 103.977 153.447C103.418 152.226 103.352 150.837 103.794 149.569L106.61 142.222C105.613 141.604 104.652 140.93 103.733 140.201L111.018 136.528C112.377 135.835 113.916 135.579 115.426 135.793L118.12 136.957C121.781 138.308 125.669 138.931 129.569 138.793C135.585 138.588 141.406 136.607 146.298 133.098C151.19 129.59 154.934 124.712 157.058 119.08C158.443 115.353 159.075 111.389 158.917 107.417C158.759 103.444 157.815 99.5425 156.139 95.9374C150.997 84.7337 140.16 77.9992 127.732 78.2441C121.115 78.4451 114.746 80.8119 109.604 84.9813C104.461 89.1506 100.829 94.8923 99.2636 101.325C98.2228 103.162 97.2432 104.631 96.2637 105.06L88.3659 108.978C88.3659 108.06 88.4272 107.08 88.4884 106.162L80.4682 103.101C79.8307 102.906 79.2431 102.576 78.7462 102.132C78.2493 101.688 77.8551 101.141 77.5907 100.529C77.3119 99.9167 77.1575 99.2549 77.1365 98.5823C77.1154 97.9097 77.2282 97.2396 77.4683 96.6109L81.1417 86.754ZM60.9382 163.16C55.1832 163.527 49.1834 161.017 44.4693 156.548C68.1012 156.609 63.632 127.896 40 137.63C43.2448 125.875 53.7139 121.222 65.0401 123.671C70.9787 124.957 74.5296 125.998 80.2233 123.426L100.304 113.57C110.957 108.488 108.937 89.4478 126.936 88.3458C132.691 87.9785 138.691 90.4886 143.405 94.8967C119.773 94.8967 124.242 123.61 147.874 113.876C144.63 125.63 134.161 130.283 122.834 127.834C117.875 126.794 114.079 124.59 106.855 128.079L87.8762 137.63C84.1416 139.65 82.8559 140.936 80.7743 144.61C75.6316 153.609 72.999 162.425 60.9382 163.16Z" fill="#F8AD39"/>
</g>
<defs>
<clipPath id="clip0_1294_2821">
<rect width="140.2" height="106.16" fill="white" transform="translate(40 57)"/>
</clipPath>
</defs>
</svg>
