<svg width="220" height="220" viewBox="0 0 220 220" fill="none" xmlns="http://www.w3.org/2000/svg">
<rect width="220" height="220" rx="110" fill="#363C86"/>
<g clip-path="url(#clip0_1294_2854)">
<path d="M110.059 120.706C115.491 120.706 119.894 116.303 119.894 110.872C119.894 105.441 115.491 101.038 110.059 101.038C104.628 101.038 100.225 105.441 100.225 110.872C100.225 116.303 104.628 120.706 110.059 120.706Z" fill="#F8AD39"/>
<path d="M160.856 145.089C159.971 144.533 159.323 143.669 159.038 142.663C158.753 141.657 158.851 140.582 159.312 139.644C160.45 137.612 162.807 137.287 164.839 138.018L172.723 142.407C177.207 133.854 179.759 124.421 180.2 114.773H171.097C170.062 114.773 169.07 114.362 168.339 113.631C167.607 112.899 167.196 111.907 167.196 110.872C167.196 109.837 167.607 108.845 168.339 108.114C169.07 107.382 170.062 106.971 171.097 106.971H180.2C179.715 97.3699 177.281 87.9681 173.048 79.3373L165.245 83.7261C164.779 83.9949 164.262 84.1662 163.728 84.2297C163.193 84.2932 162.651 84.2476 162.134 84.0956C161.618 83.9437 161.137 83.6885 160.722 83.3456C160.307 83.0028 159.965 82.5792 159.719 82.1006C159.448 81.6452 159.274 81.1395 159.205 80.6143C159.137 80.0892 159.176 79.5556 159.321 79.0461C159.465 78.5367 159.712 78.0619 160.046 77.6509C160.38 77.2398 160.794 76.901 161.263 76.6552L169.147 72.2663C164.026 64.0575 156.955 57.3117 149.072 51.7849L144.764 59.6686C144.182 60.5477 143.309 61.193 142.297 61.4904C141.286 61.7878 140.202 61.7183 139.237 61.2941C138.358 60.7125 137.713 59.8388 137.415 58.8275C137.118 57.8163 137.188 56.7324 137.612 55.7674L142.001 47.8837C133.473 43.4084 124.068 40.8561 114.448 40.4064V49.0216C114.471 49.5507 114.384 50.0788 114.192 50.5724C114 51.066 113.708 51.5143 113.333 51.8888C112.959 52.2633 112.51 52.5559 112.017 52.7479C111.523 52.9399 110.995 53.0271 110.466 53.0041C109.94 53.0281 109.415 52.9409 108.926 52.7481C108.436 52.5554 107.992 52.2615 107.624 51.8855C107.256 51.5096 106.971 51.0602 106.789 50.5667C106.606 50.0732 106.53 49.5466 106.565 49.0216V40C97.0009 40.4972 87.6333 42.9013 79.0122 47.071L83.3198 54.9547C83.6168 55.4204 83.8158 55.9418 83.9045 56.4871C83.9933 57.0323 83.9699 57.5899 83.8359 58.1258C83.7018 58.6617 83.46 59.1646 83.125 59.6039C82.7901 60.0432 82.3691 60.4096 81.8878 60.6806C81.4064 60.9517 80.8749 61.1218 80.3256 61.1806C79.7764 61.2393 79.2209 61.1855 78.6931 61.0223C78.1654 60.8591 77.6764 60.59 77.2562 60.2315C76.8359 59.873 76.4931 59.4326 76.2488 58.9372L71.8599 51.0534C63.6511 56.1738 56.9053 63.2448 51.3786 71.1285L59.2623 75.4361C61.2941 76.6552 61.6192 79.0122 60.8878 80.9628C60.3053 81.8407 59.4264 82.4797 58.4117 82.7633C57.397 83.0468 56.3142 82.9558 55.361 82.507L47.4773 78.1994C43.002 86.727 40.4497 96.1317 40 105.752H49.0216C49.5867 105.67 50.1627 105.712 50.7105 105.872C51.2584 106.033 51.7652 106.31 52.1967 106.684C52.6283 107.057 52.9744 107.52 53.2116 108.039C53.4488 108.558 53.5715 109.123 53.5715 109.694C53.5715 110.265 53.4488 110.829 53.2116 111.348C52.9744 111.868 52.6283 112.33 52.1967 112.704C51.7652 113.077 51.2584 113.354 50.7105 113.515C50.1627 113.676 49.5867 113.717 49.0216 113.635H40C40.508 123.197 42.9116 132.563 47.071 141.188L54.9547 136.88C56.9053 135.661 59.2623 136.474 60.4814 138.424C61.0079 139.362 61.1409 140.471 60.8515 141.507C60.562 142.543 59.8736 143.422 58.9372 143.951L51.0534 148.259C56.1738 156.549 63.2448 163.213 71.1285 168.74L75.4361 160.856C76.0185 159.979 76.8974 159.34 77.9121 159.056C78.9268 158.772 80.0096 158.863 80.9628 159.312C82.9134 160.45 83.3198 162.807 82.507 164.839L78.1994 172.723C86.727 177.198 96.1317 179.75 105.752 180.2V171.097C105.888 170.149 106.362 169.282 107.086 168.655C107.81 168.027 108.736 167.682 109.694 167.682C110.652 167.682 111.577 168.027 112.301 168.655C113.025 169.282 113.499 170.149 113.635 171.097V180.931C123.209 180.502 132.59 178.094 141.188 173.861L136.88 165.977C135.661 164.026 136.474 161.669 138.424 160.45C138.894 160.193 139.409 160.03 139.942 159.973C140.474 159.915 141.012 159.963 141.526 160.114C142.039 160.265 142.518 160.516 142.934 160.853C143.35 161.19 143.696 161.605 143.951 162.076L148.259 169.959C156.549 164.839 163.213 157.768 168.74 149.884L160.856 145.089ZM156.955 120.706C155.702 126.588 153.419 132.201 150.209 137.287C141.188 128.59 130.947 124.283 127.371 128.184C123.795 132.085 127.777 142.407 136.474 151.022C131.424 154.3 125.798 156.589 119.894 157.768C119.569 145.089 115.18 135.255 110.059 135.255C104.939 135.255 100.225 145.089 100.225 157.768C94.3738 156.5 88.7899 154.217 83.7261 151.022C92.3413 142.001 96.3238 131.76 92.7477 128.184C89.1716 124.608 79.0122 128.59 69.9093 137.287C66.5681 132.279 64.299 126.634 63.2448 120.706C75.8424 120.3 86.0831 115.992 86.0831 110.872C86.0831 105.752 75.8424 101.038 63.2448 101.038C64.3606 95.2546 66.627 89.7545 69.9093 84.864C79.0122 93.5605 89.2529 97.4617 92.7477 93.9668C96.2425 90.472 92.3413 79.7437 83.7261 71.1285C88.7899 67.934 94.3738 65.6509 100.225 64.3826C100.631 76.9803 104.939 86.8959 110.059 86.8959C115.18 86.8959 119.894 76.6552 119.894 64.0575C125.782 65.2442 131.402 67.5033 136.474 70.7221C127.777 79.7437 123.876 89.9843 127.371 93.5605C130.866 97.1366 141.188 93.1541 150.209 84.4576C153.47 89.3687 155.76 94.8589 156.955 100.631C144.358 101.038 134.523 105.345 134.523 110.466C134.523 115.586 144.764 120.706 156.955 120.706Z" fill="#F8AD39"/>
</g>
<defs>
<clipPath id="clip0_1294_2854">
<rect width="140.2" height="140.931" fill="white" transform="translate(40 40)"/>
</clipPath>
</defs>
</svg>
