<svg width="40" height="40" viewBox="0 0 40 40" fill="none" xmlns="http://www.w3.org/2000/svg">
<rect width="40" height="40" rx="20" fill="#2A317F"/>
<g clip-path="url(#clip0_515_16052)">
<path d="M24.0837 15.2787C22.9848 14.4185 21.6556 13.9033 20.264 13.7983C18.8723 13.6932 17.4808 14.003 16.2652 14.6886C15.0496 15.3741 14.0645 16.4046 13.4344 17.6498C12.8042 18.895 12.5573 20.299 12.7249 21.6845C12.8924 23.07 13.4669 24.3747 14.3757 25.4338C15.2845 26.4929 16.4869 27.2589 17.8308 27.6349C19.1748 28.0109 20.6001 27.98 21.9265 27.5463C23.253 27.1126 24.4211 26.2954 25.2833 25.198C25.8566 24.4682 26.2804 23.6326 26.5305 22.7389C26.7805 21.8452 26.8518 20.9109 26.7404 19.9896C26.629 19.0683 26.337 18.178 25.8812 17.3696C25.4253 16.5613 24.8145 15.8508 24.0837 15.2787ZM24.6681 19.5079C24.7719 19.4939 24.8775 19.5017 24.9782 19.5308C25.0788 19.56 25.1722 19.6098 25.2525 19.677C25.4159 19.8184 25.5202 20.016 25.5447 20.2307C25.5569 20.3344 25.5482 20.4396 25.5191 20.5399C25.4901 20.6403 25.4412 20.7338 25.3755 20.8151C25.2307 20.974 25.0349 21.0773 24.8219 21.1072C24.6111 21.1195 24.4031 21.0538 24.2375 20.9227C24.2334 20.9227 24.2295 20.9211 24.2266 20.9182C24.2238 20.9153 24.2221 20.9114 24.2221 20.9073C24.0967 20.8085 24.0044 20.6738 23.9576 20.5211C23.9108 20.3685 23.9117 20.2052 23.9602 20.053C24.0087 19.9009 24.1024 19.7672 24.2289 19.6698C24.3554 19.5724 24.5087 19.5159 24.6681 19.5079ZM23.5609 15.94C23.6832 16.0293 23.7861 16.1425 23.8636 16.2727C23.941 16.4029 23.9913 16.5474 24.0114 16.6975C24.0315 16.8477 24.021 17.0003 23.9805 17.1463C23.9401 17.2923 23.8705 17.4285 23.776 17.5469C23.6816 17.6653 23.5641 17.7633 23.4307 17.8351C23.2973 17.9069 23.1508 17.9509 22.9999 17.9646C22.8491 17.9783 22.697 17.9613 22.5529 17.9146C22.4088 17.868 22.2756 17.7926 22.1614 17.6932C22.0447 17.6017 21.9473 17.488 21.8748 17.3587C21.8023 17.2293 21.7562 17.0869 21.739 16.9396C21.7218 16.7924 21.734 16.6431 21.7748 16.5006C21.8157 16.3581 21.8843 16.225 21.9769 16.1092C22.1706 15.8859 22.4417 15.7443 22.7356 15.7129C23.0295 15.6815 23.3244 15.7627 23.5609 15.94ZM19.1626 14.9865C19.2696 14.9781 19.3774 14.991 19.4795 15.0244C19.5816 15.0578 19.6761 15.111 19.7575 15.181C19.839 15.2511 19.9058 15.3365 19.9541 15.4324C20.0025 15.5284 20.0314 15.6329 20.0391 15.7401C20.0562 15.9539 19.9883 16.1659 19.8501 16.33C19.7119 16.4941 19.5146 16.5971 19.301 16.6167C19.1961 16.6276 19.0901 16.6169 18.9896 16.5851C18.8891 16.5534 18.7961 16.5013 18.7166 16.4321C18.6249 16.3661 18.5487 16.2811 18.4929 16.1829C18.4372 16.0847 18.4033 15.9756 18.3936 15.8631C18.3797 15.7581 18.389 15.6514 18.4209 15.5504C18.4528 15.4494 18.5065 15.3567 18.5782 15.2787C18.7374 15.1223 18.9419 15.02 19.1626 14.9865ZM15.0564 18.5544C14.938 18.4642 14.839 18.351 14.7653 18.2217C14.6916 18.0924 14.6447 17.9495 14.6275 17.8016C14.6102 17.6537 14.623 17.5039 14.665 17.3611C14.707 17.2183 14.7774 17.0854 14.8719 16.9704C14.9645 16.8548 15.079 16.7588 15.2089 16.6877C15.3388 16.6166 15.4815 16.5719 15.6287 16.5562C15.7759 16.5404 15.9248 16.554 16.0668 16.5961C16.2087 16.6381 16.341 16.7078 16.4559 16.8012C16.5709 16.8924 16.6667 17.0056 16.7376 17.1342C16.8085 17.2628 16.8531 17.4041 16.8688 17.5501C16.8846 17.6961 16.8711 17.8437 16.8293 17.9845C16.7874 18.1252 16.718 18.2562 16.6251 18.3698C16.5363 18.4878 16.4245 18.5865 16.2965 18.6601C16.1685 18.7336 16.0269 18.7804 15.8802 18.7977C15.7336 18.8149 15.585 18.8022 15.4434 18.7604C15.3018 18.7186 15.1702 18.6485 15.0564 18.5544ZM14.8104 22.1222C14.5945 22.1368 14.3809 22.0711 14.2106 21.9377H14.1952C14.0318 21.7963 13.9275 21.5987 13.903 21.3841C13.8911 21.2792 13.9014 21.1729 13.9332 21.0723C13.965 20.9716 14.0176 20.8787 14.0876 20.7997C14.2269 20.6418 14.4176 20.5383 14.6258 20.5075C14.7306 20.4974 14.8364 20.5086 14.9368 20.5403C15.0372 20.572 15.1302 20.6236 15.2102 20.692C15.367 20.8257 15.4707 21.0113 15.5024 21.2149C15.5247 21.3209 15.5239 21.4304 15.5001 21.536C15.4762 21.6417 15.4299 21.7409 15.3642 21.827C15.2985 21.9132 15.215 21.9841 15.1195 22.035C15.0239 22.086 14.9185 22.1157 14.8104 22.1222ZM15.9023 25.6901C15.7867 25.5975 15.6906 25.483 15.6196 25.3531C15.5485 25.2232 15.5038 25.0805 15.4881 24.9333C15.4723 24.7861 15.4859 24.6372 15.5279 24.4952C15.57 24.3532 15.6397 24.221 15.7331 24.1061C15.8224 23.9838 15.9356 23.8808 16.0658 23.8034C16.196 23.726 16.3405 23.6757 16.4906 23.6556C16.6408 23.6355 16.7934 23.646 16.9394 23.6864C17.0854 23.7268 17.2216 23.7964 17.34 23.8909C17.4584 23.9854 17.5564 24.1029 17.6282 24.2363C17.7 24.3696 17.744 24.5162 17.7577 24.667C17.7714 24.8179 17.7544 24.9699 17.7077 25.114C17.6611 25.2581 17.5857 25.3913 17.4863 25.5056C17.2947 25.7312 17.0246 25.8757 16.7306 25.9099C16.4366 25.9442 16.1406 25.8656 15.9023 25.6901ZM17.8092 23.291C17.3207 22.9077 16.957 22.388 16.7641 21.7978C16.5712 21.2076 16.5577 20.5734 16.7254 19.9755C16.8932 19.3777 17.2346 18.8431 17.7063 18.4393C18.1781 18.0356 18.7591 17.781 19.3757 17.7077C19.9923 17.6344 20.6168 17.7457 21.1701 18.0276C21.7234 18.3094 22.1806 18.7491 22.4838 19.291C22.787 19.8328 22.9226 20.4525 22.8735 21.0715C22.8243 21.6905 22.5925 22.281 22.2075 22.7681C21.6928 23.4195 20.9408 23.8403 20.1164 23.9383C19.292 24.0363 18.4623 23.8036 17.8092 23.291ZM20.316 26.6436C20.1048 26.6588 19.8957 26.5928 19.7316 26.459C19.7234 26.459 19.7156 26.4558 19.7098 26.45C19.704 26.4443 19.7008 26.4364 19.7008 26.4283C19.5407 26.2907 19.4368 26.0992 19.4086 25.89C19.3977 25.7852 19.4084 25.6792 19.4401 25.5786C19.4719 25.4781 19.524 25.3852 19.5932 25.3056C19.7307 25.1456 19.9222 25.0416 20.1314 25.0134C20.2364 24.9984 20.3435 25.0072 20.4446 25.0391C20.5458 25.0711 20.6385 25.1254 20.7158 25.198C20.8795 25.3326 20.9843 25.5257 21.008 25.7362C21.0219 25.8412 21.0126 25.948 20.9807 26.049C20.9488 26.1499 20.8951 26.2427 20.8234 26.3206C20.7725 26.4125 20.6993 26.4901 20.6107 26.5465C20.5221 26.6029 20.4208 26.6363 20.316 26.6436ZM23.038 24.8289C22.9224 24.7363 22.8264 24.6218 22.7553 24.4919C22.6842 24.362 22.6395 24.2193 22.6238 24.0721C22.6081 23.9249 22.6216 23.776 22.6637 23.634C22.7057 23.492 22.7754 23.3598 22.8688 23.2449C22.96 23.1298 23.0732 23.0341 23.2018 22.9632C23.3304 22.8923 23.4717 22.8477 23.6177 22.8319C23.7637 22.8162 23.9113 22.8296 24.0521 22.8715C24.1928 22.9133 24.3238 22.9828 24.4374 23.0757C24.5554 23.1645 24.6541 23.2763 24.7277 23.4043C24.8012 23.5323 24.848 23.6739 24.8653 23.8206C24.8825 23.9672 24.8699 24.1158 24.828 24.2574C24.7862 24.399 24.7161 24.5306 24.622 24.6443C24.5305 24.761 24.4168 24.8584 24.2875 24.9309C24.1581 25.0034 24.0157 25.0496 23.8684 25.0667C23.7212 25.0839 23.572 25.0717 23.4294 25.0309C23.2869 24.9901 23.1538 24.9214 23.038 24.8289Z" fill="#F8AD39"/>
<path d="M29.7742 17.2933C29.6765 17.2213 29.606 17.1183 29.5743 17.0011C28.9483 15.2852 27.8695 13.7707 26.4524 12.6182C24.9317 11.3708 23.0849 10.5862 21.1313 10.3575C21.0235 10.3471 20.9197 10.311 20.8287 10.2521C20.7377 10.1932 20.6622 10.1134 20.6085 10.0192C20.5544 9.93918 20.5267 9.84418 20.5295 9.74761C20.5322 9.65104 20.5653 9.55777 20.6238 9.48096L22.7 6.83582C22.7611 6.76441 22.8413 6.71198 22.9312 6.68472C23.0212 6.65747 23.117 6.65654 23.2075 6.68203C25.2609 7.14324 27.1812 8.06919 28.8207 9.38868C30.435 10.6515 31.7394 12.2663 32.6346 14.1099C32.681 14.1915 32.7014 14.2852 32.6932 14.3786C32.6849 14.472 32.6484 14.5607 32.5885 14.6328L30.5124 17.2626C30.4549 17.3431 30.373 17.403 30.2788 17.4335C30.1847 17.464 30.0832 17.4634 29.9895 17.4317C29.9122 17.3947 29.8399 17.3482 29.7742 17.2933Z" fill="#F8AD39"/>
<path d="M31.6968 16.4936L30.8817 17.5394C30.7615 17.6807 30.6043 17.7857 30.4277 17.8428C30.2512 17.8998 30.0623 17.9066 29.8821 17.8623C29.7383 17.8121 29.6033 17.7394 29.4822 17.647C29.3169 17.5194 29.1894 17.3494 29.1131 17.1549C28.5105 15.5189 27.4803 14.0744 26.1297 12.9719C24.6832 11.7789 22.9189 11.0357 21.0547 10.8343C20.875 10.8124 20.7032 10.7479 20.5534 10.6463C20.4036 10.5447 20.2802 10.4088 20.1935 10.2499C20.0987 10.0884 20.0552 9.90182 20.069 9.71503C20.0827 9.52823 20.153 9.35004 20.2704 9.20414L21.0855 8.17376C18.367 7.89862 15.6328 8.51385 13.2942 9.92686C10.9556 11.3399 9.13915 13.4742 8.1183 16.0087C7.09745 18.5431 6.92739 21.3406 7.63371 23.9801C8.34003 26.6195 9.88451 28.9582 12.0347 30.6441C14.1849 32.33 16.8245 33.2719 19.5563 33.3281C22.2881 33.3843 24.9642 32.5517 27.1819 30.9556C29.3996 29.3596 31.0389 27.0864 31.8532 24.4782C32.6674 21.87 32.6125 19.0679 31.6968 16.4936ZM14.6725 27.2741C13.3743 26.2565 12.4072 24.8765 11.8937 23.3089C11.3802 21.7413 11.3433 20.0566 11.7878 18.4681C12.2323 16.8795 13.1381 15.4586 14.3906 14.3852C15.6431 13.3117 17.1859 12.634 18.8238 12.4379C20.4617 12.2418 22.1209 12.5361 23.5914 13.2835C25.0619 14.0309 26.2776 15.1978 27.0845 16.6365C27.8915 18.0752 28.2534 19.721 28.1245 21.3655C27.9956 23.01 27.3816 24.5793 26.3604 25.8746C24.9942 27.6075 22.9967 28.7279 20.8057 28.9902C18.6148 29.2525 16.4092 28.6354 14.6725 27.2741Z" fill="#F8AD39"/>
</g>
<defs>
<clipPath id="clip0_515_16052">
<rect width="25.4979" height="26.6667" fill="white" transform="translate(7.19922 6.66666)"/>
</clipPath>
</defs>
</svg>
