<svg width="218" height="48" viewBox="0 0 218 48" fill="none" xmlns="http://www.w3.org/2000/svg">
<g clip-path="url(#clip0_105_2749)">
<path d="M9.27498 7.91176H22.1387L27.2942 2.46924H3.74032L0 23.433H6.54556L7.885 15.748H19.8136L24.6659 10.633H8.82008L9.27498 7.91176Z" fill="white"/>
<path d="M33.2586 18.0409L36.0133 2.46924H29.5435L25.8032 23.433H44.3785L49.5846 18.0409H33.2586Z" fill="white"/>
<path d="M54.2851 25.6252H68.3366L37.8833 48L51.303 30.4882H42.2554L69.7013 0L72.2538 6.97953L54.2851 25.6252Z" fill="#F8AD39"/>
<path d="M83.5254 23.433H59.0364L63.9645 18.0409H71.1924C71.7746 18.0369 72.3566 18.0622 72.9362 18.1165C72.7088 17.7385 72.1528 16.6803 72.1528 16.6803L70.0552 12.5228L75.1602 7.23145L83.5254 23.433Z" fill="white"/>
<path d="M113.423 12.0442C112.235 11.2379 110.491 10.8348 108.217 10.8348H96.7681C95.4287 10.8348 94.7463 10.4316 94.7463 9.6253C94.7463 8.819 94.9485 8.56704 95.3529 8.31507C95.7572 8.0631 96.389 7.91192 97.2736 7.91192H111.856L117.011 2.4694H98.7394C97.1459 2.43478 95.5553 2.62135 94.0134 3.02373C92.8563 3.33547 91.7735 3.87523 90.8291 4.61113C90.0337 5.23673 89.4081 6.05101 89.0095 6.97963C88.6434 7.92849 88.455 8.93623 88.4535 9.95286C88.4297 10.6526 88.5677 11.3483 88.857 11.9863C89.1462 12.6242 89.5789 13.1872 90.1215 13.6316C91.2335 14.5387 92.9773 14.9922 95.3781 14.9922H106.852C108.191 14.9922 108.848 15.4206 108.848 16.2521C108.867 16.511 108.821 16.7705 108.715 17.0077C108.609 17.2449 108.447 17.4526 108.242 17.6127C107.837 17.8899 107.206 18.0411 106.321 18.0411H90.3742L85.2439 23.4332H104.855C106.7 23.4332 108.292 23.2568 109.607 22.8536C110.781 22.5416 111.875 21.9832 112.816 21.2159C113.627 20.5637 114.254 19.7129 114.636 18.7466C115.017 17.7405 115.205 16.6722 115.192 15.597C115.192 14.0348 114.61 12.8505 113.423 12.0442Z" fill="white"/>
<path d="M139.529 2.46924L138.215 9.87711H125.68L127.019 2.46924H120.499L116.759 23.433H123.304L124.719 15.3448H137.28L135.839 23.433H142.309L146.049 2.46924H139.529Z" fill="white"/>
<path d="M158.711 7.33218H171.827L177.084 1.76367H153.075L149.107 23.433H155.779L157.296 15.3196H169.452L174.38 10.1038H158.231L158.711 7.33218Z" fill="white"/>
<path d="M186.511 1.76367L182.467 23.433H175.972L178.853 8.01249L186.511 1.76367Z" fill="white"/>
<path d="M193.309 1.76367L187.926 7.40777H198.111L195.305 23.433H202.028L204.884 7.40777H212.617L218 1.76367H193.309Z" fill="white"/>
<path d="M186.511 1.76367L178.853 8.01249L180.016 1.76367H186.511Z" fill="#F8AD39"/>
</g>
<defs>
<clipPath id="clip0_105_2749">
<rect width="218" height="48" fill="white"/>
</clipPath>
</defs>
</svg>
