<svg width="40" height="40" viewBox="0 0 40 40" fill="none" xmlns="http://www.w3.org/2000/svg">
<rect width="40" height="40" rx="20" fill="#2A317F"/>
<g clip-path="url(#clip0_515_16058)">
<path d="M19.9233 21.9377C20.951 21.9377 21.7841 21.1046 21.7841 20.0769C21.7841 19.0492 20.951 18.2161 19.9233 18.2161C18.8956 18.2161 18.0625 19.0492 18.0625 20.0769C18.0625 21.1046 18.8956 21.9377 19.9233 21.9377Z" fill="#F8AD39"/>
<path d="M29.5341 26.5513C29.3666 26.4461 29.2441 26.2826 29.1901 26.0923C29.1361 25.902 29.1546 25.6984 29.242 25.521C29.4573 25.1365 29.9032 25.075 30.2877 25.2134L31.7794 26.0438C32.6279 24.4254 33.1109 22.6405 33.1943 20.8151H31.4719C31.2761 20.8151 31.0883 20.7373 30.9499 20.5989C30.8115 20.4604 30.7337 20.2727 30.7337 20.0769C30.7337 19.8811 30.8115 19.6934 30.9499 19.5549C31.0883 19.4165 31.2761 19.3387 31.4719 19.3387H33.1943C33.1025 17.522 32.642 15.7431 31.841 14.11L30.3646 14.9404C30.2763 14.9913 30.1786 15.0237 30.0774 15.0357C29.9762 15.0477 29.8737 15.0391 29.7759 15.0103C29.6782 14.9816 29.5873 14.9333 29.5087 14.8684C29.4301 14.8035 29.3656 14.7234 29.3188 14.6328C29.2677 14.5466 29.2347 14.451 29.2218 14.3516C29.2088 14.2522 29.2162 14.1513 29.2436 14.0549C29.2709 13.9585 29.3176 13.8686 29.3808 13.7909C29.4439 13.7131 29.5223 13.649 29.611 13.6025L31.1028 12.772C30.1339 11.2188 28.796 9.94233 27.3042 8.89658L26.4892 10.3883C26.3791 10.5546 26.2138 10.6767 26.0224 10.733C25.8311 10.7893 25.626 10.7761 25.4434 10.6959C25.2771 10.5858 25.155 10.4205 25.0987 10.2292C25.0424 10.0378 25.0556 9.83273 25.1358 9.65013L25.9663 8.1584C24.3527 7.31159 22.5732 6.82865 20.7529 6.74356V8.3737C20.7573 8.47382 20.7408 8.57375 20.7044 8.66715C20.6681 8.76055 20.6128 8.84538 20.5419 8.91624C20.471 8.9871 20.3862 9.04245 20.2928 9.07878C20.1994 9.11511 20.0995 9.13162 19.9993 9.12726C19.8999 9.13181 19.8006 9.1153 19.7079 9.07883C19.6153 9.04236 19.5314 8.98674 19.4617 8.91561C19.392 8.84449 19.3381 8.75945 19.3036 8.66606C19.269 8.57268 19.2546 8.47305 19.2612 8.3737V6.66667C17.4516 6.76075 15.6791 7.21564 14.0478 8.00461L14.8629 9.49635C14.9191 9.58447 14.9567 9.68313 14.9735 9.7863C14.9903 9.88947 14.9859 9.99498 14.9605 10.0964C14.9352 10.1978 14.8894 10.2929 14.826 10.3761C14.7626 10.4592 14.683 10.5285 14.5919 10.5798C14.5008 10.6311 14.4003 10.6633 14.2963 10.6744C14.1924 10.6855 14.0873 10.6753 13.9874 10.6444C13.8876 10.6136 13.795 10.5627 13.7155 10.4948C13.636 10.427 13.5711 10.3436 13.5249 10.2499L12.6945 8.75817C11.1412 9.72703 9.86479 11.065 8.81903 12.5567L10.3108 13.3718C10.6952 13.6025 10.7568 14.0484 10.6183 14.4175C10.5081 14.5836 10.3418 14.7046 10.1498 14.7582C9.95784 14.8119 9.75295 14.7946 9.57259 14.7097L8.08086 13.8947C7.23405 15.5082 6.75111 17.2877 6.66602 19.108H8.37305C8.47998 19.0926 8.58897 19.1004 8.69263 19.1308C8.79629 19.1613 8.8922 19.2136 8.97385 19.2844C9.0555 19.3551 9.12099 19.4426 9.16587 19.5408C9.21076 19.6391 9.23398 19.7459 9.23398 19.8539C9.23398 19.9619 9.21076 20.0687 9.16587 20.167C9.12099 20.2652 9.0555 20.3527 8.97385 20.4234C8.8922 20.4942 8.79629 20.5465 8.69263 20.577C8.58897 20.6074 8.47998 20.6152 8.37305 20.5998H6.66602C6.76214 22.409 7.21694 24.1812 8.00396 25.8131L9.4957 24.9981C9.86479 24.7674 10.3108 24.9212 10.5414 25.2903C10.6411 25.4678 10.6662 25.6775 10.6115 25.8735C10.5567 26.0696 10.4264 26.2359 10.2493 26.336L8.75752 27.1511C9.72638 28.7197 11.0643 29.9808 12.5561 31.0265L13.3711 29.5348C13.4813 29.3687 13.6476 29.2478 13.8396 29.1941C14.0316 29.1405 14.2365 29.1577 14.4169 29.2426C14.786 29.4579 14.8629 29.9039 14.7091 30.2884L13.894 31.7801C15.5076 32.6269 17.2871 33.1098 19.1074 33.1949V31.4725C19.1332 31.2931 19.2228 31.129 19.3598 31.0103C19.4968 30.8917 19.672 30.8263 19.8533 30.8263C20.0345 30.8263 20.2097 30.8917 20.3467 31.0103C20.4837 31.129 20.5733 31.2931 20.5991 31.4725V33.3333C22.4106 33.252 24.1857 32.7965 25.8125 31.9954L24.9974 30.5037C24.7667 30.1346 24.9205 29.6886 25.2896 29.4579C25.3784 29.4092 25.476 29.3785 25.5767 29.3676C25.6774 29.3567 25.7792 29.3658 25.8764 29.3944C25.9736 29.423 26.0642 29.4704 26.1429 29.5341C26.2217 29.5978 26.2871 29.6764 26.3354 29.7655L27.1504 31.2572C28.7191 30.2883 29.9801 28.9504 31.0259 27.4587L29.5341 26.5513ZM28.796 21.9377C28.5589 23.0506 28.1268 24.1127 27.5195 25.075C25.8125 23.4294 23.8748 22.6144 23.1981 23.3526C22.5215 24.0907 23.275 26.0438 24.9205 27.674C23.965 28.2942 22.9004 28.7274 21.7833 28.9504C21.7218 26.5513 20.8913 24.6905 19.9225 24.6905C18.9536 24.6905 18.0616 26.5513 18.0616 28.9504C16.9545 28.7104 15.8979 28.2784 14.9398 27.674C16.5699 25.9669 17.3235 24.0292 16.6468 23.3526C15.9701 22.6759 14.0478 23.4294 12.3254 25.075C11.6932 24.1274 11.2638 23.0592 11.0643 21.9377C13.448 21.8608 15.3857 21.0458 15.3857 20.0769C15.3857 19.108 13.448 18.2161 11.0643 18.2161C11.2755 17.1218 11.7043 16.0811 12.3254 15.1557C14.0478 16.8012 15.9855 17.5394 16.6468 16.8781C17.3081 16.2168 16.5699 14.1869 14.9398 12.5567C15.8979 11.9523 16.9545 11.5203 18.0616 11.2803C18.1385 13.664 18.9536 15.5402 19.9225 15.5402C20.8913 15.5402 21.7833 13.6025 21.7833 11.2188C22.8975 11.4433 23.9609 11.8708 24.9205 12.4798C23.275 14.1869 22.5368 16.1246 23.1981 16.8012C23.8594 17.4779 25.8125 16.7243 27.5195 15.0788C28.1365 16.0081 28.5698 17.0469 28.796 18.1392C26.4123 18.2161 24.5514 19.0311 24.5514 20C24.5514 20.9689 26.4892 21.9377 28.796 21.9377Z" fill="#F8AD39"/>
</g>
<defs>
<clipPath id="clip0_515_16058">
<rect width="26.5283" height="26.6667" fill="white" transform="translate(6.66602 6.66667)"/>
</clipPath>
</defs>
</svg>
