<svg width="40" height="40" viewBox="0 0 40 40" fill="none" xmlns="http://www.w3.org/2000/svg">
<rect width="40" height="40" rx="20" fill="#2A317F"/>
<g clip-path="url(#clip0_515_16069)">
<path d="M14.3878 23.2384H13.1706C12.5313 23.2261 12.1871 22.8818 12.1871 22.2548C12.1748 22.0458 12.1871 21.8245 12.1871 21.5663H7.44141V18.3698H12.1871C12.1871 18.0993 12.1748 17.8657 12.1871 17.6198C12.1871 17.0665 12.5436 16.71 13.0969 16.6977H14.3878V16.3289C14.3878 15.0503 14.3632 13.7716 14.4001 12.4807C14.4068 11.7146 14.6927 10.9772 15.2042 10.4068C15.7157 9.83647 16.4177 9.47226 17.1786 9.38251C17.904 9.28415 18.6539 9.35792 19.4039 9.35792V30.6027C18.2359 30.5536 17.0311 30.8117 15.9615 30.111C14.8918 29.4102 14.4247 28.5987 14.4001 27.4431C14.3755 26.2874 14.3878 24.8981 14.3878 23.6195V23.2384ZM18.6294 13.4643C18.5433 13.2676 18.5064 13.1077 18.4081 13.0094C17.9409 12.5299 17.4737 12.0504 16.9819 11.5955C16.9323 11.5382 16.8709 11.4923 16.802 11.4608C16.733 11.4293 16.6581 11.413 16.5823 11.413C16.5065 11.413 16.4316 11.4293 16.3627 11.4608C16.2938 11.4923 16.2324 11.5382 16.1828 11.5955C16.1255 11.6451 16.0795 11.7065 16.048 11.7754C16.0166 11.8444 16.0003 11.9193 16.0003 11.9951C16.0003 12.0709 16.0166 12.1458 16.048 12.2147C16.0795 12.2837 16.1255 12.345 16.1828 12.3947C16.65 12.8864 17.1417 13.3659 17.6212 13.8454C17.8056 14.0298 18.0515 14.0913 18.2605 13.9438C18.4695 13.7962 18.5064 13.6364 18.6294 13.4643ZM18.6294 16.4026C18.531 16.1936 18.5064 16.0215 18.4081 15.9109C17.9409 15.4191 17.4491 14.9396 16.9696 14.4724C16.9182 14.4196 16.8566 14.3779 16.7885 14.3497C16.7203 14.3216 16.6472 14.3077 16.5735 14.3089C16.4999 14.31 16.4272 14.3262 16.36 14.3564C16.2928 14.3867 16.2325 14.4303 16.1828 14.4847C16.1267 14.5334 16.0816 14.5934 16.0503 14.6607C16.019 14.728 16.0022 14.8012 16.0011 14.8754C15.9999 14.9496 16.0144 15.0233 16.0436 15.0915C16.0728 15.1598 16.116 15.2211 16.1705 15.2716C16.65 15.7756 17.1417 16.2674 17.6458 16.7592C17.8179 16.919 18.0392 16.9928 18.2359 16.8575C18.4326 16.7223 18.5064 16.5625 18.6294 16.4026ZM16.6745 26.0292C16.3303 26.0292 16.1459 26.1644 16.0475 26.3857C16.0026 26.4944 15.9927 26.6144 16.0191 26.729C16.0455 26.8436 16.107 26.9471 16.1951 27.025L17.5966 28.4266C17.6715 28.4992 17.759 28.5575 17.8548 28.5987C17.9612 28.641 18.0789 28.6458 18.1884 28.6122C18.2979 28.5787 18.3927 28.5089 18.4572 28.4143C18.5412 28.2916 18.5798 28.1434 18.5664 27.9953C18.5529 27.8472 18.4882 27.7085 18.3835 27.6029C17.9327 27.1275 17.4655 26.6603 16.9819 26.2013C16.889 26.1284 16.7853 26.0704 16.6745 26.0292ZM18.0392 25.7341C18.2113 25.6112 18.3958 25.5251 18.4941 25.3776C18.556 25.2662 18.5776 25.1369 18.5552 25.0115C18.5328 24.886 18.4678 24.7722 18.3712 24.6891C17.904 24.2096 17.4245 23.7301 16.945 23.2629C16.6868 23.0048 16.3549 23.0048 16.1213 23.2384C15.8877 23.472 15.8877 23.8162 16.1705 24.0867C16.6377 24.5539 17.1048 25.0088 17.5966 25.4637C17.7366 25.5657 17.8846 25.6562 18.0392 25.7341ZM18.6048 22.2794C18.531 22.1073 18.5187 21.9597 18.4326 21.8737C17.9163 21.3327 17.3999 20.8041 16.859 20.2877C16.754 20.1979 16.618 20.1527 16.4801 20.1619C16.3422 20.1711 16.2134 20.2339 16.1213 20.3369C15.9123 20.5459 15.8631 20.8778 16.0721 21.0745C16.6008 21.6278 17.154 22.1564 17.7196 22.6482C17.8425 22.7589 18.1253 22.7466 18.2851 22.6851C18.4449 22.6236 18.5064 22.4146 18.6048 22.2794ZM18.6171 19.3164C18.5433 19.1197 18.531 18.9476 18.4326 18.8492C17.9409 18.3329 17.4245 17.8165 16.9081 17.3247C16.8059 17.2394 16.6746 17.1968 16.5417 17.206C16.4088 17.2152 16.2846 17.2753 16.1951 17.3739C15.9738 17.5829 15.9246 17.9026 16.1213 18.1116C16.6377 18.6525 17.1663 19.1812 17.7073 19.6976C17.778 19.7754 17.8756 19.8238 17.9804 19.8329C18.0853 19.842 18.1897 19.8112 18.2728 19.7467C18.4072 19.6202 18.5231 19.4753 18.6171 19.3164Z" fill="#F8AD39"/>
<path d="M27.8248 18.4312H32.5582V21.6155H27.8248V22.3655C27.8125 22.9187 27.4683 23.2875 26.9028 23.2875H25.575C25.575 23.4105 25.5627 23.5088 25.5627 23.6072C25.5627 24.7875 25.5381 25.9677 25.5627 27.148C25.5873 28.0947 25.2184 28.8692 24.5299 29.4962C23.7621 30.2385 22.7332 30.6491 21.6653 30.6396H20.5957V9.39481C21.1981 9.39481 21.7883 9.37022 22.3784 9.39481C24.284 9.45628 25.6118 10.8333 25.6241 12.7389V16.7469H26.9273C27.1085 16.7411 27.2868 16.7927 27.437 16.8942C27.5871 16.9958 27.7013 17.1421 27.7634 17.3124C27.7957 17.4289 27.8163 17.5484 27.8248 17.669V18.4312ZM21.985 22.8326L22.0464 22.7835L22.3046 22.6974L22.4399 22.599L23.8783 21.1606C24.1119 20.9024 24.1242 20.5828 23.9152 20.3738C23.7062 20.1647 23.362 20.0787 23.1284 20.3C22.5997 20.8041 22.071 21.3204 21.5793 21.8737C21.4809 21.9843 21.4686 22.2794 21.5301 22.4392C21.5916 22.599 21.8251 22.6974 21.985 22.8326ZM21.9727 25.7218C22.1571 25.6481 22.2923 25.6235 22.3661 25.5497C22.8948 25.0333 23.4234 24.5293 23.9275 23.9883C24.0103 23.8788 24.0504 23.743 24.0404 23.6061C24.0304 23.4692 23.971 23.3406 23.8731 23.2443C23.7753 23.148 23.6458 23.0905 23.5088 23.0827C23.3718 23.0748 23.2366 23.117 23.1284 23.2015C22.5997 23.7055 22.071 24.2219 21.5916 24.7629C21.4809 24.8858 21.4686 25.1686 21.5301 25.3284C21.5916 25.4882 21.8251 25.5989 21.9727 25.7218ZM23.5341 11.3004C23.3497 11.3865 23.2144 11.4111 23.1161 11.4972C22.5997 12.0012 22.0833 12.5053 21.5916 13.034C21.4986 13.1358 21.4492 13.27 21.4538 13.4078C21.4584 13.5456 21.5167 13.6762 21.6161 13.7716C21.6612 13.8271 21.717 13.8729 21.7803 13.9062C21.8435 13.9395 21.9129 13.9597 21.9841 13.9654C22.0554 13.9712 22.127 13.9624 22.1948 13.9397C22.2626 13.9169 22.325 13.8807 22.3784 13.8331C22.9071 13.329 23.4234 12.8004 23.9275 12.2717C24.0081 12.2005 24.0591 12.1017 24.0705 11.9947C24.0819 11.8878 24.0528 11.7804 23.989 11.6939C23.8579 11.5407 23.7045 11.4081 23.5341 11.3004ZM24.1365 26.5333C23.9767 26.3611 23.866 26.1767 23.6939 26.0784C23.5218 25.98 23.239 26.0292 23.0546 26.2136L21.653 27.6152C21.3948 27.8857 21.3948 28.2053 21.6161 28.4512C21.8374 28.6971 22.194 28.6971 22.4645 28.4266C22.9316 27.9717 23.3988 27.5168 23.8414 27.0373C23.9521 26.9267 24.0136 26.7423 24.1365 26.5333ZM24.1242 14.8412C23.989 14.6814 23.8783 14.4847 23.7062 14.3741C23.6081 14.317 23.4933 14.2957 23.3813 14.3136C23.2693 14.3315 23.1669 14.3876 23.0915 14.4724C22.5997 14.9642 22.1079 15.4437 21.6284 15.9355C21.5726 15.9872 21.528 16.05 21.4975 16.1198C21.4671 16.1896 21.4513 16.265 21.4513 16.3412C21.4513 16.4173 21.4671 16.4927 21.4975 16.5625C21.528 16.6323 21.5726 16.6951 21.6284 16.7469C21.862 16.9805 22.1817 16.9805 22.4522 16.7223C22.9316 16.2551 23.3988 15.7879 23.866 15.3084C23.9656 15.1606 24.052 15.0043 24.1242 14.8412ZM21.9727 19.882C22.1571 19.7959 22.3046 19.759 22.3907 19.673C22.9071 19.1689 23.4234 18.6648 23.9275 18.1362C24.1365 17.9149 24.0996 17.5952 23.8783 17.3739C23.657 17.1526 23.3497 17.1403 23.1284 17.3493C22.5997 17.8534 22.071 18.3698 21.5916 18.9107C21.4809 19.0214 21.4686 19.3164 21.5301 19.4763C21.5916 19.6361 21.8251 19.7467 21.9727 19.882Z" fill="#F8AD39"/>
<path d="M9.03968 11.5832C9.03108 11.3823 9.03518 11.1811 9.05197 10.9808C9.06427 10.8701 9.11344 10.6857 9.18721 10.6611C9.32599 10.6181 9.47614 10.6313 9.60522 10.698C9.79349 10.8223 9.97413 10.9578 10.1462 11.1037L11.5723 12.2225C11.9166 12.5053 11.9166 12.8864 11.56 13.1692C10.933 13.661 10.306 14.1528 9.66669 14.6322C9.56328 14.7106 9.43952 14.7575 9.31016 14.7675C9.27189 14.7697 9.23362 14.7634 9.1981 14.749C9.16259 14.7346 9.13073 14.7124 9.10483 14.6842C9.07893 14.6559 9.05965 14.6223 9.04838 14.5856C9.03711 14.549 9.03414 14.5103 9.03968 14.4724C9.05197 14.2511 9.03968 14.0421 9.03968 13.7839H7.07257C6.82668 13.7716 6.67914 13.6364 6.67914 13.3905C6.66685 12.9233 6.66685 12.4684 6.67914 12.0012C6.67914 11.7185 6.82668 11.5955 7.13404 11.5955H9.03968V11.5832Z" fill="#F8AD39"/>
<path d="M30.9597 26.2013H32.3613C33.3326 26.2013 33.3326 26.2013 33.3326 27.148C33.3326 27.3816 33.3449 27.6275 33.3326 27.8611C33.3203 28.0947 33.1973 28.3283 32.8531 28.3406H30.9597C30.9683 28.566 30.9642 28.7918 30.9474 29.0168C30.9351 29.1274 30.886 29.2872 30.7999 29.3118C30.741 29.3336 30.6777 29.3405 30.6155 29.332C30.5533 29.3234 30.4941 29.2996 30.4434 29.2626C29.7672 28.7709 29.0787 28.2668 28.4148 27.7504C28.0828 27.4922 28.0951 27.0988 28.4271 26.8406C29.0787 26.312 29.7426 25.7956 30.4065 25.2915C30.4623 25.2554 30.525 25.2313 30.5906 25.2207C30.6562 25.2102 30.7233 25.2133 30.7876 25.2301C30.8837 25.3196 30.941 25.4431 30.9474 25.5743C30.9705 25.7825 30.9746 25.9924 30.9597 26.2013Z" fill="#F8AD39"/>
</g>
<defs>
<clipPath id="clip0_515_16069">
<rect width="26.6667" height="21.3186" fill="white" transform="translate(6.66602 9.33333)"/>
</clipPath>
</defs>
</svg>
