<svg width="40" height="40" viewBox="0 0 40 40" fill="none" xmlns="http://www.w3.org/2000/svg">
<rect width="40" height="40" rx="20" fill="#F8AD39"/>
<g clip-path="url(#clip0_654_8540)">
<path d="M24.0837 15.2788C22.9848 14.4186 21.6556 13.9034 20.264 13.7983C18.8723 13.6933 17.4808 14.0031 16.2652 14.6887C15.0496 15.3742 14.0645 16.4047 13.4344 17.6499C12.8042 18.8951 12.5573 20.2991 12.7249 21.6846C12.8924 23.0701 13.4669 24.3748 14.3757 25.4339C15.2845 26.493 16.4869 27.2589 17.8308 27.6349C19.1748 28.0109 20.6001 27.9801 21.9265 27.5464C23.253 27.1127 24.4211 26.2955 25.2833 25.1981C25.8566 24.4683 26.2804 23.6327 26.5305 22.739C26.7805 21.8453 26.8518 20.911 26.7404 19.9897C26.629 19.0684 26.337 18.1781 25.8812 17.3697C25.4253 16.5614 24.8145 15.8509 24.0837 15.2788ZM24.6681 19.508C24.7719 19.494 24.8775 19.5018 24.9782 19.5309C25.0788 19.5601 25.1722 19.6099 25.2525 19.6771C25.4159 19.8185 25.5202 20.0161 25.5447 20.2308C25.5569 20.3345 25.5481 20.4397 25.5191 20.54C25.4901 20.6404 25.4412 20.7339 25.3755 20.8151C25.2307 20.9741 25.0349 21.0774 24.8219 21.1073C24.6111 21.1196 24.4031 21.0539 24.2375 20.9228C24.2334 20.9228 24.2295 20.9212 24.2266 20.9183C24.2238 20.9154 24.2221 20.9115 24.2221 20.9074C24.0967 20.8086 24.0044 20.6739 23.9576 20.5212C23.9108 20.3686 23.9117 20.2053 23.9602 20.0531C24.0087 19.901 24.1024 19.7673 24.2289 19.6699C24.3554 19.5724 24.5087 19.516 24.6681 19.508ZM23.5609 15.9401C23.6832 16.0294 23.7861 16.1426 23.8636 16.2728C23.941 16.403 23.9913 16.5475 24.0114 16.6976C24.0315 16.8478 24.021 17.0004 23.9805 17.1464C23.9401 17.2924 23.8705 17.4286 23.776 17.547C23.6816 17.6654 23.5641 17.7634 23.4307 17.8352C23.2973 17.907 23.1508 17.951 22.9999 17.9647C22.8491 17.9784 22.697 17.9614 22.5529 17.9147C22.4088 17.8681 22.2756 17.7927 22.1614 17.6933C22.0447 17.6018 21.9473 17.4881 21.8748 17.3587C21.8023 17.2294 21.7562 17.087 21.739 16.9397C21.7218 16.7925 21.734 16.6432 21.7748 16.5007C21.8157 16.3582 21.8843 16.2251 21.9769 16.1093C22.1706 15.886 22.4417 15.7444 22.7356 15.713C23.0295 15.6816 23.3244 15.7628 23.5609 15.9401ZM19.1626 14.9866C19.2696 14.9782 19.3774 14.9911 19.4795 15.0245C19.5816 15.0578 19.6761 15.1111 19.7575 15.1811C19.839 15.2511 19.9058 15.3366 19.9541 15.4325C20.0025 15.5285 20.0314 15.633 20.0391 15.7402C20.0562 15.954 19.9883 16.166 19.8501 16.3301C19.7119 16.4942 19.5146 16.5972 19.301 16.6168C19.1961 16.6277 19.0901 16.617 18.9896 16.5852C18.8891 16.5535 18.7961 16.5014 18.7166 16.4322C18.6249 16.3662 18.5487 16.2812 18.4929 16.183C18.4372 16.0848 18.4033 15.9757 18.3936 15.8632C18.3797 15.7582 18.389 15.6515 18.4209 15.5505C18.4528 15.4495 18.5065 15.3568 18.5782 15.2788C18.7374 15.1224 18.9419 15.0201 19.1626 14.9866ZM15.0564 18.5545C14.938 18.4643 14.839 18.3511 14.7653 18.2218C14.6916 18.0924 14.6447 17.9496 14.6275 17.8017C14.6102 17.6538 14.623 17.504 14.665 17.3612C14.707 17.2184 14.7774 17.0855 14.8719 16.9705C14.9645 16.8549 15.079 16.7588 15.2089 16.6878C15.3388 16.6167 15.4815 16.572 15.6287 16.5563C15.7759 16.5405 15.9248 16.5541 16.0668 16.5961C16.2087 16.6382 16.341 16.7079 16.4559 16.8013C16.5709 16.8925 16.6667 17.0057 16.7376 17.1343C16.8085 17.2628 16.8531 17.4042 16.8688 17.5502C16.8846 17.6962 16.8711 17.8438 16.8293 17.9846C16.7874 18.1253 16.718 18.2563 16.6251 18.3699C16.5363 18.4879 16.4245 18.5866 16.2965 18.6602C16.1685 18.7337 16.0269 18.7805 15.8802 18.7977C15.7336 18.815 15.585 18.8023 15.4434 18.7605C15.3018 18.7187 15.1702 18.6486 15.0564 18.5545ZM14.8104 22.1223C14.5945 22.1369 14.3809 22.0712 14.2106 21.9378H14.1952C14.0318 21.7964 13.9275 21.5988 13.903 21.3842C13.8911 21.2793 13.9014 21.173 13.9332 21.0724C13.965 20.9717 14.0176 20.8788 14.0876 20.7998C14.2269 20.6419 14.4176 20.5384 14.6258 20.5076C14.7306 20.4975 14.8364 20.5087 14.9368 20.5404C15.0372 20.5721 15.1302 20.6237 15.2102 20.6921C15.367 20.8258 15.4707 21.0113 15.5024 21.215C15.5247 21.321 15.5239 21.4305 15.5001 21.5361C15.4762 21.6418 15.4299 21.741 15.3642 21.8271C15.2985 21.9132 15.215 21.9842 15.1195 22.0351C15.0239 22.0861 14.9185 22.1158 14.8104 22.1223ZM15.9023 25.6902C15.7867 25.5976 15.6906 25.4831 15.6196 25.3532C15.5485 25.2233 15.5038 25.0806 15.4881 24.9334C15.4723 24.7862 15.4859 24.6373 15.5279 24.4953C15.57 24.3533 15.6397 24.2211 15.7331 24.1062C15.8224 23.9839 15.9356 23.8809 16.0658 23.8035C16.196 23.7261 16.3405 23.6758 16.4906 23.6557C16.6408 23.6356 16.7934 23.6461 16.9394 23.6865C17.0854 23.7269 17.2216 23.7965 17.34 23.891C17.4584 23.9855 17.5564 24.103 17.6282 24.2363C17.7 24.3697 17.744 24.5163 17.7577 24.6671C17.7714 24.818 17.7544 24.97 17.7077 25.1141C17.6611 25.2582 17.5857 25.3914 17.4863 25.5056C17.2947 25.7313 17.0246 25.8758 16.7306 25.91C16.4366 25.9443 16.1406 25.8657 15.9023 25.6902ZM17.8092 23.2911C17.3207 22.9078 16.957 22.3881 16.7641 21.7979C16.5712 21.2077 16.5577 20.5735 16.7254 19.9756C16.8932 19.3778 17.2346 18.8431 17.7063 18.4394C18.1781 18.0357 18.7591 17.7811 19.3757 17.7078C19.9923 17.6345 20.6168 17.7458 21.1701 18.0277C21.7234 18.3095 22.1806 18.7492 22.4838 19.2911C22.787 19.8329 22.9226 20.4526 22.8735 21.0716C22.8243 21.6906 22.5925 22.2811 22.2075 22.7682C21.6928 23.4196 20.9408 23.8404 20.1164 23.9384C19.292 24.0364 18.4623 23.8037 17.8092 23.2911ZM20.316 26.6437C20.1048 26.6589 19.8957 26.5929 19.7316 26.4591C19.7234 26.4591 19.7156 26.4559 19.7098 26.4501C19.704 26.4443 19.7008 26.4365 19.7008 26.4284C19.5407 26.2908 19.4368 26.0993 19.4086 25.8901C19.3977 25.7853 19.4084 25.6793 19.4401 25.5787C19.4719 25.4782 19.524 25.3853 19.5932 25.3057C19.7307 25.1457 19.9222 25.0417 20.1314 25.0135C20.2364 24.9985 20.3435 25.0073 20.4446 25.0392C20.5458 25.0712 20.6385 25.1255 20.7158 25.1981C20.8795 25.3327 20.9843 25.5257 21.008 25.7363C21.0219 25.8413 21.0126 25.9481 20.9807 26.049C20.9488 26.15 20.8951 26.2428 20.8234 26.3207C20.7725 26.4126 20.6993 26.4902 20.6107 26.5466C20.5221 26.603 20.4208 26.6364 20.316 26.6437ZM23.038 24.829C22.9224 24.7364 22.8264 24.6218 22.7553 24.492C22.6842 24.3621 22.6395 24.2194 22.6238 24.0722C22.6081 23.925 22.6216 23.7761 22.6637 23.6341C22.7057 23.4921 22.7754 23.3599 22.8688 23.245C22.96 23.1299 23.0732 23.0342 23.2018 22.9633C23.3304 22.8924 23.4717 22.8478 23.6177 22.832C23.7637 22.8163 23.9113 22.8297 24.0521 22.8716C24.1928 22.9134 24.3238 22.9829 24.4374 23.0758C24.5554 23.1646 24.6541 23.2764 24.7277 23.4044C24.8012 23.5324 24.848 23.674 24.8653 23.8206C24.8825 23.9673 24.8698 24.1159 24.828 24.2575C24.7862 24.3991 24.7161 24.5307 24.622 24.6444C24.5305 24.7611 24.4168 24.8585 24.2875 24.931C24.1581 25.0035 24.0157 25.0497 23.8684 25.0668C23.7212 25.084 23.572 25.0718 23.4294 25.031C23.2869 24.9902 23.1538 24.9215 23.038 24.829Z" fill="#2A317F"/>
<path d="M29.7742 17.2933C29.6765 17.2213 29.606 17.1183 29.5743 17.0011C28.9483 15.2852 27.8695 13.7707 26.4524 12.6182C24.9317 11.3708 23.0849 10.5862 21.1313 10.3575C21.0235 10.3471 20.9197 10.311 20.8287 10.2521C20.7377 10.1932 20.6622 10.1134 20.6085 10.0192C20.5544 9.93918 20.5267 9.84418 20.5295 9.74761C20.5322 9.65104 20.5653 9.55777 20.6238 9.48096L22.7 6.83582C22.7611 6.76441 22.8413 6.71198 22.9312 6.68472C23.0212 6.65747 23.117 6.65654 23.2075 6.68203C25.2609 7.14324 27.1812 8.06919 28.8207 9.38868C30.435 10.6515 31.7394 12.2663 32.6346 14.1099C32.681 14.1915 32.7014 14.2852 32.6932 14.3786C32.6849 14.472 32.6484 14.5607 32.5885 14.6328L30.5124 17.2626C30.4549 17.3431 30.373 17.403 30.2788 17.4335C30.1847 17.464 30.0832 17.4634 29.9895 17.4317C29.9122 17.3947 29.8399 17.3482 29.7742 17.2933Z" fill="#2A317F"/>
<path d="M31.6968 16.4936L30.8817 17.5394C30.7615 17.6807 30.6043 17.7857 30.4277 17.8427C30.2512 17.8998 30.0623 17.9065 29.8821 17.8623C29.7383 17.8121 29.6033 17.7394 29.4822 17.647C29.3169 17.5194 29.1894 17.3493 29.1131 17.1549C28.5105 15.5189 27.4803 14.0744 26.1297 12.9719C24.6832 11.7788 22.9189 11.0357 21.0547 10.8342C20.875 10.8123 20.7032 10.7479 20.5534 10.6463C20.4036 10.5446 20.2802 10.4087 20.1935 10.2499C20.0987 10.0883 20.0552 9.90179 20.069 9.715C20.0827 9.5282 20.153 9.35001 20.2704 9.2041L21.0855 8.17373C18.367 7.89859 15.6328 8.51382 13.2942 9.92683C10.9556 11.3398 9.13915 13.4742 8.1183 16.0086C7.09745 18.5431 6.92739 21.3406 7.63371 23.98C8.34003 26.6195 9.88451 28.9582 12.0347 30.644C14.1849 32.3299 16.8245 33.2718 19.5563 33.328C22.2881 33.3842 24.9642 32.5516 27.1819 30.9556C29.3996 29.3595 31.0389 27.0864 31.8532 24.4782C32.6674 21.87 32.6125 19.0679 31.6968 16.4936ZM14.6725 27.2741C13.3743 26.2564 12.4072 24.8765 11.8937 23.3089C11.3802 21.7413 11.3433 20.0566 11.7878 18.468C12.2323 16.8795 13.1381 15.4586 14.3906 14.3851C15.6431 13.3117 17.1859 12.634 18.8238 12.4379C20.4617 12.2418 22.1209 12.5361 23.5914 13.2835C25.0619 14.0309 26.2776 15.1978 27.0845 16.6365C27.8915 18.0752 28.2534 19.7209 28.1245 21.3654C27.9956 23.01 27.3816 24.5792 26.3604 25.8746C24.9942 27.6074 22.9967 28.7278 20.8057 28.9902C18.6148 29.2525 16.4092 28.6354 14.6725 27.2741Z" fill="#2A317F"/>
</g>
<defs>
<clipPath id="clip0_654_8540">
<rect width="25.4979" height="26.6667" fill="white" transform="translate(7.19922 6.66675)"/>
</clipPath>
</defs>
</svg>
