<svg width="40" height="40" viewBox="0 0 40 40" fill="none" xmlns="http://www.w3.org/2000/svg">
<rect width="40" height="40" rx="20" fill="#F8AD39"/>
<g clip-path="url(#clip0_654_8555)">
<path d="M8.25032 22.3847L6.66602 23.969L8.53317 25.8361L10.1175 24.2518L8.25032 22.3847Z" fill="#2A317F"/>
<path d="M31.973 19.5189C33.8699 17.4571 33.76 14.1581 31.7531 12.22L28.8115 9.42957C27.8214 8.4912 26.5036 7.97736 25.1396 7.99791C23.7757 8.01846 22.4739 8.57176 21.5125 9.53954L20.6328 10.488L22.4747 12.3299L23.3545 11.3815C23.8273 10.905 24.4686 10.6336 25.1398 10.6259C25.8111 10.6182 26.4584 10.8747 26.9421 11.3402L29.9112 14.1306C30.9009 15.0791 30.9833 16.7285 30.0211 17.7182L25.7325 22.378C23.3132 25.1272 23.4232 29.3059 26.0624 31.8351L27.9043 29.9382C27.127 29.1846 26.6726 28.1587 26.6367 27.0767C26.6008 25.9947 26.9863 24.9409 27.7119 24.1375L31.973 19.5189Z" fill="#2A317F"/>
<path d="M16.9627 27.1752L25.2514 18.8866L25.2926 18.9278C25.4544 19.0857 25.6714 19.174 25.8974 19.174C26.1234 19.174 26.3405 19.0857 26.5022 18.9278C26.6601 18.7661 26.7484 18.549 26.7484 18.323C26.7484 18.097 26.6601 17.8799 26.5022 17.7182L18.5022 9.69071C18.3418 9.5303 18.1243 9.44019 17.8974 9.44019C17.6706 9.44019 17.453 9.5303 17.2926 9.69071C17.1322 9.85111 17.0421 10.0687 17.0421 10.2955C17.0421 10.5224 17.1322 10.7399 17.2926 10.9003L17.4438 11.0378L9.15516 19.3677L9.00396 19.2165C8.8422 19.0586 8.62515 18.9703 8.39915 18.9703C8.17314 18.9703 7.95609 19.0586 7.79434 19.2165C7.63561 19.3805 7.54688 19.5999 7.54688 19.8282C7.54688 20.0564 7.63561 20.2758 7.79434 20.4398L15.8356 28.4673C15.9973 28.6252 16.2144 28.7135 16.4404 28.7135C16.6664 28.7135 16.8834 28.6252 17.0452 28.4673C17.1742 28.2724 17.2359 28.0407 17.221 27.8074C17.2061 27.5742 17.1154 27.3522 16.9627 27.1752ZM15.6431 25.3883L14.3235 24.0687L22.0349 16.3574L23.3545 17.677L15.6431 25.3883Z" fill="#2A317F"/>
</g>
<defs>
<clipPath id="clip0_654_8555">
<rect width="26.6667" height="23.8351" fill="white" transform="translate(6.66602 8)"/>
</clipPath>
</defs>
</svg>
