<svg width="40" height="40" viewBox="0 0 40 40" fill="none" xmlns="http://www.w3.org/2000/svg">
<rect width="40" height="40" rx="20" fill="#F8AD39"/>
<g clip-path="url(#clip0_654_8527)">
<path d="M14.4913 15.5261C14.5329 15.4055 14.5987 15.2946 14.6849 15.2005C14.771 15.1063 14.8756 15.0309 14.9921 14.9788C15.1086 14.9258 15.2344 14.8964 15.3624 14.8924C15.4903 14.8884 15.6178 14.9099 15.7373 14.9555L17.1347 15.4679C17.5012 14.9013 17.9396 14.3846 18.4389 13.9308L17.7752 12.4635C17.7179 12.3506 17.6852 12.2269 17.6792 12.1004C17.6731 11.974 17.694 11.8477 17.7403 11.7299C17.7837 11.6085 17.8516 11.4973 17.9397 11.4032C18.0279 11.309 18.1343 11.2339 18.2526 11.1826L20.0809 10.3442C20.1946 10.2896 20.3181 10.2584 20.4441 10.2524C20.5701 10.2464 20.6961 10.2657 20.8145 10.3092C20.9366 10.3514 21.0484 10.4189 21.1427 10.5071C21.237 10.5954 21.3117 10.7026 21.3618 10.8216L21.979 12.1491C22.6421 12.0192 23.3193 11.9762 23.9935 12.021L24.5641 10.4955C24.6018 10.3761 24.6651 10.2663 24.7496 10.1737C24.834 10.0812 24.9376 10.0083 25.0532 9.95988C25.1689 9.9042 25.295 9.87336 25.4234 9.86935C25.5517 9.86533 25.6795 9.88824 25.7985 9.93659L27.6733 10.6236C27.7944 10.6677 27.9053 10.7358 27.9993 10.8239C28.0934 10.9119 28.1687 11.0181 28.2206 11.136C28.2792 11.2508 28.3117 11.3772 28.3158 11.506C28.3198 11.6349 28.2953 11.763 28.2439 11.8813L27.7315 13.267C28.3017 13.6379 28.8222 14.0801 29.2803 14.5829L30.7359 13.9075C30.8524 13.8544 30.9782 13.8251 31.1062 13.8211C31.2341 13.8171 31.3616 13.8385 31.4812 13.8842C31.6003 13.9258 31.7095 13.9919 31.8018 14.0781C31.894 14.1643 31.9672 14.2688 32.0168 14.3849L32.8669 16.2248C32.9196 16.3393 32.9488 16.4632 32.9528 16.5893C32.9568 16.7153 32.9355 16.8408 32.8902 16.9584C32.8469 17.0781 32.7803 17.1881 32.6944 17.282C32.6085 17.376 32.5048 17.452 32.3895 17.5057L31.0503 18.1113C31.1783 18.7825 31.2252 19.4667 31.19 20.1491L32.7039 20.7081C32.8251 20.745 32.9369 20.8079 33.0314 20.8923C33.1259 20.9768 33.2009 21.0808 33.2512 21.1971C33.3042 21.3136 33.3336 21.4395 33.3376 21.5674C33.3416 21.6954 33.3201 21.8228 33.2745 21.9424L32.5758 23.8289C32.5298 23.9475 32.4609 24.0559 32.373 24.1478C32.2851 24.2397 32.1798 24.3134 32.0634 24.3645C31.9497 24.4191 31.8261 24.4503 31.7001 24.4563C31.5741 24.4623 31.4482 24.443 31.3298 24.3995L29.9324 23.8755C29.5618 24.4424 29.1195 24.959 28.6165 25.4126L29.2919 26.8798C29.3492 26.9927 29.3819 27.1165 29.388 27.2429C29.394 27.3693 29.3732 27.4956 29.3269 27.6134C29.2834 27.7349 29.2155 27.8461 29.1274 27.9402C29.0393 28.0343 28.9328 28.1094 28.8145 28.1608L26.9862 28.9992C26.8717 29.0519 26.7478 29.0811 26.6218 29.0851C26.4958 29.0891 26.3703 29.0678 26.2526 29.0225C26.1295 28.983 26.0161 28.918 25.9198 28.8317C25.8235 28.7454 25.7464 28.6398 25.6937 28.5217L25.0881 27.1826C24.4215 27.316 23.7405 27.3629 23.0619 27.3223L22.503 28.8362C22.4634 28.9578 22.3982 29.0696 22.3119 29.164C22.2255 29.2584 22.1199 29.3332 22.0023 29.3835C21.8895 29.4419 21.765 29.4743 21.6381 29.4784C21.5111 29.4824 21.3849 29.4579 21.2686 29.4068L19.3705 28.7197C19.133 28.6258 18.9411 28.4436 18.8347 28.2114C18.7284 27.9792 18.7159 27.7149 18.7999 27.4737L19.3356 26.0763C19.1459 25.9589 18.9632 25.8306 18.7883 25.6921L20.174 24.9934C20.4325 24.8616 20.7253 24.8128 21.0124 24.8536L21.5248 25.0749C22.2211 25.3318 22.9607 25.4505 23.7024 25.4242C24.8467 25.3852 25.9539 25.0083 26.8844 24.341C27.8148 23.6737 28.5269 22.7459 28.9309 21.6746C29.1943 20.9658 29.3145 20.2118 29.2845 19.4562C29.2546 18.7006 29.075 17.9585 28.7563 17.2728C27.7781 15.1418 25.717 13.8609 23.3531 13.9075C22.0944 13.9457 20.8831 14.3959 19.9049 15.1889C18.9268 15.982 18.2359 17.074 17.9382 18.2976C17.7403 18.6469 17.5539 18.9264 17.3676 19.0079L15.8654 19.7532C15.8654 19.5785 15.8771 19.3922 15.8887 19.2175L14.3632 18.6353C14.242 18.5984 14.1302 18.5355 14.0357 18.451C13.9412 18.3666 13.8662 18.2626 13.8159 18.1462C13.7629 18.0297 13.7335 17.9038 13.7295 17.7759C13.7255 17.648 13.747 17.5205 13.7927 17.4009L14.4913 15.5261ZM10.6485 30.0589C9.55393 30.1287 8.41274 29.6513 7.51609 28.8012C12.011 28.8129 11.1609 23.3514 6.66602 25.203C7.28319 22.9672 9.27446 22.0822 11.4288 22.5479C12.5583 22.7925 13.2337 22.9905 14.3167 22.5014L18.1362 20.6266C20.1624 19.66 19.7781 16.0385 23.2017 15.8289C24.2963 15.759 25.4375 16.2364 26.3341 17.0749C21.8392 17.0749 22.6893 22.5363 27.1842 20.6848C26.567 22.9206 24.5758 23.8056 22.4215 23.3398C21.4782 23.1418 20.7563 22.7226 19.3822 23.3864L15.7723 25.203C15.0619 25.5872 14.8174 25.8318 14.4215 26.5305C13.4433 28.2423 12.9426 29.9191 10.6485 30.0589Z" fill="#2A317F"/>
</g>
<defs>
<clipPath id="clip0_654_8527">
<rect width="26.6667" height="20.1921" fill="white" transform="translate(6.66602 9.8667)"/>
</clipPath>
</defs>
</svg>
