<svg width="40" height="40" viewBox="0 0 40 40" fill="none" xmlns="http://www.w3.org/2000/svg">
<rect width="40" height="40" rx="20" fill="#2A317F"/>
<g clip-path="url(#clip0_515_16049)">
<path d="M14.4913 15.5261C14.5329 15.4054 14.5987 15.2946 14.6849 15.2004C14.771 15.1063 14.8756 15.0308 14.9921 14.9787C15.1086 14.9257 15.2344 14.8963 15.3624 14.8923C15.4903 14.8883 15.6178 14.9098 15.7373 14.9555L17.1347 15.4678C17.5012 14.9012 17.9396 14.3845 18.4389 13.9307L17.7752 12.4635C17.7179 12.3506 17.6852 12.2268 17.6792 12.1004C17.6731 11.9739 17.694 11.8477 17.7403 11.7298C17.7837 11.6084 17.8516 11.4972 17.9397 11.4031C18.0279 11.309 18.1343 11.2339 18.2526 11.1825L20.0809 10.3441C20.1946 10.2895 20.3181 10.2583 20.4441 10.2523C20.5701 10.2463 20.6961 10.2656 20.8145 10.3092C20.9366 10.3514 21.0484 10.4188 21.1427 10.5071C21.237 10.5953 21.3117 10.7025 21.3618 10.8215L21.979 12.149C22.6421 12.0192 23.3193 11.9761 23.9935 12.021L24.5641 10.4955C24.6018 10.376 24.6651 10.2662 24.7496 10.1737C24.834 10.0812 24.9376 10.0082 25.0532 9.95982C25.1689 9.90414 25.295 9.8733 25.4234 9.86928C25.5517 9.86527 25.6795 9.88818 25.7985 9.93653L27.6733 10.6236C27.7944 10.6676 27.9053 10.7357 27.9993 10.8238C28.0934 10.9119 28.1687 11.018 28.2206 11.1359C28.2792 11.2508 28.3117 11.3771 28.3158 11.506C28.3198 11.6348 28.2953 11.763 28.2439 11.8812L27.7315 13.267C28.3017 13.6379 28.8222 14.08 29.2803 14.5828L30.7359 13.9074C30.8524 13.8544 30.9782 13.825 31.1062 13.821C31.2341 13.817 31.3616 13.8385 31.4812 13.8841C31.6003 13.9258 31.7095 13.9918 31.8018 14.078C31.894 14.1643 31.9672 14.2687 32.0168 14.3849L32.8669 16.2247C32.9196 16.3393 32.9488 16.4632 32.9528 16.5892C32.9568 16.7152 32.9355 16.8407 32.8902 16.9584C32.8469 17.0781 32.7803 17.188 32.6944 17.282C32.6085 17.3759 32.5048 17.4519 32.3895 17.5057L31.0503 18.1112C31.1783 18.7824 31.2252 19.4666 31.19 20.1491L32.7039 20.708C32.8251 20.7449 32.9369 20.8078 33.0314 20.8923C33.1259 20.9767 33.2009 21.0807 33.2512 21.1971C33.3042 21.3136 33.3336 21.4394 33.3376 21.5674C33.3416 21.6953 33.3201 21.8228 33.2745 21.9424L32.5758 23.8288C32.5298 23.9474 32.4609 24.0558 32.373 24.1477C32.2851 24.2396 32.1798 24.3133 32.0634 24.3645C31.9497 24.4191 31.8261 24.4503 31.7001 24.4563C31.5741 24.4623 31.4482 24.4429 31.3298 24.3994L29.9324 23.8754C29.5618 24.4423 29.1195 24.959 28.6165 25.4125L29.2919 26.8798C29.3492 26.9927 29.3819 27.1164 29.388 27.2428C29.394 27.3693 29.3732 27.4956 29.3269 27.6134C29.2834 27.7348 29.2155 27.846 29.1274 27.9401C29.0393 28.0343 28.9328 28.1093 28.8145 28.1607L26.9862 28.9991C26.8717 29.0518 26.7478 29.0811 26.6218 29.0851C26.4958 29.0891 26.3703 29.0678 26.2526 29.0224C26.1295 28.9829 26.0161 28.9179 25.9198 28.8316C25.8235 28.7454 25.7464 28.6397 25.6937 28.5217L25.0881 27.1825C24.4215 27.3159 23.7405 27.3629 23.0619 27.3223L22.503 28.8361C22.4634 28.9578 22.3982 29.0696 22.3119 29.164C22.2255 29.2584 22.1199 29.3332 22.0023 29.3834C21.8895 29.4418 21.765 29.4743 21.6381 29.4783C21.5111 29.4823 21.3849 29.4579 21.2686 29.4067L19.3705 28.7196C19.133 28.6257 18.9411 28.4436 18.8347 28.2114C18.7284 27.9792 18.7159 27.7148 18.7999 27.4737L19.3356 26.0763C19.1459 25.9588 18.9632 25.8305 18.7883 25.692L20.174 24.9933C20.4325 24.8615 20.7253 24.8127 21.0124 24.8536L21.5248 25.0748C22.2211 25.3318 22.9607 25.4504 23.7024 25.4242C24.8467 25.3851 25.9539 25.0082 26.8844 24.341C27.8148 23.6737 28.5269 22.7459 28.9309 21.6745C29.1943 20.9657 29.3145 20.2117 29.2845 19.4562C29.2546 18.7006 29.075 17.9585 28.7563 17.2728C27.7781 15.1418 25.717 13.8608 23.3531 13.9074C22.0944 13.9457 20.8831 14.3958 19.9049 15.1889C18.9268 15.9819 18.2359 17.074 17.9382 18.2975C17.7403 18.6469 17.5539 18.9263 17.3676 19.0079L15.8654 19.7531C15.8654 19.5785 15.8771 19.3921 15.8887 19.2175L14.3632 18.6352C14.242 18.5983 14.1302 18.5354 14.0357 18.451C13.9412 18.3665 13.8662 18.2625 13.8159 18.1461C13.7629 18.0296 13.7335 17.9038 13.7295 17.7758C13.7255 17.6479 13.747 17.5204 13.7927 17.4009L14.4913 15.5261ZM10.6485 30.0588C9.55393 30.1287 8.41274 29.6512 7.51609 28.8012C12.011 28.8128 11.1609 23.3514 6.66602 25.2029C7.28319 22.9671 9.27446 22.0821 11.4288 22.5479C12.5583 22.7924 13.2337 22.9904 14.3167 22.5013L18.1362 20.6265C20.1624 19.66 19.7781 16.0384 23.2017 15.8288C24.2963 15.7589 25.4375 16.2364 26.3341 17.0748C21.8392 17.0748 22.6893 22.5362 27.1842 20.6847C26.567 22.9205 24.5758 23.8055 22.4215 23.3397C21.4782 23.1418 20.7563 22.7226 19.3822 23.3863L15.7723 25.2029C15.0619 25.5872 14.8174 25.8317 14.4215 26.5304C13.4433 28.2422 12.9426 29.9191 10.6485 30.0588Z" fill="#F8AD39"/>
</g>
<defs>
<clipPath id="clip0_515_16049">
<rect width="26.6667" height="20.1921" fill="white" transform="translate(6.66602 9.86664)"/>
</clipPath>
</defs>
</svg>
