<svg width="40" height="40" viewBox="0 0 40 40" fill="none" xmlns="http://www.w3.org/2000/svg">
<rect width="40" height="40" rx="20" fill="#F8AD39"/>
<g clip-path="url(#clip0_654_8571)">
<path d="M19.9233 21.9377C20.951 21.9377 21.7841 21.1046 21.7841 20.0769C21.7841 19.0492 20.951 18.2161 19.9233 18.2161C18.8956 18.2161 18.0625 19.0492 18.0625 20.0769C18.0625 21.1046 18.8956 21.9377 19.9233 21.9377Z" fill="#2A317F"/>
<path d="M29.5341 26.5514C29.3666 26.4462 29.2441 26.2827 29.1901 26.0924C29.1361 25.9021 29.1546 25.6985 29.242 25.521C29.4573 25.1366 29.9032 25.0751 30.2877 25.2135L31.7794 26.0439C32.6279 24.4255 33.1109 22.6406 33.1943 20.8152H31.4719C31.2761 20.8152 31.0883 20.7374 30.9499 20.5989C30.8115 20.4605 30.7337 20.2728 30.7337 20.077C30.7337 19.8812 30.8115 19.6934 30.9499 19.555C31.0883 19.4166 31.2761 19.3388 31.4719 19.3388H33.1943C33.1025 17.5221 32.642 15.7431 31.8409 14.11L30.3646 14.9405C30.2763 14.9913 30.1786 15.0237 30.0774 15.0358C29.9762 15.0478 29.8737 15.0392 29.7759 15.0104C29.6782 14.9817 29.5873 14.9334 29.5087 14.8685C29.4301 14.8036 29.3656 14.7235 29.3188 14.6329C29.2677 14.5467 29.2347 14.451 29.2218 14.3517C29.2088 14.2523 29.2162 14.1514 29.2436 14.055C29.2709 13.9586 29.3176 13.8687 29.3808 13.7909C29.4439 13.7132 29.5223 13.6491 29.611 13.6025L31.1028 12.7721C30.1339 11.2188 28.796 9.94241 27.3042 8.89666L26.4892 10.3884C26.3791 10.5547 26.2138 10.6768 26.0224 10.7331C25.8311 10.7894 25.626 10.7762 25.4434 10.696C25.2771 10.5859 25.155 10.4206 25.0987 10.2292C25.0424 10.0379 25.0556 9.83281 25.1358 9.65022L25.9663 8.15848C24.3527 7.31167 22.5732 6.82873 20.7529 6.74364V8.37378C20.7573 8.4739 20.7408 8.57384 20.7044 8.66724C20.6681 8.76063 20.6128 8.84546 20.5419 8.91632C20.471 8.98718 20.3862 9.04254 20.2928 9.07886C20.1994 9.11519 20.0995 9.1317 19.9993 9.12734C19.8999 9.13189 19.8006 9.11539 19.7079 9.07892C19.6153 9.04245 19.5314 8.98683 19.4617 8.9157C19.392 8.84457 19.3381 8.75953 19.3036 8.66615C19.269 8.57276 19.2546 8.47314 19.2612 8.37378V6.66675C17.4516 6.76083 15.6791 7.21573 14.0478 8.00469L14.8629 9.49643C14.9191 9.58456 14.9567 9.68322 14.9735 9.78638C14.9903 9.88955 14.9859 9.99506 14.9605 10.0965C14.9352 10.1979 14.8894 10.293 14.826 10.3761C14.7626 10.4593 14.683 10.5286 14.5919 10.5799C14.5008 10.6312 14.4003 10.6634 14.2963 10.6745C14.1924 10.6856 14.0873 10.6754 13.9874 10.6445C13.8876 10.6137 13.795 10.5627 13.7155 10.4949C13.636 10.4271 13.5711 10.3437 13.5249 10.25L12.6945 8.75825C11.1412 9.72711 9.86479 11.0651 8.81903 12.5568L10.3108 13.3719C10.6952 13.6025 10.7568 14.0485 10.6183 14.4176C10.5081 14.5837 10.3418 14.7046 10.1498 14.7583C9.95784 14.8119 9.75295 14.7947 9.57259 14.7098L8.08086 13.8947C7.23405 15.5083 6.75111 17.2878 6.66602 19.1081H8.37305C8.47998 19.0927 8.58897 19.1005 8.69263 19.1309C8.79629 19.1613 8.8922 19.2137 8.97385 19.2844C9.0555 19.3552 9.12099 19.4426 9.16587 19.5409C9.21076 19.6392 9.23398 19.746 9.23398 19.854C9.23398 19.962 9.21076 20.0688 9.16587 20.1671C9.12099 20.2653 9.0555 20.3528 8.97385 20.4235C8.8922 20.4943 8.79629 20.5466 8.69263 20.577C8.58897 20.6075 8.47998 20.6152 8.37305 20.5999H6.66602C6.76214 22.4091 7.21694 24.1813 8.00396 25.8132L9.4957 24.9982C9.86479 24.7675 10.3108 24.9213 10.5414 25.2904C10.6411 25.4678 10.6662 25.6776 10.6115 25.8736C10.5567 26.0696 10.4264 26.236 10.2493 26.3361L8.75752 27.1512C9.72638 28.7198 11.0643 29.9809 12.5561 31.0266L13.3711 29.5349C13.4813 29.3688 13.6476 29.2478 13.8396 29.1942C14.0316 29.1405 14.2365 29.1578 14.4169 29.2427C14.786 29.458 14.8629 29.904 14.7091 30.2884L13.894 31.7802C15.5076 32.627 17.2871 33.1099 19.1074 33.195V31.4726C19.1332 31.2932 19.2228 31.1291 19.3598 31.0104C19.4968 30.8917 19.672 30.8264 19.8533 30.8264C20.0345 30.8264 20.2097 30.8917 20.3467 31.0104C20.4837 31.1291 20.5733 31.2932 20.5991 31.4726V33.3334C22.4106 33.2521 24.1857 32.7966 25.8125 31.9955L24.9974 30.5037C24.7667 30.1346 24.9205 29.6887 25.2896 29.458C25.3784 29.4093 25.476 29.3786 25.5767 29.3677C25.6774 29.3568 25.7792 29.3659 25.8764 29.3945C25.9736 29.423 26.0642 29.4705 26.1429 29.5342C26.2217 29.5979 26.2871 29.6765 26.3354 29.7656L27.1504 31.2573C28.7191 30.2884 29.9801 28.9505 31.0259 27.4588L29.5341 26.5514ZM28.796 21.9378C28.5589 23.0507 28.1268 24.1128 27.5195 25.0751C25.8125 23.4295 23.8748 22.6145 23.1981 23.3526C22.5215 24.0908 23.275 26.0439 24.9205 27.6741C23.965 28.2943 22.9004 28.7275 21.7833 28.9505C21.7218 26.5514 20.8913 24.6906 19.9225 24.6906C18.9536 24.6906 18.0616 26.5514 18.0616 28.9505C16.9545 28.7105 15.8979 28.2785 14.9398 27.6741C16.5699 25.967 17.3235 24.0293 16.6468 23.3526C15.9701 22.676 14.0478 23.4295 12.3254 25.0751C11.6932 24.1275 11.2638 23.0593 11.0643 21.9378C13.448 21.8609 15.3857 21.0458 15.3857 20.077C15.3857 19.1081 13.448 18.2162 11.0643 18.2162C11.2755 17.1219 11.7043 16.0812 12.3254 15.1558C14.0478 16.8013 15.9855 17.5395 16.6468 16.8782C17.3081 16.2169 16.5699 14.1869 14.9398 12.5568C15.8979 11.9523 16.9545 11.5203 18.0616 11.2804C18.1385 13.6641 18.9536 15.5403 19.9225 15.5403C20.8913 15.5403 21.7833 13.6025 21.7833 11.2188C22.8975 11.4434 23.9609 11.8708 24.9205 12.4799C23.275 14.1869 22.5368 16.1246 23.1981 16.8013C23.8594 17.478 25.8125 16.7244 27.5195 15.0789C28.1365 16.0082 28.5698 17.047 28.796 18.1393C26.4123 18.2162 24.5514 19.0312 24.5514 20.0001C24.5514 20.9689 26.4892 21.9378 28.796 21.9378Z" fill="#2A317F"/>
</g>
<defs>
<clipPath id="clip0_654_8571">
<rect width="26.5283" height="26.6667" fill="white" transform="translate(6.66602 6.66675)"/>
</clipPath>
</defs>
</svg>
