<svg width="40" height="40" viewBox="0 0 40 40" fill="none" xmlns="http://www.w3.org/2000/svg">
<rect width="40" height="40" rx="20" fill="#F8AD39"/>
<g clip-path="url(#clip0_654_8585)">
<path d="M14.3878 23.2383H13.1706C12.5313 23.226 12.1871 22.8818 12.1871 22.2547C12.1748 22.0457 12.1871 21.8244 12.1871 21.5662H7.44141V18.3697H12.1871C12.1871 18.0992 12.1748 17.8656 12.1871 17.6197C12.1871 17.0665 12.5436 16.7099 13.0969 16.6976H14.3878V16.3288C14.3878 15.0502 14.3632 13.7716 14.4001 12.4806C14.4068 11.7145 14.6927 10.9772 15.2042 10.4068C15.7157 9.8364 16.4177 9.4722 17.1786 9.38244C17.904 9.28409 18.6539 9.35785 19.4039 9.35785V30.6027C18.2359 30.5535 17.0311 30.8117 15.9615 30.1109C14.8918 29.4101 14.4247 28.5987 14.4001 27.443C14.3755 26.2873 14.3878 24.898 14.3878 23.6194V23.2383ZM18.6294 13.4642C18.5433 13.2675 18.5064 13.1077 18.4081 13.0093C17.9409 12.5298 17.4737 12.0503 16.9819 11.5954C16.9323 11.5382 16.8709 11.4922 16.802 11.4607C16.733 11.4292 16.6581 11.4129 16.5823 11.4129C16.5065 11.4129 16.4316 11.4292 16.3627 11.4607C16.2938 11.4922 16.2324 11.5382 16.1828 11.5954C16.1255 11.6451 16.0795 11.7064 16.048 11.7754C16.0166 11.8443 16.0003 11.9192 16.0003 11.995C16.0003 12.0708 16.0166 12.1457 16.048 12.2147C16.0795 12.2836 16.1255 12.345 16.1828 12.3946C16.65 12.8864 17.1417 13.3658 17.6212 13.8453C17.8056 14.0297 18.0515 14.0912 18.2605 13.9437C18.4695 13.7962 18.5064 13.6363 18.6294 13.4642ZM18.6294 16.4026C18.531 16.1936 18.5064 16.0214 18.4081 15.9108C17.9409 15.419 17.4491 14.9395 16.9696 14.4723C16.9182 14.4195 16.8566 14.3778 16.7885 14.3497C16.7203 14.3216 16.6472 14.3076 16.5735 14.3088C16.4999 14.3099 16.4272 14.3261 16.36 14.3564C16.2928 14.3866 16.2325 14.4303 16.1828 14.4846C16.1267 14.5334 16.0816 14.5933 16.0503 14.6606C16.019 14.7279 16.0022 14.8011 16.0011 14.8753C15.9999 14.9495 16.0144 15.0232 16.0436 15.0914C16.0728 15.1597 16.116 15.221 16.1705 15.2715C16.65 15.7756 17.1417 16.2673 17.6458 16.7591C17.8179 16.9189 18.0392 16.9927 18.2359 16.8575C18.4326 16.7222 18.5064 16.5624 18.6294 16.4026ZM16.6745 26.0291C16.3303 26.0291 16.1459 26.1644 16.0475 26.3857C16.0026 26.4943 15.9927 26.6143 16.0191 26.7289C16.0455 26.8435 16.107 26.947 16.1951 27.025L17.5966 28.4266C17.6715 28.4991 17.759 28.5574 17.8548 28.5987C17.9612 28.6409 18.0789 28.6457 18.1884 28.6122C18.2979 28.5787 18.3927 28.5089 18.4572 28.4143C18.5412 28.2915 18.5798 28.1434 18.5664 27.9953C18.5529 27.8472 18.4882 27.7084 18.3835 27.6028C17.9327 27.1274 17.4655 26.6602 16.9819 26.2013C16.889 26.1283 16.7853 26.0703 16.6745 26.0291ZM18.0392 25.7341C18.2113 25.6111 18.3958 25.5251 18.4941 25.3775C18.556 25.2662 18.5776 25.1368 18.5552 25.0114C18.5328 24.8859 18.4678 24.7721 18.3712 24.689C17.904 24.2096 17.4245 23.7301 16.945 23.2629C16.6868 23.0047 16.3549 23.0047 16.1213 23.2383C15.8877 23.4719 15.8877 23.8161 16.1705 24.0866C16.6377 24.5538 17.1048 25.0087 17.5966 25.4636C17.7366 25.5656 17.8846 25.6561 18.0392 25.7341ZM18.6048 22.2793C18.531 22.1072 18.5187 21.9597 18.4326 21.8736C17.9163 21.3327 17.3999 20.804 16.859 20.2876C16.754 20.1978 16.618 20.1526 16.4801 20.1618C16.3422 20.171 16.2134 20.2338 16.1213 20.3368C15.9123 20.5458 15.8631 20.8778 16.0721 21.0745C16.6008 21.6277 17.154 22.1564 17.7196 22.6482C17.8425 22.7588 18.1253 22.7465 18.2851 22.685C18.4449 22.6236 18.5064 22.4146 18.6048 22.2793ZM18.6171 19.3164C18.5433 19.1196 18.531 18.9475 18.4326 18.8492C17.9409 18.3328 17.4245 17.8164 16.9081 17.3247C16.8059 17.2393 16.6746 17.1968 16.5417 17.2059C16.4088 17.2151 16.2846 17.2753 16.1951 17.3738C15.9738 17.5828 15.9246 17.9025 16.1213 18.1115C16.6377 18.6525 17.1663 19.1811 17.7073 19.6975C17.778 19.7754 17.8756 19.8237 17.9804 19.8328C18.0853 19.8419 18.1897 19.8112 18.2728 19.7467C18.4072 19.6201 18.5231 19.4752 18.6171 19.3164Z" fill="#2A317F"/>
<path d="M27.8248 18.4311H32.5582V21.6154H27.8248V22.3654C27.8125 22.9186 27.4683 23.2874 26.9028 23.2874H25.575C25.575 23.4104 25.5627 23.5087 25.5627 23.6071C25.5627 24.7874 25.5381 25.9676 25.5627 27.1479C25.5873 28.0946 25.2184 28.8691 24.5299 29.4961C23.7621 30.2384 22.7332 30.649 21.6653 30.6395H20.5957V9.39472C21.1981 9.39472 21.7883 9.37013 22.3784 9.39472C24.284 9.45619 25.6118 10.8332 25.6241 12.7388V16.7468H26.9273C27.1085 16.741 27.2868 16.7926 27.437 16.8941C27.5871 16.9957 27.7013 17.1421 27.7634 17.3123C27.7957 17.4288 27.8163 17.5483 27.8248 17.6689V18.4311ZM21.985 22.8326L22.0464 22.7834L22.3046 22.6973L22.4399 22.599L23.8783 21.1605C24.1119 20.9023 24.1242 20.5827 23.9152 20.3737C23.7062 20.1647 23.362 20.0786 23.1284 20.2999C22.5997 20.804 22.071 21.3203 21.5793 21.8736C21.4809 21.9842 21.4686 22.2793 21.5301 22.4391C21.5916 22.599 21.8251 22.6973 21.985 22.8326ZM21.9727 25.7217C22.1571 25.648 22.2923 25.6234 22.3661 25.5496C22.8948 25.0333 23.4234 24.5292 23.9275 23.9882C24.0103 23.8787 24.0504 23.7429 24.0404 23.606C24.0304 23.4691 23.971 23.3405 23.8731 23.2442C23.7753 23.1479 23.6458 23.0905 23.5088 23.0826C23.3718 23.0747 23.2366 23.1169 23.1284 23.2014C22.5997 23.7055 22.071 24.2218 21.5916 24.7628C21.4809 24.8857 21.4686 25.1685 21.5301 25.3283C21.5916 25.4882 21.8251 25.5988 21.9727 25.7217ZM23.5341 11.3004C23.3497 11.3864 23.2144 11.411 23.1161 11.4971C22.5997 12.0011 22.0833 12.5052 21.5916 13.0339C21.4986 13.1358 21.4492 13.2699 21.4538 13.4077C21.4584 13.5455 21.5167 13.6761 21.6161 13.7715C21.6612 13.827 21.717 13.8728 21.7803 13.9061C21.8435 13.9395 21.9129 13.9596 21.9841 13.9653C22.0554 13.9711 22.127 13.9623 22.1948 13.9396C22.2626 13.9168 22.325 13.8806 22.3784 13.833C22.9071 13.3289 23.4234 12.8003 23.9275 12.2716C24.0081 12.2004 24.0591 12.1016 24.0705 11.9946C24.0819 11.8877 24.0528 11.7804 23.989 11.6938C23.8579 11.5406 23.7045 11.408 23.5341 11.3004ZM24.1365 26.5332C23.9767 26.3611 23.866 26.1766 23.6939 26.0783C23.5218 25.9799 23.239 26.0291 23.0546 26.2135L21.653 27.6151C21.3948 27.8856 21.3948 28.2052 21.6161 28.4511C21.8374 28.697 22.194 28.697 22.4645 28.4265C22.9316 27.9716 23.3988 27.5167 23.8414 27.0373C23.9521 26.9266 24.0136 26.7422 24.1365 26.5332ZM24.1242 14.8412C23.989 14.6813 23.8783 14.4846 23.7062 14.374C23.6081 14.3169 23.4933 14.2956 23.3813 14.3135C23.2693 14.3314 23.1669 14.3875 23.0915 14.4723C22.5997 14.9641 22.1079 15.4436 21.6284 15.9354C21.5726 15.9872 21.528 16.0499 21.4975 16.1197C21.4671 16.1896 21.4513 16.2649 21.4513 16.3411C21.4513 16.4173 21.4671 16.4926 21.4975 16.5624C21.528 16.6322 21.5726 16.695 21.6284 16.7468C21.862 16.9804 22.1817 16.9804 22.4522 16.7222C22.9316 16.255 23.3988 15.7878 23.866 15.3083C23.9656 15.1605 24.052 15.0042 24.1242 14.8412ZM21.9727 19.8819C22.1571 19.7958 22.3046 19.7589 22.3907 19.6729C22.9071 19.1688 23.4234 18.6647 23.9275 18.1361C24.1365 17.9148 24.0996 17.5951 23.8783 17.3738C23.657 17.1525 23.3497 17.1402 23.1284 17.3492C22.5997 17.8533 22.071 18.3697 21.5916 18.9106C21.4809 19.0213 21.4686 19.3163 21.5301 19.4762C21.5916 19.636 21.8251 19.7466 21.9727 19.8819Z" fill="#2A317F"/>
<path d="M9.03968 11.5832C9.03108 11.3823 9.03518 11.1811 9.05197 10.9808C9.06427 10.8701 9.11344 10.6857 9.18721 10.6611C9.32599 10.618 9.47614 10.6313 9.60522 10.698C9.79349 10.8223 9.97413 10.9578 10.1462 11.1037L11.5723 12.2225C11.9166 12.5053 11.9166 12.8864 11.56 13.1692C10.933 13.6609 10.306 14.1527 9.66669 14.6322C9.56328 14.7106 9.43952 14.7575 9.31016 14.7674C9.27189 14.7697 9.23362 14.7634 9.1981 14.749C9.16259 14.7345 9.13073 14.7124 9.10483 14.6842C9.07893 14.6559 9.05965 14.6222 9.04838 14.5856C9.03711 14.549 9.03414 14.5103 9.03968 14.4724C9.05197 14.2511 9.03968 14.0421 9.03968 13.7839H7.07257C6.82668 13.7716 6.67914 13.6364 6.67914 13.3905C6.66685 12.9233 6.66685 12.4684 6.67914 12.0012C6.67914 11.7184 6.82668 11.5955 7.13404 11.5955H9.03968V11.5832Z" fill="#2A317F"/>
<path d="M30.9597 26.2013H32.3613C33.3326 26.2013 33.3326 26.2013 33.3326 27.148C33.3326 27.3816 33.3449 27.6275 33.3326 27.861C33.3203 28.0946 33.1973 28.3282 32.8531 28.3405H30.9597C30.9683 28.566 30.9642 28.7917 30.9474 29.0167C30.9351 29.1274 30.886 29.2872 30.7999 29.3118C30.741 29.3336 30.6777 29.3405 30.6155 29.3319C30.5533 29.3234 30.4941 29.2995 30.4434 29.2626C29.7672 28.7708 29.0787 28.2668 28.4148 27.7504C28.0828 27.4922 28.0951 27.0988 28.4271 26.8406C29.0787 26.3119 29.7426 25.7956 30.4065 25.2915C30.4623 25.2554 30.525 25.2313 30.5906 25.2207C30.6562 25.2101 30.7233 25.2133 30.7876 25.23C30.8837 25.3196 30.941 25.4431 30.9474 25.5743C30.9705 25.7825 30.9746 25.9923 30.9597 26.2013Z" fill="#2A317F"/>
</g>
<defs>
<clipPath id="clip0_654_8585">
<rect width="26.6667" height="21.3186" fill="white" transform="translate(6.66602 9.33325)"/>
</clipPath>
</defs>
</svg>
