<svg width="35" height="35" viewBox="0 0 35 35" fill="none" xmlns="http://www.w3.org/2000/svg">
<rect width="35" height="35" rx="17.5" fill="#3F4696"/>
<g clip-path="url(#clip0_416_5773)">
<path d="M20.6026 13.959C19.7784 13.3138 18.7815 12.9274 17.7378 12.8486C16.6941 12.7699 15.6504 13.0022 14.7387 13.5164C13.827 14.0305 13.0882 14.8034 12.6156 15.7373C12.143 16.6712 11.9578 17.7242 12.0835 18.7633C12.2091 19.8024 12.64 20.781 13.3216 21.5753C14.0032 22.3696 14.9049 22.9441 15.9129 23.2261C16.9209 23.5081 17.9898 23.485 18.9847 23.1597C19.9795 22.8344 20.8556 22.2215 21.5022 21.3984C21.9323 20.8511 22.2501 20.2244 22.4376 19.5541C22.6252 18.8838 22.6787 18.1831 22.5951 17.4922C22.5116 16.8012 22.2926 16.1334 21.9507 15.5272C21.6088 14.9209 21.1507 14.388 20.6026 13.959ZM21.0409 17.1308C21.1188 17.1204 21.1979 17.1262 21.2734 17.1481C21.3489 17.1699 21.419 17.2073 21.4792 17.2577C21.6017 17.3637 21.68 17.5119 21.6983 17.6729C21.7074 17.7508 21.7009 17.8296 21.6791 17.9049C21.6573 17.9802 21.6207 18.0503 21.5715 18.1112C21.4628 18.2304 21.3159 18.3079 21.1562 18.3304C20.9981 18.3395 20.8421 18.2903 20.7179 18.192C20.7149 18.192 20.7119 18.1908 20.7098 18.1886C20.7076 18.1864 20.7064 18.1835 20.7064 18.1804C20.6123 18.1063 20.5431 18.0053 20.508 17.8908C20.4729 17.7763 20.4736 17.6538 20.5099 17.5397C20.5463 17.4256 20.6166 17.3253 20.7115 17.2523C20.8064 17.1792 20.9213 17.1368 21.0409 17.1308ZM20.2104 14.4549C20.3022 14.522 20.3794 14.6068 20.4375 14.7045C20.4955 14.8021 20.5332 14.9105 20.5483 15.0231C20.5634 15.1357 20.5555 15.2502 20.5252 15.3597C20.4949 15.4691 20.4427 15.5714 20.3718 15.6601C20.301 15.7489 20.2129 15.8224 20.1128 15.8763C20.0128 15.9301 19.9029 15.9632 19.7897 15.9734C19.6766 15.9837 19.5626 15.9709 19.4545 15.9359C19.3464 15.9009 19.2465 15.8444 19.1608 15.7698C19.0733 15.7012 19.0003 15.6159 18.9459 15.5189C18.8915 15.4219 18.8569 15.3151 18.844 15.2047C18.8312 15.0942 18.8403 14.9823 18.8709 14.8754C18.9015 14.7685 18.953 14.6687 19.0224 14.5818C19.1677 14.4144 19.371 14.3082 19.5915 14.2846C19.8119 14.2611 20.0331 14.322 20.2104 14.4549ZM16.9117 13.7398C16.992 13.7335 17.0728 13.7432 17.1494 13.7682C17.226 13.7933 17.2969 13.8332 17.3579 13.8857C17.419 13.9382 17.4692 14.0023 17.5054 14.0743C17.5416 14.1462 17.5633 14.2246 17.5691 14.305C17.582 14.4654 17.531 14.6244 17.4274 14.7475C17.3237 14.8705 17.1757 14.9478 17.0155 14.9624C16.9369 14.9707 16.8574 14.9626 16.782 14.9388C16.7066 14.915 16.6369 14.8759 16.5772 14.824C16.5085 14.7745 16.4513 14.7108 16.4095 14.6371C16.3677 14.5635 16.3423 14.4817 16.335 14.3973C16.3246 14.3185 16.3315 14.2385 16.3555 14.1627C16.3794 14.087 16.4196 14.0174 16.4734 13.959C16.5928 13.8417 16.7462 13.765 16.9117 13.7398ZM13.8321 16.4157C13.7433 16.3481 13.669 16.2632 13.6137 16.1662C13.5585 16.0692 13.5233 15.9621 13.5104 15.8512C13.4975 15.7402 13.507 15.6279 13.5385 15.5208C13.57 15.4136 13.6228 15.314 13.6937 15.2277C13.7632 15.1411 13.8491 15.069 13.9465 15.0157C14.0439 14.9624 14.1509 14.9289 14.2613 14.9171C14.3717 14.9053 14.4834 14.9154 14.5899 14.947C14.6964 14.9785 14.7955 15.0308 14.8817 15.1009C14.968 15.1693 15.0398 15.2542 15.093 15.3506C15.1462 15.447 15.1796 15.5531 15.1914 15.6625C15.2032 15.772 15.1931 15.8827 15.1618 15.9883C15.1304 16.0938 15.0783 16.1921 15.0086 16.2773C14.942 16.3658 14.8582 16.4398 14.7622 16.495C14.6661 16.5501 14.5599 16.5853 14.45 16.5982C14.34 16.6111 14.2285 16.6016 14.1223 16.5703C14.0162 16.5389 13.9174 16.4863 13.8321 16.4157ZM13.6476 19.0916C13.4857 19.1026 13.3255 19.0533 13.1978 18.9532H13.1862C13.0637 18.8472 12.9854 18.699 12.9671 18.538C12.9582 18.4593 12.9659 18.3796 12.9897 18.3041C13.0136 18.2286 13.053 18.159 13.1055 18.0997C13.21 17.9813 13.353 17.9037 13.5092 17.8806C13.5878 17.873 13.6671 17.8814 13.7424 17.9052C13.8177 17.929 13.8874 17.9677 13.9475 18.019C14.0651 18.1192 14.1428 18.2584 14.1666 18.4111C14.1833 18.4906 14.1827 18.5728 14.1648 18.652C14.1469 18.7312 14.1122 18.8056 14.0629 18.8702C14.0137 18.9348 13.9511 18.988 13.8794 19.0262C13.8077 19.0644 13.7287 19.0867 13.6476 19.0916ZM14.4665 21.7675C14.3798 21.6981 14.3078 21.6122 14.2545 21.5148C14.2011 21.4173 14.1676 21.3103 14.1558 21.1999C14.144 21.0895 14.1542 20.9778 14.1858 20.8714C14.2173 20.7649 14.2696 20.6657 14.3396 20.5795C14.4066 20.4878 14.4915 20.4106 14.5892 20.3525C14.6868 20.2944 14.7952 20.2567 14.9078 20.2416C15.0204 20.2266 15.1349 20.2344 15.2443 20.2647C15.3538 20.2951 15.456 20.3473 15.5448 20.4181C15.6336 20.489 15.7071 20.5771 15.761 20.6771C15.8148 20.7772 15.8478 20.8871 15.8581 21.0002C15.8683 21.1134 15.8556 21.2274 15.8206 21.3355C15.7856 21.4436 15.7291 21.5434 15.6545 21.6291C15.5108 21.7983 15.3083 21.9067 15.0878 21.9324C14.8673 21.9581 14.6452 21.8992 14.4665 21.7675ZM15.8967 19.9682C15.5304 19.6807 15.2576 19.2909 15.1129 18.8483C14.9682 18.4056 14.9581 17.93 15.0839 17.4816C15.2097 17.0332 15.4657 16.6322 15.8196 16.3295C16.1734 16.0267 16.6091 15.8357 17.0716 15.7807C17.534 15.7257 18.0024 15.8092 18.4174 16.0206C18.8323 16.232 19.1752 16.5618 19.4026 16.9682C19.6301 17.3746 19.7318 17.8393 19.6949 18.3036C19.658 18.7678 19.4842 19.2107 19.1954 19.5761C18.8094 20.0646 18.2454 20.3802 17.6271 20.4537C17.0088 20.5272 16.3866 20.3526 15.8967 19.9682ZM17.7768 22.4826C17.6184 22.4941 17.4616 22.4445 17.3385 22.3442C17.3323 22.3442 17.3265 22.3418 17.3222 22.3375C17.3178 22.3331 17.3154 22.3273 17.3154 22.3212C17.1954 22.218 17.1174 22.0743 17.0963 21.9175C17.088 21.8388 17.0961 21.7593 17.1199 21.6839C17.1437 21.6085 17.1828 21.5388 17.2347 21.4792C17.3378 21.3591 17.4815 21.2811 17.6384 21.26C17.7171 21.2488 17.7974 21.2553 17.8733 21.2793C17.9491 21.3033 18.0186 21.344 18.0766 21.3984C18.1994 21.4994 18.278 21.6442 18.2958 21.8021C18.3062 21.8809 18.2993 21.9609 18.2753 22.0367C18.2514 22.1124 18.2112 22.182 18.1574 22.2404C18.1191 22.3093 18.0643 22.3675 17.9978 22.4098C17.9313 22.4521 17.8554 22.4772 17.7768 22.4826ZM19.8183 21.1216C19.7316 21.0522 19.6596 20.9663 19.6063 20.8688C19.5529 20.7714 19.5194 20.6644 19.5076 20.554C19.4958 20.4436 19.506 20.3319 19.5375 20.2255C19.5691 20.119 19.6214 20.0198 19.6914 19.9336C19.7598 19.8473 19.8447 19.7755 19.9411 19.7223C20.0376 19.6692 20.1436 19.6357 20.2531 19.6239C20.3626 19.6121 20.4733 19.6222 20.5788 19.6536C20.6844 19.685 20.7826 19.737 20.8679 19.8067C20.9564 19.8733 21.0304 19.9572 21.0856 20.0532C21.1407 20.1492 21.1758 20.2554 21.1887 20.3654C21.2017 20.4753 21.1922 20.5868 21.1608 20.693C21.1295 20.7992 21.0769 20.8979 21.0063 20.9832C20.9377 21.0707 20.8524 21.1438 20.7554 21.1981C20.6584 21.2525 20.5516 21.2871 20.4411 21.3C20.3307 21.3129 20.2188 21.3037 20.1119 21.2731C20.005 21.2425 19.9052 21.191 19.8183 21.1216Z" fill="#F8AD39"/>
<path d="M24.8702 15.47C24.7969 15.416 24.7441 15.3387 24.7202 15.2509C24.2508 13.9639 23.4417 12.828 22.3788 11.9637C21.2383 11.0281 19.8532 10.4396 18.3881 10.2682C18.3071 10.2604 18.2293 10.2332 18.1611 10.1891C18.0928 10.1449 18.0362 10.085 17.9959 10.0144C17.9553 9.95438 17.9346 9.88313 17.9367 9.81071C17.9387 9.73828 17.9635 9.66833 18.0074 9.61072L19.5645 7.62686C19.6103 7.57331 19.6705 7.53398 19.738 7.51354C19.8054 7.4931 19.8773 7.4924 19.9452 7.51152C21.4852 7.85743 22.9254 8.55189 24.1551 9.54151C25.3658 10.4886 26.3441 11.6997 27.0155 13.0825C27.0503 13.1436 27.0656 13.2139 27.0594 13.2839C27.0532 13.354 27.0258 13.4205 26.9809 13.4746L25.4238 15.4469C25.3807 15.5073 25.3193 15.5523 25.2487 15.5751C25.1781 15.598 25.102 15.5975 25.0317 15.5738C24.9737 15.5461 24.9195 15.5112 24.8702 15.47Z" fill="#F8AD39"/>
<path d="M26.3119 14.8703L25.7006 15.6546C25.6104 15.7605 25.4925 15.8393 25.3601 15.8821C25.2277 15.9249 25.086 15.93 24.9509 15.8968C24.843 15.8591 24.7418 15.8046 24.651 15.7353C24.527 15.6396 24.4313 15.5121 24.3742 15.3662C23.9222 14.1392 23.1495 13.0559 22.1366 12.229C21.0517 11.3342 19.7285 10.7768 18.3303 10.6257C18.1956 10.6093 18.0667 10.561 17.9543 10.4848C17.842 10.4085 17.7495 10.3066 17.6844 10.1875C17.6133 10.0663 17.5807 9.9264 17.591 9.78631C17.6013 9.64621 17.654 9.51257 17.7421 9.40314L18.3534 8.63036C16.3146 8.42401 14.2639 8.88543 12.5099 9.94518C10.756 11.0049 9.39367 12.6057 8.62803 14.5065C7.8624 16.4074 7.73485 18.5055 8.26459 20.4851C8.79433 22.4647 9.95269 24.2187 11.5653 25.4831C13.178 26.7475 15.1577 27.4539 17.2065 27.4961C19.2553 27.5382 21.2624 26.9138 22.9257 25.7168C24.589 24.5197 25.8185 22.8148 26.4292 20.8587C27.0399 18.9026 26.9987 16.801 26.3119 14.8703ZM13.5437 22.9556C12.57 22.1924 11.8447 21.1574 11.4596 19.9817C11.0744 18.806 11.0468 17.5425 11.3802 16.3511C11.7135 15.1597 12.3929 14.094 13.3323 13.2889C14.2716 12.4838 15.4288 11.9756 16.6572 11.8285C17.8855 11.6814 19.13 11.9021 20.2328 12.4627C21.3357 13.0232 22.2475 13.8984 22.8527 14.9774C23.4579 16.0564 23.7294 17.2908 23.6327 18.5241C23.536 19.7575 23.0755 20.9345 22.3096 21.906C21.285 23.2056 19.7868 24.0459 18.1436 24.2427C16.5004 24.4394 14.8462 23.9766 13.5437 22.9556Z" fill="#F8AD39"/>
</g>
<defs>
<clipPath id="clip0_416_5773">
<rect width="19.1234" height="20" fill="white" transform="translate(7.93823 7.5)"/>
</clipPath>
</defs>
</svg>
