<svg width="35" height="35" viewBox="0 0 35 35" fill="none" xmlns="http://www.w3.org/2000/svg">
<rect width="35" height="35" rx="17.5" fill="#3F4696"/>
<g clip-path="url(#clip0_416_5793)">
<path d="M14.7046 9.48846V8.54322C14.7046 8.42794 14.6124 8.46253 14.5432 8.46253H11.6729V7.52881H22.3012V8.46253H19.2695V9.48846H21.1715C21.2261 9.48528 21.2807 9.49512 21.3308 9.51717C21.3809 9.53921 21.4251 9.57283 21.4597 9.61526L22.9236 11.3674C22.9542 11.4142 22.9977 11.4511 23.0489 11.4737C23.1 11.4962 23.1567 11.5033 23.2118 11.4942H24.5144V13.8804H25.2406V12.2781C25.6326 12.2781 26.013 12.255 26.3818 12.2781C26.4937 12.2976 26.5983 12.3462 26.6854 12.4191C26.7724 12.4919 26.8387 12.5864 26.8775 12.6931C27.0431 13.0194 27.1708 13.3636 27.2579 13.719C27.5944 15.3946 27.5787 17.1219 27.2118 18.7911C27.134 19.0983 27.0137 19.3931 26.8545 19.6671C26.7912 19.808 26.6839 19.9245 26.5489 19.9993C26.4138 20.0741 26.2581 20.1032 26.1052 20.0821C25.8285 20.0706 25.5403 20.0821 25.2406 20.0821V18.4568H24.5259V20.8429H23.7767C24.1801 19.206 23.8689 17.7305 22.6816 16.4971C22.2722 16.062 21.7744 15.7196 21.2216 15.4929C20.6688 15.2662 20.074 15.1606 19.4769 15.183C18.036 15.206 16.8602 15.817 16.0072 16.9813C15.1542 18.1455 14.9582 19.4481 15.3271 20.8429H12.7565C12.7113 20.8461 12.666 20.837 12.6255 20.8168C12.5849 20.7965 12.5506 20.7657 12.5259 20.7277L11.0158 18.964C10.9591 18.9022 10.8805 18.865 10.7968 18.8602H9.45965V16.7046H8.43372V18.8487H7.5V11.5173H8.43372V13.6383H9.44813V11.4827C9.86311 11.4827 10.2435 11.4712 10.6354 11.4942C10.7322 11.502 10.8292 11.4836 10.9164 11.441C11.0036 11.3984 11.0778 11.3332 11.1311 11.2522C11.5807 10.6988 12.0533 10.1571 12.5144 9.60374C12.5454 9.56313 12.5856 9.53045 12.6317 9.50841C12.6778 9.48637 12.7285 9.47558 12.7795 9.47694H14.7046V9.48846Z" fill="#F8AD39"/>
<path d="M22.5894 22.0187L23.2925 22.7334L23.5231 22.4106L27.4424 26.3299L26.2896 27.4711L22.4049 23.5749L22.7046 23.3443C22.4395 23.0907 22.2205 22.8602 21.9784 22.6181C20.987 23.3789 19.8689 23.644 18.6355 23.3559C17.7014 23.1461 16.884 22.5847 16.353 21.7881C15.8055 21.0139 15.56 20.0662 15.6628 19.1235C15.7657 18.1808 16.2098 17.3083 16.9115 16.6704C17.6131 16.0325 18.5239 15.6733 19.4721 15.6605C20.4203 15.6477 21.3404 15.9821 22.0591 16.6008C22.8321 17.2593 23.3194 18.192 23.4183 19.2027C23.5172 20.2133 23.22 21.2228 22.5894 22.0187ZM19.5231 22.6412C20.3363 22.6503 21.1199 22.3361 21.7014 21.7675C22.2829 21.199 22.6148 20.4227 22.6239 19.6095C22.6331 18.7962 22.3189 18.0127 21.7503 17.4311C21.1817 16.8496 20.4055 16.5178 19.5922 16.5086C17.8977 16.4971 16.4914 17.8458 16.4798 19.5057C16.4707 19.9122 16.5424 20.3165 16.691 20.695C16.8395 21.0736 17.0618 21.4188 17.345 21.7105C17.6282 22.0023 17.9667 22.2349 18.3406 22.3946C18.7145 22.5544 19.1165 22.6382 19.5231 22.6412Z" fill="#F8AD39"/>
<path d="M17.2177 19.5633H16.8488C16.722 18.3645 17.8863 16.8083 19.5347 16.8659V17.2463C18.9206 17.2587 18.3347 17.5063 17.8978 17.938C17.47 18.3718 17.2264 18.9541 17.2177 19.5633Z" fill="#F8AD39"/>
</g>
<defs>
<clipPath id="clip0_416_5793">
<rect width="20" height="19.9424" fill="white" transform="translate(7.5 7.52881)"/>
</clipPath>
</defs>
</svg>
