<svg width="35" height="35" viewBox="0 0 35 35" fill="none" xmlns="http://www.w3.org/2000/svg">
<rect width="35" height="35" rx="17.5" fill="#3F4696"/>
<g clip-path="url(#clip0_416_5778)">
<path d="M8.68774 19.3502L7.49951 20.5385L8.89987 21.9388L10.0881 20.7506L8.68774 19.3502Z" fill="#F8AD39"/>
<path d="M26.4793 17.201C27.902 15.6546 27.8195 13.1804 26.3143 11.7268L24.1081 9.63401C23.3656 8.93023 22.3772 8.54485 21.3542 8.56026C20.3313 8.57567 19.3549 8.99065 18.6339 9.71648L17.9741 10.4278L19.3556 11.8093L20.0154 11.0979C20.37 10.7406 20.851 10.537 21.3544 10.5312C21.8578 10.5254 22.3433 10.7179 22.7061 11.067L24.9329 13.1598C25.6752 13.8711 25.737 15.1082 25.0154 15.8505L21.7989 19.3453C19.9844 21.4072 20.0669 24.5412 22.0463 26.4381L23.4277 25.0155C22.8448 24.4502 22.504 23.6809 22.4771 22.8693C22.4501 22.0578 22.7392 21.2675 23.2834 20.6649L26.4793 17.201Z" fill="#F8AD39"/>
<path d="M15.2216 22.9433L21.438 16.7268L21.469 16.7577C21.5903 16.8761 21.7531 16.9423 21.9226 16.9423C22.0921 16.9423 22.2549 16.8761 22.3762 16.7577C22.4946 16.6364 22.5608 16.4736 22.5608 16.3041C22.5608 16.1346 22.4946 15.9718 22.3762 15.8505L16.3762 9.82986C16.2559 9.70955 16.0927 9.64197 15.9226 9.64197C15.7524 9.64197 15.5893 9.70955 15.469 9.82986C15.3487 9.95016 15.2811 10.1133 15.2811 10.2835C15.2811 10.4536 15.3487 10.6168 15.469 10.7371L15.5824 10.8402L9.36588 17.0876L9.25248 16.9742C9.13117 16.8558 8.96838 16.7895 8.79887 16.7895C8.62937 16.7895 8.46658 16.8558 8.34526 16.9742C8.22622 17.0972 8.15967 17.2617 8.15967 17.433C8.15967 17.6042 8.22622 17.7687 8.34526 17.8917L14.3762 23.9123C14.4975 24.0307 14.6603 24.097 14.8298 24.097C14.9993 24.097 15.1621 24.0307 15.2834 23.9123C15.3801 23.7661 15.4264 23.5923 15.4153 23.4174C15.4041 23.2425 15.3361 23.076 15.2216 22.9433ZM14.2319 21.6031L13.2422 20.6134L19.0257 14.8299L20.0154 15.8195L14.2319 21.6031Z" fill="#F8AD39"/>
</g>
<defs>
<clipPath id="clip0_416_5778">
<rect width="20" height="17.8763" fill="white" transform="translate(7.5 8.56189)"/>
</clipPath>
</defs>
</svg>
