<svg width="35" height="35" viewBox="0 0 35 35" fill="none" xmlns="http://www.w3.org/2000/svg">
<rect width="35" height="35" rx="17.5" fill="#3F4696"/>
<g clip-path="url(#clip0_416_5768)">
<path d="M13.369 14.1725C13.4001 14.082 13.4495 13.9989 13.5142 13.9282C13.5788 13.8576 13.6572 13.801 13.7445 13.762C13.8319 13.7222 13.9263 13.7002 14.0223 13.6972C14.1182 13.6942 14.2138 13.7103 14.3035 13.7445L15.3515 14.1288C15.6264 13.7038 15.9552 13.3163 16.3297 12.976L15.8319 11.8755C15.7889 11.7909 15.7644 11.6981 15.7599 11.6032C15.7553 11.5084 15.771 11.4137 15.8057 11.3253C15.8383 11.2343 15.8892 11.1509 15.9553 11.0803C16.0214 11.0097 16.1012 10.9534 16.19 10.9148L17.5611 10.286C17.6464 10.2451 17.7391 10.2217 17.8336 10.2172C17.9281 10.2127 18.0226 10.2272 18.1114 10.2598C18.2029 10.2915 18.2868 10.342 18.3575 10.4082C18.4282 10.4744 18.4842 10.5548 18.5218 10.6441L18.9847 11.6397C19.4821 11.5423 19.99 11.51 20.4956 11.5437L20.9236 10.3996C20.9518 10.3099 20.9993 10.2276 21.0627 10.1582C21.126 10.0888 21.2037 10.0341 21.2904 9.9978C21.3772 9.95604 21.4718 9.93291 21.568 9.9299C21.6643 9.92689 21.7601 9.94407 21.8493 9.98034L23.2555 10.4956C23.3463 10.5287 23.4294 10.5797 23.5 10.6458C23.5705 10.7118 23.627 10.7915 23.6659 10.8799C23.7099 10.966 23.7343 11.0608 23.7373 11.1574C23.7403 11.2541 23.7219 11.3502 23.6834 11.4389L23.2991 12.4782C23.7268 12.7563 24.1171 13.088 24.4607 13.4651L25.5524 12.9585C25.6398 12.9187 25.7342 12.8967 25.8301 12.8937C25.9261 12.8907 26.0217 12.9068 26.1114 12.941C26.2007 12.9723 26.2826 13.0218 26.3518 13.0865C26.421 13.1511 26.4759 13.2295 26.5131 13.3166L27.1507 14.6965C27.1902 14.7824 27.2121 14.8753 27.2151 14.9698C27.2181 15.0643 27.2021 15.1585 27.1681 15.2467C27.1356 15.3365 27.0857 15.419 27.0213 15.4894C26.9569 15.5599 26.8791 15.6169 26.7926 15.6572L25.7882 16.1113C25.8842 16.6148 25.9194 17.1279 25.893 17.6397L27.0284 18.0589C27.1193 18.0866 27.2031 18.1338 27.274 18.1971C27.3449 18.2605 27.4012 18.3385 27.4389 18.4258C27.4786 18.5131 27.5007 18.6075 27.5037 18.7035C27.5067 18.7994 27.4906 18.895 27.4563 18.9847L26.9323 20.3996C26.8979 20.4885 26.8462 20.5698 26.7802 20.6387C26.7143 20.7077 26.6354 20.7629 26.548 20.8013C26.4627 20.8422 26.3701 20.8657 26.2756 20.8702C26.1811 20.8747 26.0866 20.8601 25.9978 20.8275L24.9498 20.4345C24.6719 20.8597 24.3401 21.2472 23.9629 21.5873L24.4694 22.6878C24.5124 22.7724 24.5369 22.8652 24.5415 22.9601C24.546 23.0549 24.5304 23.1496 24.4956 23.238C24.463 23.329 24.4121 23.4124 24.346 23.483C24.2799 23.5536 24.2001 23.6099 24.1114 23.6485L22.7402 24.2773C22.6543 24.3168 22.5613 24.3387 22.4668 24.3417C22.3723 24.3447 22.2782 24.3288 22.19 24.2947C22.0976 24.2651 22.0125 24.2164 21.9403 24.1517C21.8681 24.087 21.8103 24.0077 21.7707 23.9192L21.3166 22.9148C20.8166 23.0149 20.3059 23.0501 19.7969 23.0196L19.3777 24.155C19.348 24.2463 19.2992 24.3301 19.2344 24.4009C19.1696 24.4717 19.0904 24.5278 19.0022 24.5655C18.9176 24.6093 18.8243 24.6336 18.7291 24.6367C18.6338 24.6397 18.5392 24.6213 18.452 24.583L17.0284 24.0677C16.8503 23.9972 16.7063 23.8606 16.6265 23.6865C16.5468 23.5123 16.5374 23.3141 16.6004 23.1332L17.0022 22.0851C16.8599 21.997 16.7229 21.9008 16.5917 21.7969L17.631 21.2729C17.8248 21.1741 18.0444 21.1375 18.2598 21.1681L18.6441 21.3341C19.1663 21.5268 19.721 21.6158 20.2773 21.5961C21.1355 21.5668 21.9659 21.2841 22.6638 20.7837C23.3616 20.2832 23.8957 19.5874 24.1987 18.7838C24.3962 18.2522 24.4864 17.6867 24.4639 17.1201C24.4414 16.5534 24.3067 15.9968 24.0677 15.4825C23.3341 13.8843 21.7882 12.9236 20.0153 12.9585C19.0713 12.9872 18.1628 13.3248 17.4292 13.9196C16.6956 14.5144 16.1774 15.3334 15.9541 16.2511C15.8057 16.5131 15.6659 16.7227 15.5262 16.7838L14.3996 17.3428C14.3996 17.2118 14.4083 17.072 14.417 16.941L13.2729 16.5044C13.182 16.4767 13.0982 16.4295 13.0273 16.3662C12.9564 16.3028 12.9002 16.2248 12.8624 16.1375C12.8227 16.0502 12.8006 15.9558 12.7976 15.8598C12.7946 15.7639 12.8107 15.6683 12.845 15.5786L13.369 14.1725ZM10.4869 25.072C9.66594 25.1244 8.81004 24.7664 8.13755 24.1288C11.5087 24.1375 10.8712 20.0415 7.5 21.4301C7.96288 19.7533 9.45633 19.0895 11.0721 19.4389C11.9192 19.6223 12.4258 19.7707 13.238 19.4039L16.1026 17.9978C17.6223 17.2729 17.3341 14.5568 19.9017 14.3996C20.7227 14.3471 21.5786 14.7052 22.2511 15.334C18.8799 15.334 19.5175 19.4301 22.8886 18.0415C22.4258 19.7183 20.9323 20.3821 19.3166 20.0327C18.6092 19.8843 18.0677 19.5699 17.0371 20.0677L14.3297 21.4301C13.7969 21.7183 13.6135 21.9017 13.3166 22.4258C12.583 23.7096 12.2074 24.9672 10.4869 25.072Z" fill="#F8AD39"/>
</g>
<defs>
<clipPath id="clip0_416_5768">
<rect width="20" height="15.1441" fill="white" transform="translate(7.5 9.92798)"/>
</clipPath>
</defs>
</svg>
