<svg width="35" height="35" viewBox="0 0 35 35" fill="none" xmlns="http://www.w3.org/2000/svg">
<rect width="35" height="35" rx="17.5" fill="#3F4696"/>
<g clip-path="url(#clip0_416_5783)">
<path d="M17.4942 18.9533C18.265 18.9533 18.8899 18.3285 18.8899 17.5577C18.8899 16.7869 18.265 16.1621 17.4942 16.1621C16.7235 16.1621 16.0986 16.7869 16.0986 17.5577C16.0986 18.3285 16.7235 18.9533 17.4942 18.9533Z" fill="#F8AD39"/>
<path d="M24.7031 22.4135C24.5775 22.3346 24.4855 22.2119 24.4451 22.0692C24.4046 21.9265 24.4184 21.7738 24.484 21.6407C24.6454 21.3524 24.9799 21.3062 25.2683 21.41L26.3871 22.0329C27.0234 20.8191 27.3857 19.4804 27.4482 18.1113H26.1564C26.0096 18.1113 25.8687 18.053 25.7649 17.9491C25.6611 17.8453 25.6028 17.7045 25.6028 17.5577C25.6028 17.4108 25.6611 17.27 25.7649 17.1662C25.8687 17.0624 26.0096 17.004 26.1564 17.004H27.4482C27.3793 15.6415 27.034 14.3073 26.4332 13.0825L25.3259 13.7053C25.2597 13.7434 25.1864 13.7677 25.1106 13.7768C25.0347 13.7858 24.9577 13.7793 24.8844 13.7577C24.8111 13.7362 24.7429 13.7 24.684 13.6513C24.6251 13.6026 24.5767 13.5425 24.5416 13.4746C24.5033 13.41 24.4785 13.3382 24.4688 13.2637C24.4591 13.1892 24.4647 13.1135 24.4852 13.0412C24.5057 12.9689 24.5407 12.9015 24.5881 12.8431C24.6354 12.7848 24.6942 12.7367 24.7608 12.7018L25.8796 12.079C25.1529 10.9141 24.1495 9.95675 23.0307 9.17243L22.4194 10.2912C22.3368 10.416 22.2128 10.5076 22.0693 10.5498C21.9258 10.592 21.772 10.5821 21.635 10.5219C21.5103 10.4394 21.4187 10.3154 21.3765 10.1719C21.3343 10.0284 21.3442 9.87455 21.4044 9.7376L22.0272 8.6188C20.817 7.98369 19.4824 7.62149 18.1172 7.55767V8.78028C18.1204 8.85537 18.1081 8.93032 18.0808 9.00037C18.0536 9.07041 18.0121 9.13403 17.9589 9.18718C17.9058 9.24033 17.8421 9.28184 17.7721 9.30909C17.702 9.33633 17.6271 9.34871 17.552 9.34544C17.4774 9.34886 17.4029 9.33648 17.3334 9.30913C17.2639 9.28177 17.201 9.24006 17.1488 9.18671C17.0965 9.13336 17.0561 9.06959 17.0302 8.99955C17.0043 8.92951 16.9934 8.85479 16.9984 8.78028V7.5C15.6412 7.57056 14.3118 7.91173 13.0883 8.50346L13.6996 9.62226C13.7418 9.68836 13.77 9.76235 13.7826 9.83973C13.7952 9.9171 13.7919 9.99623 13.7729 10.0723C13.7539 10.1483 13.7195 10.2197 13.672 10.282C13.6245 10.3444 13.5647 10.3964 13.4964 10.4349C13.4281 10.4733 13.3527 10.4975 13.2747 10.5058C13.1968 10.5141 13.118 10.5065 13.0431 10.4833C12.9682 10.4602 12.8988 10.422 12.8391 10.3711C12.7795 10.3202 12.7308 10.2577 12.6962 10.1874L12.0733 9.06863C10.9084 9.79527 9.95108 10.7987 9.16677 11.9175L10.2856 12.5288C10.5739 12.7018 10.6201 13.0363 10.5162 13.3131C10.4336 13.4377 10.3089 13.5284 10.1649 13.5687C10.0209 13.6089 9.8672 13.596 9.73193 13.5323L8.61313 12.921C7.97803 14.1312 7.61582 15.4658 7.552 16.831H8.83228C8.91248 16.8195 8.99422 16.8253 9.07196 16.8481C9.14971 16.8709 9.22164 16.9102 9.28288 16.9633C9.34412 17.0163 9.39323 17.0819 9.42689 17.1556C9.46056 17.2293 9.47798 17.3094 9.47798 17.3904C9.47798 17.4715 9.46056 17.5515 9.42689 17.6252C9.39323 17.6989 9.34412 17.7645 9.28288 17.8176C9.22164 17.8706 9.14971 17.9099 9.07196 17.9327C8.99422 17.9555 8.91248 17.9614 8.83228 17.9498H7.552C7.6241 19.3068 7.96519 20.6359 8.55546 21.8599L9.67426 21.2486C9.95108 21.0755 10.2856 21.1909 10.4586 21.4677C10.5333 21.6008 10.5522 21.7581 10.5111 21.9052C10.47 22.0522 10.3723 22.1769 10.2394 22.252L9.12063 22.8633C9.84727 24.0398 10.8507 24.9856 11.9695 25.7699L12.5808 24.6511C12.6635 24.5265 12.7882 24.4358 12.9322 24.3956C13.0762 24.3554 13.2299 24.3683 13.3652 24.4319C13.642 24.5934 13.6996 24.9279 13.5843 25.2163L12.973 26.3351C14.1832 26.9702 15.5178 27.3324 16.883 27.3962V26.1044C16.9024 25.9698 16.9696 25.8468 17.0724 25.7578C17.1751 25.6687 17.3065 25.6197 17.4424 25.6197C17.5784 25.6197 17.7098 25.6687 17.8125 25.7578C17.9152 25.8468 17.9825 25.9698 18.0018 26.1044V27.5C19.3605 27.439 20.6918 27.0974 21.9119 26.4965L21.3006 25.3777C21.1275 25.1009 21.2429 24.7664 21.5197 24.5934C21.5863 24.5569 21.6595 24.5339 21.735 24.5257C21.8105 24.5175 21.8869 24.5243 21.9598 24.5458C22.0327 24.5672 22.1006 24.6028 22.1597 24.6506C22.2188 24.6984 22.2678 24.7573 22.304 24.8241L22.9153 25.9429C24.0918 25.2163 25.0376 24.2128 25.8219 23.094L24.7031 22.4135ZM24.1495 18.9533C23.9717 19.7879 23.6476 20.5845 23.1921 21.3062C21.9119 20.0721 20.4586 19.4608 19.9511 20.0144C19.4436 20.5681 20.0087 22.0329 21.2429 23.2555C20.5263 23.7207 19.7278 24.0455 18.8899 24.2128C18.8438 22.4135 18.221 21.0179 17.4943 21.0179C16.7677 21.0179 16.0987 22.4135 16.0987 24.2128C15.2683 24.0328 14.4759 23.7088 13.7573 23.2555C14.9799 21.9752 15.5451 20.5219 15.0376 20.0144C14.5301 19.5069 13.0883 20.0721 11.7965 21.3062C11.3224 20.5955 11.0003 19.7944 10.8507 18.9533C12.6385 18.8956 14.0918 18.2843 14.0918 17.5577C14.0918 16.831 12.6385 16.1621 10.8507 16.1621C11.0091 15.3413 11.3307 14.5608 11.7965 13.8668C13.0883 15.1009 14.5416 15.6546 15.0376 15.1586C15.5335 14.6626 14.9799 13.1401 13.7573 11.9175C14.4759 11.4642 15.2683 11.1402 16.0987 10.9602C16.1564 12.748 16.7677 14.1551 17.4943 14.1551C18.221 14.1551 18.8899 12.7018 18.8899 10.9141C19.7256 11.0825 20.5232 11.4031 21.2429 11.8599C20.0087 13.1401 19.4551 14.5934 19.9511 15.1009C20.447 15.6084 21.9119 15.0433 23.1921 13.8091C23.6549 14.5061 23.9798 15.2852 24.1495 16.1044C22.3617 16.1621 20.9661 16.7734 20.9661 17.5C20.9661 18.2266 22.4194 18.9533 24.1495 18.9533Z" fill="#F8AD39"/>
</g>
<defs>
<clipPath id="clip0_416_5783">
<rect width="19.8962" height="20" fill="white" transform="translate(7.552 7.5)"/>
</clipPath>
</defs>
</svg>
