<svg width="35" height="35" viewBox="0 0 35 35" fill="none" xmlns="http://www.w3.org/2000/svg">
<rect width="35" height="35" rx="17.5" fill="#3F4696"/>
<g clip-path="url(#clip0_416_5788)">
<path d="M13.2906 19.9343H12.3777C11.8982 19.9251 11.6401 19.6669 11.6401 19.1966C11.6308 19.0399 11.6401 18.8739 11.6401 18.6802H8.08081V16.2828H11.6401C11.6401 16.08 11.6308 15.9048 11.6401 15.7203C11.6401 15.3054 11.9075 15.038 12.3224 15.0288H13.2906V14.7522C13.2906 13.7932 13.2721 12.8342 13.2998 11.866C13.3048 11.2914 13.5193 10.7384 13.9029 10.3106C14.2866 9.88286 14.8131 9.6097 15.3837 9.54239C15.9277 9.46862 16.4902 9.52395 17.0527 9.52395V25.4576C16.1767 25.4207 15.2731 25.6143 14.4709 25.0887C13.6686 24.5631 13.3182 23.9546 13.2998 23.0878C13.2814 22.221 13.2906 21.1791 13.2906 20.2201V19.9343ZM16.4718 12.6037C16.4072 12.4562 16.3796 12.3363 16.3058 12.2625C15.9554 11.9029 15.605 11.5433 15.2362 11.2021C15.199 11.1592 15.1529 11.1247 15.1012 11.1011C15.0495 11.0775 14.9933 11.0653 14.9365 11.0653C14.8797 11.0653 14.8235 11.0775 14.7718 11.1011C14.7201 11.1247 14.674 11.1592 14.6368 11.2021C14.5939 11.2394 14.5594 11.2854 14.5358 11.3371C14.5122 11.3888 14.5 11.445 14.5 11.5018C14.5 11.5587 14.5122 11.6148 14.5358 11.6665C14.5594 11.7182 14.5939 11.7643 14.6368 11.8015C14.9872 12.1703 15.3561 12.5299 15.7157 12.8896C15.854 13.0279 16.0384 13.074 16.1951 12.9633C16.3519 12.8527 16.3796 12.7328 16.4718 12.6037ZM16.4718 14.8075C16.398 14.6507 16.3796 14.5216 16.3058 14.4387C15.9554 14.0698 15.5866 13.7102 15.227 13.3598C15.1884 13.3202 15.1422 13.2889 15.0911 13.2678C15.04 13.2467 14.9852 13.2363 14.9299 13.2371C14.8746 13.238 14.8201 13.2502 14.7698 13.2728C14.7194 13.2955 14.6741 13.3283 14.6368 13.369C14.5948 13.4056 14.561 13.4505 14.5375 13.501C14.514 13.5515 14.5014 13.6064 14.5005 13.662C14.4997 13.7177 14.5105 13.7729 14.5324 13.8241C14.5543 13.8753 14.5868 13.9213 14.6276 13.9592C14.9872 14.3372 15.3561 14.7061 15.7341 15.0749C15.8632 15.1948 16.0292 15.2501 16.1767 15.1487C16.3242 15.0472 16.3796 14.9274 16.4718 14.8075ZM15.0057 22.0274C14.7475 22.0274 14.6092 22.1288 14.5354 22.2948C14.5017 22.3763 14.4943 22.4663 14.5141 22.5522C14.5339 22.6382 14.58 22.7158 14.646 22.7743L15.6972 23.8255C15.7534 23.8799 15.819 23.9236 15.8909 23.9546C15.9707 23.9863 16.0589 23.9898 16.141 23.9647C16.2232 23.9395 16.2943 23.8872 16.3427 23.8162C16.4057 23.7242 16.4346 23.6131 16.4245 23.502C16.4144 23.3909 16.3659 23.2868 16.2874 23.2077C15.9493 22.8511 15.5989 22.5007 15.2362 22.1565C15.1665 22.1018 15.0887 22.0583 15.0057 22.0274ZM16.0292 21.8061C16.1583 21.7139 16.2966 21.6493 16.3703 21.5387C16.4168 21.4552 16.433 21.3582 16.4162 21.2641C16.3994 21.17 16.3506 21.0846 16.2781 21.0223C15.9277 20.6627 15.5681 20.3031 15.2085 19.9527C15.0149 19.7591 14.7659 19.7591 14.5907 19.9343C14.4155 20.1095 14.4155 20.3677 14.6276 20.5705C14.978 20.9209 15.3284 21.2621 15.6972 21.6032C15.8022 21.6798 15.9132 21.7476 16.0292 21.8061ZM16.4533 19.215C16.398 19.086 16.3888 18.9753 16.3242 18.9108C15.937 18.505 15.5497 18.1085 15.144 17.7213C15.0652 17.6539 14.9632 17.62 14.8598 17.6269C14.7564 17.6338 14.6598 17.6809 14.5907 17.7582C14.434 17.9149 14.3971 18.1639 14.5538 18.3114C14.9503 18.7263 15.3653 19.1228 15.7894 19.4917C15.8816 19.5747 16.0937 19.5654 16.2136 19.5193C16.3335 19.4732 16.3796 19.3165 16.4533 19.215ZM16.4626 16.9928C16.4072 16.8453 16.398 16.7162 16.3242 16.6424C15.9554 16.2552 15.5681 15.8679 15.1809 15.499C15.1042 15.435 15.0057 15.4031 14.906 15.41C14.8064 15.4169 14.7132 15.462 14.646 15.5359C14.4801 15.6927 14.4432 15.9324 14.5907 16.0892C14.978 16.4949 15.3745 16.8914 15.7802 17.2787C15.8333 17.3371 15.9064 17.3733 15.9851 17.3802C16.0637 17.387 16.142 17.3639 16.2044 17.3156C16.3051 17.2206 16.3921 17.112 16.4626 16.9928Z" fill="#F8AD39"/>
<path d="M23.3689 16.329H26.9189V18.7172H23.3689V19.2796C23.3597 19.6946 23.1015 19.9712 22.6773 19.9712H21.6815C21.6815 20.0634 21.6722 20.1372 21.6722 20.2109C21.6722 21.0961 21.6538 21.9813 21.6722 22.8665C21.6907 23.5765 21.4141 24.1575 20.8977 24.6277C20.3218 25.1844 19.5502 25.4924 18.7492 25.4853H17.947V9.55165C18.3988 9.55165 18.8414 9.53321 19.284 9.55165C20.7133 9.59776 21.7091 10.6305 21.7183 12.0597V15.0657H22.6958C22.8316 15.0614 22.9654 15.1001 23.078 15.1762C23.1906 15.2524 23.2762 15.3622 23.3228 15.4899C23.347 15.5772 23.3625 15.6668 23.3689 15.7573V16.329ZM18.989 19.63L19.0351 19.5931L19.2287 19.5286L19.3301 19.4548L20.409 18.376C20.5842 18.1824 20.5934 17.9426 20.4366 17.7859C20.2799 17.6291 20.0217 17.5646 19.8465 17.7305C19.45 18.1086 19.0535 18.4959 18.6847 18.9108C18.6109 18.9938 18.6017 19.2151 18.6478 19.335C18.6939 19.4548 18.8691 19.5286 18.989 19.63ZM18.9798 21.7969C19.1181 21.7416 19.2195 21.7232 19.2748 21.6678C19.6713 21.2806 20.0678 20.9025 20.4459 20.4968C20.5079 20.4147 20.538 20.3128 20.5305 20.2101C20.523 20.1074 20.4785 20.011 20.4051 19.9388C20.3317 19.8665 20.2346 19.8235 20.1319 19.8175C20.0291 19.8116 19.9277 19.8433 19.8465 19.9067C19.45 20.2847 19.0535 20.672 18.6939 21.0777C18.6109 21.1699 18.6017 21.382 18.6478 21.5019C18.6939 21.6217 18.8691 21.7047 18.9798 21.7969ZM20.1508 10.9809C20.0125 11.0454 19.9111 11.0639 19.8373 11.1284C19.45 11.5065 19.0627 11.8845 18.6939 12.281C18.6242 12.3574 18.5872 12.458 18.5906 12.5614C18.594 12.6648 18.6377 12.7627 18.7124 12.8343C18.7461 12.8759 18.788 12.9102 18.8355 12.9352C18.8829 12.9602 18.9349 12.9753 18.9883 12.9796C19.0418 12.9839 19.0955 12.9774 19.1464 12.9603C19.1972 12.9432 19.244 12.9161 19.284 12.8804C19.6805 12.5023 20.0678 12.1058 20.4459 11.7093C20.5063 11.6559 20.5446 11.5818 20.5531 11.5016C20.5617 11.4214 20.5398 11.3409 20.492 11.276C20.3936 11.1611 20.2786 11.0616 20.1508 10.9809ZM20.6026 22.4055C20.4828 22.2764 20.3998 22.1381 20.2707 22.0643C20.1416 21.9906 19.9295 22.0274 19.7912 22.1658L18.74 23.2169C18.5464 23.4198 18.5464 23.6595 18.7124 23.844C18.8783 24.0284 19.1457 24.0284 19.3486 23.8255C19.699 23.4843 20.0494 23.1432 20.3813 22.7836C20.4643 22.7006 20.5104 22.5623 20.6026 22.4055ZM20.5934 13.6365C20.492 13.5166 20.409 13.3691 20.2799 13.2861C20.2063 13.2433 20.1202 13.2273 20.0362 13.2407C19.9522 13.2542 19.8754 13.2963 19.8189 13.3599C19.45 13.7287 19.0812 14.0883 18.7216 14.4571C18.6797 14.496 18.6463 14.5431 18.6234 14.5954C18.6005 14.6478 18.5887 14.7043 18.5887 14.7614C18.5887 14.8186 18.6005 14.8751 18.6234 14.9274C18.6463 14.9798 18.6797 15.0269 18.7216 15.0657C18.8968 15.2409 19.1365 15.2409 19.3394 15.0473C19.699 14.6969 20.0494 14.3465 20.3998 13.9869C20.4745 13.876 20.5393 13.7587 20.5934 13.6365ZM18.9798 17.417C19.1181 17.3525 19.2287 17.3248 19.2933 17.2603C19.6805 16.8822 20.0678 16.5042 20.4459 16.1077C20.6026 15.9417 20.575 15.702 20.409 15.536C20.243 15.37 20.0125 15.3608 19.8465 15.5175C19.45 15.8956 19.0535 16.2829 18.6939 16.6886C18.6109 16.7716 18.6017 16.9929 18.6478 17.1127C18.6939 17.2326 18.8691 17.3156 18.9798 17.417Z" fill="#F8AD39"/>
<path d="M9.27951 11.1929C9.27306 11.0422 9.27614 10.8913 9.28874 10.7411C9.29796 10.6581 9.33484 10.5198 9.39016 10.5013C9.49424 10.469 9.60686 10.4789 9.70367 10.529C9.84487 10.6222 9.98035 10.7238 10.1094 10.8333L11.179 11.6724C11.4372 11.8844 11.4372 12.1703 11.1698 12.3824C10.6995 12.7512 10.2293 13.12 9.74978 13.4796C9.67222 13.5384 9.57939 13.5736 9.48237 13.5811C9.45368 13.5827 9.42497 13.578 9.39833 13.5672C9.3717 13.5564 9.3478 13.5398 9.32838 13.5186C9.30895 13.4974 9.29449 13.4722 9.28604 13.4447C9.27759 13.4172 9.27536 13.3882 9.27951 13.3598C9.28874 13.1938 9.27951 13.037 9.27951 12.8434H7.80418C7.61976 12.8342 7.50911 12.7328 7.50911 12.5483C7.49989 12.198 7.49989 11.8568 7.50911 11.5064C7.50911 11.2943 7.61976 11.2021 7.85028 11.2021H9.27951V11.1929Z" fill="#F8AD39"/>
<path d="M25.7203 22.1565H26.7715C27.4999 22.1565 27.4999 22.1565 27.4999 22.8665C27.4999 23.0417 27.5091 23.2261 27.4999 23.4013C27.4907 23.5765 27.3985 23.7517 27.1403 23.761H25.7203C25.7267 23.93 25.7236 24.0994 25.7111 24.2681C25.7018 24.3511 25.665 24.471 25.6004 24.4894C25.5563 24.5058 25.5087 24.5109 25.4621 24.5045C25.4154 24.4981 25.3711 24.4802 25.333 24.4525C24.8259 24.0837 24.3095 23.7056 23.8116 23.3184C23.5626 23.1247 23.5718 22.8296 23.8208 22.636C24.3095 22.2395 24.8074 21.8522 25.3053 21.4742C25.3472 21.4471 25.3942 21.429 25.4434 21.4211C25.4926 21.4132 25.543 21.4155 25.5912 21.4281C25.6633 21.4952 25.7063 21.5879 25.7111 21.6863C25.7284 21.8424 25.7315 21.9998 25.7203 22.1565Z" fill="#F8AD39"/>
</g>
<defs>
<clipPath id="clip0_416_5788">
<rect width="20" height="15.9889" fill="white" transform="translate(7.5 9.50549)"/>
</clipPath>
</defs>
</svg>
